devicons.ufo
<glyph name="uniE600" format="2">
  <advance width="1024"/>
  <unicode hex="E700"/>
  <note>
uniE600
</note>
  <outline>
    <contour>
      <point x="797" y="501" type="line"/>
      <point x="797" y="325" type="line"/>
      <point x="389" y="82" type="line"/>
      <point x="227" y="196" type="line"/>
      <point x="227" y="795" type="line"/>
      <point x="390" y="745" type="line"/>
      <point x="390" y="342" type="line"/>
      <point x="232" y="201" type="line"/>
      <point x="618" y="405" type="line"/>
      <point x="511" y="453" type="line"/>
      <point x="439" y="611" type="line"/>
    </contour>
  </outline>
</glyph>
<glyph name="uniE601" format="2">
  <advance width="1024"/>
  <unicode hex="E701"/>
  <note>
uniE601
</note>
  <outline>
    <contour>
      <point x="492" y="817" type="line"/>
      <point x="501" y="820"/>
      <point x="533" y="818"/>
      <point x="544" y="813" type="qcurve" smooth="yes"/>
      <point x="554" y="808"/>
      <point x="572" y="791"/>
      <point x="577" y="781" type="qcurve" smooth="yes"/>
      <point x="584" y="766"/>
      <point x="583" y="728"/>
      <point x="573" y="639" type="qcurve" smooth="yes"/>
      <point x="568" y="593"/>
      <point x="561" y="528"/>
      <point x="562" y="528" type="qcurve"/>
      <point x="562" y="528"/>
      <point x="617" y="568"/>
      <point x="655" y="596" type="qcurve" smooth="yes"/>
      <point x="693" y="624"/>
      <point x="754" y="667"/>
      <point x="759" y="669" type="qcurve" smooth="yes"/>
      <point x="769" y="674"/>
      <point x="801" y="676"/>
      <point x="813" y="673" type="qcurve" smooth="yes"/>
      <point x="838" y="666"/>
      <point x="868" y="621"/>
      <point x="867" y="594" type="qcurve" smooth="yes"/>
      <point x="866" y="580"/>
      <point x="855" y="558"/>
      <point x="844" y="548" type="qcurve" smooth="yes"/>
      <point x="834" y="539"/>
      <point x="804" y="524"/>
      <point x="713" y="484" type="qcurve" smooth="yes"/>
      <point x="672" y="465"/>
      <point x="614" y="438"/>
      <point x="614" y="438" type="qcurve"/>
      <point x="615" y="437"/>
      <point x="677" y="410"/>
      <point x="720" y="391" type="qcurve" smooth="yes"/>
      <point x="806" y="354"/>
      <point x="845" y="333"/>
      <point x="855" y="318" type="qcurve" smooth="yes"/>
      <point x="862" y="306"/>
      <point x="868" y="285"/>
      <point x="867" y="272" type="qcurve" smooth="yes"/>
      <point x="864" y="240"/>
      <point x="809" y="196"/>
      <point x="779" y="202" type="qcurve" smooth="yes"/>
      <point x="764" y="204"/>
      <point x="727" y="229"/>
      <point x="644" y="289" type="qcurve" smooth="yes"/>
      <point x="610" y="314"/>
      <point x="562" y="349"/>
      <point x="562" y="349" type="qcurve"/>
      <point x="561" y="348"/>
      <point x="568" y="284"/>
      <point x="573" y="239" type="qcurve" smooth="yes"/>
      <point x="581" y="166"/>
      <point x="585" y="126"/>
      <point x="583" y="118" type="qcurve" smooth="yes"/>
      <point x="580" y="99"/>
      <point x="559" y="72"/>
      <point x="543" y="64" type="qcurve" smooth="yes"/>
      <point x="536" y="60"/>
      <point x="525" y="59"/>
      <point x="512" y="59" type="qcurve" smooth="yes"/>
      <point x="499" y="59"/>
      <point x="488" y="60"/>
      <point x="481" y="64" type="qcurve" smooth="yes"/>
      <point x="470" y="69"/>
      <point x="452" y="87"/>
      <point x="447" y="96" type="qcurve" smooth="yes"/>
      <point x="441" y="111"/>
      <point x="442" y="149"/>
      <point x="451" y="236" type="qcurve" smooth="yes"/>
      <point x="456" y="280"/>
      <point x="463" y="345"/>
      <point x="463" y="346" type="qcurve"/>
      <point x="462" y="348"/>
      <point x="421" y="319"/>
      <point x="372" y="283" type="qcurve" smooth="yes"/>
      <point x="335" y="256"/>
      <point x="274" y="213"/>
      <point x="269" y="211" type="qcurve" smooth="yes"/>
      <point x="250" y="201"/>
      <point x="216" y="201"/>
      <point x="198" y="210" type="qcurve" smooth="yes"/>
      <point x="187" y="216"/>
      <point x="170" y="235"/>
      <point x="164" y="247" type="qcurve" smooth="yes"/>
      <point x="160" y="256"/>
      <point x="158" y="266"/>
      <point x="158" y="278" type="qcurve" smooth="yes"/>
      <point x="158" y="288"/>
      <point x="160" y="299"/>
      <point x="163" y="306" type="qcurve" smooth="yes"/>
      <point x="168" y="316"/>
      <point x="188" y="338"/>
      <point x="198" y="344" type="qcurve" smooth="yes"/>
      <point x="202" y="346"/>
      <point x="267" y="375"/>
      <point x="308" y="393" type="qcurve" smooth="yes"/>
      <point x="350" y="411"/>
      <point x="409" y="438"/>
      <point x="409" y="438" type="qcurve"/>
      <point x="409" y="439"/>
      <point x="347" y="468"/>
      <point x="304" y="487" type="qcurve" smooth="yes"/>
      <point x="219" y="524"/>
      <point x="179" y="546"/>
      <point x="170" y="560" type="qcurve" smooth="yes"/>
      <point x="160" y="575"/>
      <point x="156" y="605"/>
      <point x="161" y="621" type="qcurve" smooth="yes"/>
      <point x="166" y="639"/>
      <point x="194" y="667"/>
      <point x="212" y="672" type="qcurve" smooth="yes"/>
      <point x="224" y="676"/>
      <point x="256" y="674"/>
      <point x="266" y="669" type="qcurve" smooth="yes"/>
      <point x="270" y="667"/>
      <point x="331" y="624"/>
      <point x="369" y="596" type="qcurve" smooth="yes"/>
      <point x="408" y="567"/>
      <point x="462" y="529"/>
      <point x="463" y="530" type="qcurve"/>
      <point x="463" y="531"/>
      <point x="456" y="595"/>
      <point x="451" y="640" type="qcurve" smooth="yes"/>
      <point x="444" y="706"/>
      <point x="440" y="751"/>
      <point x="441" y="758" type="qcurve" smooth="yes"/>
      <point x="445" y="779"/>
      <point x="471" y="810"/>
      <point x="492" y="817" type="qcurve"/>
    </contour>
  </outline>
</glyph>
<glyph name="uniE602" format="2">
  <advance width="1024"/>
  <unicode hex="E702"/>
  <note>
uniE602
</note>
  <outline>
    <contour>
      <point x="859" y="471" type="line"/>
      <point x="873" y="457"/>
      <point x="873" y="419"/>
      <point x="859" y="405" type="qcurve" smooth="yes"/>
      <point x="546" y="92" type="line" smooth="yes"/>
      <point x="532" y="78"/>
      <point x="493" y="78"/>
      <point x="480" y="92" type="qcurve" smooth="yes"/>
      <point x="165" y="407" type="line" smooth="yes"/>
      <point x="151" y="420"/>
      <point x="151" y="459"/>
      <point x="165" y="472" type="qcurve" smooth="yes"/>
      <point x="381" y="689" type="line"/>
      <point x="463" y="607" type="line"/>
      <point x="456" y="592"/>
      <point x="462" y="558"/>
      <point x="475" y="546" type="qcurve" smooth="yes"/>
      <point x="479" y="542"/>
      <point x="488" y="536"/>
      <point x="493" y="534" type="qcurve"/>
      <point x="493" y="336" type="line"/>
      <point x="488" y="334"/>
      <point x="479" y="328"/>
      <point x="475" y="324" type="qcurve" smooth="yes"/>
      <point x="458" y="308"/>
      <point x="458" y="262"/>
      <point x="475" y="246" type="qcurve" smooth="yes"/>
      <point x="491" y="229"/>
      <point x="537" y="229"/>
      <point x="553" y="246" type="qcurve" smooth="yes"/>
      <point x="569" y="262"/>
      <point x="569" y="308"/>
      <point x="553" y="324" type="qcurve"/>
      <point x="549" y="327"/>
      <point x="542" y="332"/>
      <point x="538" y="334" type="qcurve"/>
      <point x="538" y="531" type="line"/>
      <point x="613" y="456" type="line"/>
      <point x="607" y="441"/>
      <point x="613" y="408"/>
      <point x="625" y="396" type="qcurve" smooth="yes"/>
      <point x="641" y="380"/>
      <point x="687" y="380"/>
      <point x="703" y="396" type="qcurve" smooth="yes"/>
      <point x="719" y="412"/>
      <point x="719" y="458"/>
      <point x="703" y="474" type="qcurve" smooth="yes"/>
      <point x="691" y="486"/>
      <point x="660" y="492"/>
      <point x="646" y="487" type="qcurve"/>
      <point x="566" y="567" type="line"/>
      <point x="571" y="582"/>
      <point x="564" y="613"/>
      <point x="553" y="624" type="qcurve" smooth="yes"/>
      <point x="541" y="636"/>
      <point x="510" y="643"/>
      <point x="496" y="638" type="qcurve"/>
      <point x="413" y="721" type="line"/>
      <point x="478" y="786" type="line" smooth="yes"/>
      <point x="492" y="800"/>
      <point x="531" y="800"/>
      <point x="544" y="786" type="qcurve" smooth="yes"/>
      <point x="859" y="471" type="line"/>
    </contour>
  </outline>
</glyph>
<glyph name="uniE603" format="2">
  <advance width="1024"/>
  <unicode hex="E703"/>
  <note>
uniE603
</note>
  <outline>
    <contour>
      <point x="512" y="840" type="line"/>
      <point x="586" y="840"/>
      <point x="715" y="822"/>
      <point x="812" y="790"/>
      <point x="868" y="747"/>
      <point x="868" y="722" type="qcurve" smooth="yes"/>
      <point x="868" y="716"/>
      <point x="854" y="629"/>
      <point x="835" y="514"/>
      <point x="815" y="397"/>
      <point x="808" y="360" type="qcurve" smooth="yes"/>
      <point x="806" y="343"/>
      <point x="761" y="305"/>
      <point x="685" y="273"/>
      <point x="578" y="252"/>
      <point x="512" y="252" type="qcurve"/>
      <point x="512" y="252" type="line"/>
      <point x="512" y="252" type="line"/>
      <point x="446" y="252"/>
      <point x="339" y="273"/>
      <point x="263" y="305"/>
      <point x="218" y="343"/>
      <point x="216" y="360" type="qcurve" smooth="yes"/>
      <point x="209" y="397"/>
      <point x="189" y="514"/>
      <point x="170" y="629"/>
      <point x="156" y="716"/>
      <point x="156" y="722" type="qcurve" smooth="yes"/>
      <point x="156" y="747"/>
      <point x="212" y="790"/>
      <point x="309" y="822"/>
      <point x="438" y="840"/>
      <point x="512" y="840" type="qcurve"/>
      <point x="512" y="840" type="line"/>
    </contour>
    <contour>
      <point x="512" y="331" type="line"/>
      <point x="559" y="331"/>
      <point x="625" y="397"/>
      <point x="625" y="444" type="qcurve" smooth="yes"/>
      <point x="625" y="491"/>
      <point x="559" y="557"/>
      <point x="512" y="557" type="qcurve" smooth="yes"/>
      <point x="465" y="557"/>
      <point x="399" y="491"/>
      <point x="399" y="444" type="qcurve" smooth="yes"/>
      <point x="399" y="397"/>
      <point x="465" y="331"/>
      <point x="512" y="331" type="qcurve"/>
    </contour>
    <contour>
      <point x="512" y="686" type="line"/>
      <point x="606" y="686"/>
      <point x="740" y="714"/>
      <point x="740" y="734" type="qcurve" smooth="yes"/>
      <point x="740" y="754"/>
      <point x="607" y="783"/>
      <point x="512" y="783" type="qcurve" smooth="yes"/>
      <point x="418" y="783"/>
      <point x="284" y="755"/>
      <point x="284" y="735" type="qcurve" smooth="yes"/>
      <point x="284" y="715"/>
      <point x="417" y="686"/>
      <point x="512" y="686" type="qcurve"/>
    </contour>
    <contour>
      <point x="768" y="281" type="line"/>
      <point x="773" y="281"/>
      <point x="781" y="274"/>
      <point x="781" y="267" type="qcurve" smooth="yes"/>
      <point x="781" y="266"/>
      <point x="780" y="264"/>
      <point x="780" y="264" type="qcurve"/>
      <point x="770" y="209"/>
      <point x="756" y="137"/>
      <point x="755" y="131" type="qcurve" smooth="yes"/>
      <point x="746" y="91"/>
      <point x="607" y="37"/>
      <point x="512" y="37" type="qcurve"/>
      <point x="512" y="37" type="line"/>
      <point x="512" y="37" type="line"/>
      <point x="417" y="37"/>
      <point x="278" y="91"/>
      <point x="269" y="131" type="qcurve" smooth="yes"/>
      <point x="268" y="137"/>
      <point x="254" y="209"/>
      <point x="244" y="264" type="qcurve"/>
      <point x="244" y="264"/>
      <point x="243" y="266"/>
      <point x="243" y="267" type="qcurve" smooth="yes"/>
      <point x="243" y="274"/>
      <point x="251" y="281"/>
      <point x="256" y="281" type="qcurve" smooth="yes"/>
      <point x="260" y="281"/>
      <point x="266" y="277"/>
      <point x="266" y="277" type="qcurve"/>
      <point x="266" y="277"/>
      <point x="393" y="207"/>
      <point x="512" y="207" type="qcurve" smooth="yes"/>
      <point x="631" y="207"/>
      <point x="758" y="277"/>
      <point x="758" y="277" type="qcurve"/>
      <point x="758" y="277"/>
      <point x="764" y="281"/>
      <point x="768" y="281" type="qcurve"/>
    </contour>
    <contour>
      <point x="577" y="443" type="line"/>
      <point x="577" y="469"/>
      <point x="541" y="505"/>
      <point x="515" y="505" type="qcurve" smooth="yes"/>
      <point x="490" y="505"/>
      <point x="454" y="469"/>
      <point x="454" y="443" type="qcurve" smooth="yes"/>
      <point x="454" y="418"/>
      <point x="490" y="382"/>
      <point x="515" y="382" type="qcurve" smooth="yes"/>
      <point x="541" y="382"/>
      <point x="577" y="418"/>
      <point x="577" y="443" type="qcurve"/>
    </contour>
  </outline>
</glyph>
<glyph name="uniE604" format="2">
  <advance width="1024"/>
  <unicode hex="E704"/>
  <note>
uniE604
</note>
  <outline>
    <contour>
      <point x="163" y="781" type="line"/>
      <point x="173" y="793"/>
      <point x="245" y="783"/>
      <point x="267" y="766" type="qcurve" smooth="yes"/>
      <point x="277" y="759"/>
      <point x="314" y="745"/>
      <point x="330" y="742" type="qcurve" smooth="yes"/>
      <point x="376" y="735"/>
      <point x="456" y="686"/>
      <point x="508" y="634" type="qcurve" smooth="yes"/>
      <point x="549" y="593"/>
      <point x="590" y="532"/>
      <point x="622" y="464" type="qcurve" smooth="yes"/>
      <point x="658" y="390"/>
      <point x="684" y="354"/>
      <point x="711" y="342" type="qcurve" smooth="yes"/>
      <point x="744" y="327"/>
      <point x="846" y="251"/>
      <point x="846" y="240" type="qcurve" smooth="yes"/>
      <point x="846" y="234"/>
      <point x="819" y="225"/>
      <point x="781" y="218" type="qcurve" smooth="yes"/>
      <point x="767" y="216"/>
      <point x="746" y="208"/>
      <point x="746" y="205" type="qcurve" smooth="yes"/>
      <point x="746" y="203"/>
      <point x="769" y="184"/>
      <point x="785" y="174" type="qcurve" smooth="yes"/>
      <point x="802" y="164"/>
      <point x="838" y="131"/>
      <point x="848" y="119" type="qcurve" smooth="yes"/>
      <point x="872" y="89" type="line"/>
      <point x="821" y="118" type="line" smooth="yes"/>
      <point x="800" y="129"/>
      <point x="749" y="166"/>
      <point x="734" y="179" type="qcurve" smooth="yes"/>
      <point x="701" y="209"/>
      <point x="713" y="233"/>
      <point x="764" y="239" type="qcurve" smooth="yes"/>
      <point x="783" y="240"/>
      <point x="810" y="247"/>
      <point x="810" y="249" type="qcurve" smooth="yes"/>
      <point x="810" y="258"/>
      <point x="717" y="314"/>
      <point x="687" y="324" type="qcurve" smooth="yes"/>
      <point x="662" y="333"/>
      <point x="635" y="369"/>
      <point x="595" y="452" type="qcurve" smooth="yes"/>
      <point x="560" y="521"/>
      <point x="517" y="589"/>
      <point x="485" y="621" type="qcurve" smooth="yes"/>
      <point x="444" y="663"/>
      <point x="343" y="719"/>
      <point x="311" y="719" type="qcurve" smooth="yes"/>
      <point x="300" y="719"/>
      <point x="269" y="729"/>
      <point x="259" y="737" type="qcurve" smooth="yes"/>
      <point x="248" y="744"/>
      <point x="217" y="758"/>
      <point x="206" y="760" type="qcurve" smooth="yes"/>
      <point x="178" y="766"/>
      <point x="178" y="737"/>
      <point x="204" y="700" type="qcurve" smooth="yes"/>
      <point x="216" y="685"/>
      <point x="240" y="636"/>
      <point x="247" y="617" type="qcurve" smooth="yes"/>
      <point x="253" y="597"/>
      <point x="272" y="555"/>
      <point x="280" y="545" type="qcurve" smooth="yes"/>
      <point x="291" y="528"/>
      <point x="294" y="506"/>
      <point x="287" y="484" type="qcurve" smooth="yes"/>
      <point x="278" y="452"/>
      <point x="278" y="368"/>
      <point x="287" y="341" type="qcurve" smooth="yes"/>
      <point x="297" y="313"/>
      <point x="318" y="320"/>
      <point x="323" y="352" type="qcurve" smooth="yes"/>
      <point x="325" y="367"/>
      <point x="337" y="394"/>
      <point x="342" y="399" type="qcurve" smooth="yes"/>
      <point x="351" y="409"/>
      <point x="360" y="403"/>
      <point x="367" y="383" type="qcurve"/>
      <point x="373" y="371"/>
      <point x="398" y="325"/>
      <point x="410" y="305" type="qcurve" smooth="yes"/>
      <point x="423" y="285"/>
      <point x="438" y="254"/>
      <point x="437" y="253" type="qcurve" smooth="yes"/>
      <point x="434" y="250"/>
      <point x="374" y="315"/>
      <point x="361" y="336" type="qcurve" smooth="yes"/>
      <point x="354" y="348"/>
      <point x="350" y="346"/>
      <point x="350" y="329" type="qcurve" smooth="yes"/>
      <point x="350" y="309"/>
      <point x="322" y="275"/>
      <point x="310" y="279" type="qcurve" smooth="yes"/>
      <point x="295" y="284"/>
      <point x="259" y="350"/>
      <point x="255" y="379" type="qcurve" smooth="yes"/>
      <point x="252" y="395"/>
      <point x="256" y="444"/>
      <point x="261" y="466" type="qcurve" smooth="yes"/>
      <point x="270" y="501"/>
      <point x="268" y="524"/>
      <point x="255" y="543" type="qcurve" smooth="yes"/>
      <point x="247" y="554"/>
      <point x="228" y="594"/>
      <point x="223" y="611" type="qcurve" smooth="yes"/>
      <point x="218" y="628"/>
      <point x="193" y="677"/>
      <point x="181" y="695" type="qcurve" smooth="yes"/>
      <point x="157" y="730"/>
      <point x="149" y="767"/>
      <point x="163" y="781" type="qcurve"/>
    </contour>
  </outline>
</glyph>
<glyph name="uniE605" format="2">
  <advance width="1024"/>
  <unicode hex="E705"/>
  <note>
uniE605
</note>
  <outline>
    <contour>
      <point x="512" y="506" type="line"/>
      <point x="583" y="506"/>
      <point x="706" y="530"/>
      <point x="797" y="571"/>
      <point x="850" y="626"/>
      <point x="850" y="658" type="qcurve" smooth="yes"/>
      <point x="850" y="690"/>
      <point x="797" y="746"/>
      <point x="706" y="787"/>
      <point x="583" y="810"/>
      <point x="512" y="810" type="qcurve" smooth="yes"/>
      <point x="441" y="810"/>
      <point x="318" y="787"/>
      <point x="227" y="746"/>
      <point x="174" y="690"/>
      <point x="174" y="658" type="qcurve" smooth="yes"/>
      <point x="174" y="626"/>
      <point x="227" y="571"/>
      <point x="318" y="530"/>
      <point x="441" y="506"/>
      <point x="512" y="506" type="qcurve"/>
    </contour>
    <contour>
      <point x="512" y="776" type="line"/>
      <point x="566" y="776"/>
      <point x="674" y="759"/>
      <point x="761" y="728"/>
      <point x="816" y="684"/>
      <point x="816" y="658" type="qcurve" smooth="yes"/>
      <point x="816" y="632"/>
      <point x="761" y="589"/>
      <point x="674" y="557"/>
      <point x="566" y="540"/>
      <point x="512" y="540" type="qcurve" smooth="yes"/>
      <point x="458" y="540"/>
      <point x="350" y="557"/>
      <point x="263" y="589"/>
      <point x="208" y="632"/>
      <point x="208" y="658" type="qcurve" smooth="yes"/>
      <point x="208" y="684"/>
      <point x="263" y="728"/>
      <point x="350" y="759"/>
      <point x="458" y="776"/>
      <point x="512" y="776" type="qcurve"/>
    </contour>
    <contour>
      <point x="512" y="371" type="line"/>
      <point x="583" y="371"/>
      <point x="706" y="395"/>
      <point x="797" y="436"/>
      <point x="850" y="491"/>
      <point x="850" y="523" type="qcurve" smooth="yes"/>
      <point x="850" y="658" type="line" smooth="yes"/>
      <point x="850" y="665"/>
      <point x="840" y="675"/>
      <point x="833" y="675" type="qcurve" smooth="yes"/>
      <point x="826" y="675"/>
      <point x="816" y="665"/>
      <point x="816" y="658" type="qcurve" smooth="yes"/>
      <point x="816" y="523" type="line" smooth="yes"/>
      <point x="816" y="497"/>
      <point x="761" y="454"/>
      <point x="674" y="422"/>
      <point x="566" y="405"/>
      <point x="512" y="405" type="qcurve" smooth="yes"/>
      <point x="458" y="405"/>
      <point x="350" y="422"/>
      <point x="263" y="454"/>
      <point x="208" y="497"/>
      <point x="208" y="523" type="qcurve" smooth="yes"/>
      <point x="208" y="658" type="line" smooth="yes"/>
      <point x="208" y="665"/>
      <point x="198" y="675"/>
      <point x="191" y="675" type="qcurve" smooth="yes"/>
      <point x="184" y="675"/>
      <point x="174" y="665"/>
      <point x="174" y="658" type="qcurve" smooth="yes"/>
      <point x="174" y="523" type="line" smooth="yes"/>
      <point x="174" y="491"/>
      <point x="227" y="436"/>
      <point x="318" y="395"/>
      <point x="441" y="371"/>
      <point x="512" y="371" type="qcurve"/>
    </contour>
    <contour>
      <point x="512" y="219" type="line"/>
      <point x="583" y="219"/>
      <point x="706" y="243"/>
      <point x="797" y="284"/>
      <point x="850" y="339"/>
      <point x="850" y="371" type="qcurve" smooth="yes"/>
      <point x="850" y="523" type="line" smooth="yes"/>
      <point x="850" y="530"/>
      <point x="840" y="540"/>
      <point x="833" y="540" type="qcurve" smooth="yes"/>
      <point x="826" y="540"/>
      <point x="816" y="530"/>
      <point x="816" y="523" type="qcurve" smooth="yes"/>
      <point x="816" y="371" type="line" smooth="yes"/>
      <point x="816" y="345"/>
      <point x="761" y="302"/>
      <point x="674" y="271"/>
      <point x="566" y="253"/>
      <point x="512" y="253" type="qcurve" smooth="yes"/>
      <point x="458" y="253"/>
      <point x="350" y="271"/>
      <point x="263" y="302"/>
      <point x="208" y="345"/>
      <point x="208" y="371" type="qcurve" smooth="yes"/>
      <point x="208" y="523" type="line" smooth="yes"/>
      <point x="208" y="530"/>
      <point x="198" y="540"/>
      <point x="191" y="540" type="qcurve" smooth="yes"/>
      <point x="184" y="540"/>
      <point x="174" y="530"/>
      <point x="174" y="523" type="qcurve" smooth="yes"/>
      <point x="174" y="371" type="line" smooth="yes"/>
      <point x="174" y="339"/>
      <point x="227" y="284"/>
      <point x="318" y="243"/>
      <point x="441" y="219"/>
      <point x="512" y="219" type="qcurve"/>
    </contour>
    <contour>
      <point x="512" y="68" type="line"/>
      <point x="583" y="68"/>
      <point x="706" y="91"/>
      <point x="797" y="132"/>
      <point x="850" y="187"/>
      <point x="850" y="219" type="qcurve" smooth="yes"/>
      <point x="850" y="371" type="line" smooth="yes"/>
      <point x="850" y="378"/>
      <point x="840" y="388"/>
      <point x="833" y="388" type="qcurve" smooth="yes"/>
      <point x="826" y="388"/>
      <point x="816" y="378"/>
      <point x="816" y="371" type="qcurve" smooth="yes"/>
      <point x="816" y="219" type="line" smooth="yes"/>
      <point x="816" y="193"/>
      <point x="761" y="150"/>
      <point x="674" y="119"/>
      <point x="566" y="101"/>
      <point x="512" y="101" type="qcurve" smooth="yes"/>
      <point x="458" y="101"/>
      <point x="350" y="119"/>
      <point x="263" y="150"/>
      <point x="208" y="193"/>
      <point x="208" y="219" type="qcurve" smooth="yes"/>
      <point x="208" y="371" type="line" smooth="yes"/>
      <point x="208" y="378"/>
      <point x="198" y="388"/>
      <point x="191" y="388" type="qcurve" smooth="yes"/>
      <point x="184" y="388"/>
      <point x="174" y="378"/>
      <point x="174" y="371" type="qcurve" smooth="yes"/>
      <point x="174" y="219" type="line" smooth="yes"/>
      <point x="174" y="187"/>
      <point x="227" y="132"/>
      <point x="318" y="91"/>
      <point x="441" y="68"/>
      <point x="512" y="68" type="qcurve"/>
    </contour>
  </outline>
</glyph>
<glyph name="uniE606" format="2">
  <advance width="1024"/>
  <unicode hex="E706"/>
  <note>
uniE606
</note>
  <outline>
    <contour>
      <point x="512" y="79" type="line"/>
      <point x="576" y="79"/>
      <point x="688" y="95"/>
      <point x="772" y="123"/>
      <point x="821" y="160"/>
      <point x="821" y="182" type="qcurve" smooth="yes"/>
      <point x="821" y="213"/>
      <point x="821" y="262"/>
      <point x="821" y="285" type="qcurve" smooth="yes"/>
      <point x="821" y="291"/>
      <point x="814" y="304"/>
      <point x="810" y="310" type="qcurve"/>
      <point x="797" y="294"/>
      <point x="741" y="265"/>
      <point x="663" y="245"/>
      <point x="566" y="233"/>
      <point x="512" y="233" type="qcurve" smooth="yes"/>
      <point x="458" y="233"/>
      <point x="361" y="245"/>
      <point x="283" y="265"/>
      <point x="227" y="294"/>
      <point x="214" y="310" type="qcurve"/>
      <point x="210" y="304"/>
      <point x="203" y="291"/>
      <point x="203" y="285" type="qcurve" smooth="yes"/>
      <point x="203" y="256"/>
      <point x="203" y="205"/>
      <point x="203" y="182" type="qcurve" smooth="yes"/>
      <point x="203" y="160"/>
      <point x="252" y="123"/>
      <point x="336" y="95"/>
      <point x="448" y="79"/>
      <point x="512" y="79" type="qcurve"/>
    </contour>
    <contour>
      <point x="512" y="285" type="line"/>
      <point x="576" y="285"/>
      <point x="688" y="301"/>
      <point x="772" y="329"/>
      <point x="821" y="366"/>
      <point x="821" y="387" type="qcurve" smooth="yes"/>
      <point x="821" y="419"/>
      <point x="821" y="468"/>
      <point x="821" y="490" type="qcurve" smooth="yes"/>
      <point x="821" y="494"/>
      <point x="818" y="502"/>
      <point x="816" y="506" type="qcurve"/>
      <point x="816" y="506" type="line"/>
      <point x="815" y="509"/>
      <point x="811" y="514"/>
      <point x="810" y="516" type="qcurve"/>
      <point x="797" y="499"/>
      <point x="741" y="471"/>
      <point x="663" y="451"/>
      <point x="566" y="439"/>
      <point x="512" y="439" type="qcurve" smooth="yes"/>
      <point x="458" y="439"/>
      <point x="361" y="451"/>
      <point x="283" y="471"/>
      <point x="227" y="499"/>
      <point x="214" y="516" type="qcurve"/>
      <point x="213" y="514"/>
      <point x="209" y="509"/>
      <point x="208" y="506" type="qcurve"/>
      <point x="208" y="506" type="line"/>
      <point x="206" y="502"/>
      <point x="203" y="494"/>
      <point x="203" y="490" type="qcurve" smooth="yes"/>
      <point x="203" y="462"/>
      <point x="203" y="411"/>
      <point x="203" y="387" type="qcurve" smooth="yes"/>
      <point x="203" y="366"/>
      <point x="252" y="329"/>
      <point x="336" y="301"/>
      <point x="448" y="285"/>
      <point x="512" y="285" type="qcurve"/>
    </contour>
    <contour>
      <point x="512" y="490" type="line"/>
      <point x="576" y="490"/>
      <point x="688" y="506"/>
      <point x="772" y="534"/>
      <point x="821" y="572"/>
      <point x="821" y="593" type="qcurve" smooth="yes"/>
      <point x="821" y="607"/>
      <point x="821" y="633"/>
      <point x="821" y="645" type="qcurve" smooth="yes"/>
      <point x="821" y="658"/>
      <point x="821" y="684"/>
      <point x="821" y="696" type="qcurve" smooth="yes"/>
      <point x="821" y="717"/>
      <point x="772" y="755"/>
      <point x="688" y="783"/>
      <point x="576" y="799"/>
      <point x="512" y="799" type="qcurve" smooth="yes"/>
      <point x="448" y="799"/>
      <point x="336" y="783"/>
      <point x="252" y="755"/>
      <point x="203" y="717"/>
      <point x="203" y="696" type="qcurve" smooth="yes"/>
      <point x="203" y="682"/>
      <point x="203" y="657"/>
      <point x="203" y="645" type="qcurve" smooth="yes"/>
      <point x="203" y="631"/>
      <point x="203" y="605"/>
      <point x="203" y="593" type="qcurve" smooth="yes"/>
      <point x="203" y="572"/>
      <point x="252" y="534"/>
      <point x="336" y="506"/>
      <point x="448" y="490"/>
      <point x="512" y="490" type="qcurve"/>
    </contour>
    <contour>
      <point x="512" y="747" type="line"/>
      <point x="597" y="747"/>
      <point x="718" y="717"/>
      <point x="718" y="696" type="qcurve" smooth="yes"/>
      <point x="718" y="675"/>
      <point x="597" y="645"/>
      <point x="512" y="645" type="qcurve" smooth="yes"/>
      <point x="427" y="645"/>
      <point x="306" y="675"/>
      <point x="306" y="696" type="qcurve" smooth="yes"/>
      <point x="306" y="717"/>
      <point x="427" y="747"/>
      <point x="512" y="747" type="qcurve"/>
    </contour>
  </outline>
</glyph>
<glyph name="uniE607" format="2">
  <advance width="1024"/>
  <unicode hex="E707"/>
  <note>
uniE607
</note>
  <outline>
    <contour>
      <point x="299" y="518" type="line"/>
      <point x="512" y="386" type="line"/>
      <point x="364" y="263" type="line"/>
      <point x="153" y="401" type="line"/>
    </contour>
    <contour>
      <point x="512" y="649" type="line"/>
      <point x="299" y="518" type="line"/>
      <point x="153" y="635" type="line"/>
      <point x="364" y="772" type="line"/>
    </contour>
    <contour>
      <point x="725" y="518" type="line"/>
      <point x="512" y="649" type="line"/>
      <point x="660" y="772" type="line"/>
      <point x="871" y="635" type="line"/>
    </contour>
    <contour>
      <point x="725" y="518" type="line"/>
      <point x="871" y="401" type="line"/>
      <point x="660" y="263" type="line"/>
      <point x="512" y="386" type="line"/>
    </contour>
    <contour>
      <point x="661" y="237" type="line"/>
      <point x="724" y="279" type="line"/>
      <point x="724" y="232" type="line"/>
      <point x="512" y="105" type="line"/>
      <point x="301" y="232" type="line"/>
      <point x="301" y="279" type="line"/>
      <point x="364" y="237" type="line"/>
      <point x="512" y="360" type="line"/>
    </contour>
  </outline>
</glyph>
<glyph name="uniE608" format="2">
  <advance width="1024"/>
  <unicode hex="E708"/>
  <note>
uniE608
</note>
  <outline>
    <contour>
      <point x="637" y="389" type="line"/>
      <point x="626" y="389"/>
      <point x="608" y="379"/>
      <point x="600" y="369" type="qcurve" smooth="yes"/>
      <point x="593" y="358"/>
      <point x="585" y="333"/>
      <point x="585" y="319" type="qcurve" smooth="yes"/>
      <point x="585" y="304"/>
      <point x="593" y="279"/>
      <point x="600" y="269" type="qcurve" smooth="yes"/>
      <point x="608" y="258"/>
      <point x="626" y="248"/>
      <point x="637" y="248" type="qcurve" smooth="yes"/>
      <point x="647" y="248"/>
      <point x="665" y="258"/>
      <point x="672" y="269" type="qcurve" smooth="yes"/>
      <point x="680" y="279"/>
      <point x="687" y="304"/>
      <point x="687" y="319" type="qcurve" smooth="yes"/>
      <point x="687" y="333"/>
      <point x="680" y="358"/>
      <point x="672" y="369" type="qcurve" smooth="yes"/>
      <point x="665" y="379"/>
      <point x="647" y="389"/>
      <point x="637" y="389" type="qcurve"/>
    </contour>
    <contour>
      <point x="814" y="572" type="line"/>
      <point x="817" y="573"/>
      <point x="817" y="605"/>
      <point x="814" y="634" type="qcurve" smooth="yes"/>
      <point x="812" y="664"/>
      <point x="799" y="719"/>
      <point x="788" y="744" type="qcurve"/>
      <point x="768" y="739" type="line" smooth="yes"/>
      <point x="758" y="737"/>
      <point x="726" y="726"/>
      <point x="703" y="716" type="qcurve" smooth="yes"/>
      <point x="681" y="705"/>
      <point x="635" y="679"/>
      <point x="610" y="662" type="qcurve"/>
      <point x="594" y="667"/>
      <point x="545" y="672"/>
      <point x="512" y="672" type="qcurve" smooth="yes"/>
      <point x="481" y="672"/>
      <point x="431" y="667"/>
      <point x="413" y="662" type="qcurve"/>
      <point x="360" y="699"/>
      <point x="271" y="740"/>
      <point x="235" y="744" type="qcurve"/>
      <point x="225" y="719"/>
      <point x="212" y="664"/>
      <point x="210" y="634" type="qcurve" smooth="yes"/>
      <point x="207" y="605"/>
      <point x="207" y="573"/>
      <point x="210" y="572" type="qcurve"/>
      <point x="181" y="541"/>
      <point x="153" y="465"/>
      <point x="153" y="420" type="qcurve" smooth="yes"/>
      <point x="153" y="391"/>
      <point x="159" y="339"/>
      <point x="166" y="316" type="qcurve" smooth="yes"/>
      <point x="172" y="293"/>
      <point x="189" y="256"/>
      <point x="199" y="241" type="qcurve" smooth="yes"/>
      <point x="210" y="227"/>
      <point x="234" y="201"/>
      <point x="249" y="191" type="qcurve" smooth="yes"/>
      <point x="264" y="179"/>
      <point x="292" y="163"/>
      <point x="304" y="158" type="qcurve" smooth="yes"/>
      <point x="317" y="153"/>
      <point x="345" y="145"/>
      <point x="361" y="143" type="qcurve" smooth="yes"/>
      <point x="377" y="140"/>
      <point x="401" y="137"/>
      <point x="410" y="136" type="qcurve" smooth="yes"/>
      <point x="418" y="136"/>
      <point x="435" y="136"/>
      <point x="445" y="136" type="qcurve" smooth="yes"/>
      <point x="447" y="136"/>
      <point x="461" y="135"/>
      <point x="473" y="135" type="qcurve" smooth="yes"/>
      <point x="485" y="134"/>
      <point x="504" y="134"/>
      <point x="512" y="134" type="qcurve" smooth="yes"/>
      <point x="520" y="134"/>
      <point x="539" y="134"/>
      <point x="551" y="135" type="qcurve" smooth="yes"/>
      <point x="563" y="135"/>
      <point x="577" y="136"/>
      <point x="579" y="136" type="qcurve" smooth="yes"/>
      <point x="589" y="136"/>
      <point x="606" y="136"/>
      <point x="614" y="136" type="qcurve" smooth="yes"/>
      <point x="623" y="137"/>
      <point x="647" y="140"/>
      <point x="663" y="143" type="qcurve" smooth="yes"/>
      <point x="679" y="146"/>
      <point x="707" y="153"/>
      <point x="720" y="158" type="qcurve" smooth="yes"/>
      <point x="732" y="164"/>
      <point x="760" y="179"/>
      <point x="775" y="191" type="qcurve" smooth="yes"/>
      <point x="790" y="201"/>
      <point x="814" y="227"/>
      <point x="825" y="241" type="qcurve" smooth="yes"/>
      <point x="835" y="256"/>
      <point x="852" y="293"/>
      <point x="858" y="316" type="qcurve" smooth="yes"/>
      <point x="865" y="339"/>
      <point x="871" y="391"/>
      <point x="871" y="420" type="qcurve" smooth="yes"/>
      <point x="871" y="465"/>
      <point x="842" y="541"/>
      <point x="814" y="572" type="qcurve"/>
    </contour>
    <contour>
      <point x="510" y="170" type="line" smooth="yes"/>
      <point x="445" y="170"/>
      <point x="348" y="186"/>
      <point x="315" y="201" type="qcurve" smooth="yes"/>
      <point x="282" y="217"/>
      <point x="249" y="281"/>
      <point x="249" y="330" type="qcurve" smooth="yes"/>
      <point x="249" y="359"/>
      <point x="270" y="405"/>
      <point x="290" y="423" type="qcurve" smooth="yes"/>
      <point x="299" y="431"/>
      <point x="321" y="442"/>
      <point x="334" y="445" type="qcurve" smooth="yes"/>
      <point x="347" y="448"/>
      <point x="372" y="451"/>
      <point x="383" y="451" type="qcurve" smooth="yes"/>
      <point x="394" y="450"/>
      <point x="426" y="448"/>
      <point x="446" y="447" type="qcurve" smooth="yes"/>
      <point x="466" y="445"/>
      <point x="499" y="444"/>
      <point x="514" y="444" type="qcurve" smooth="yes"/>
      <point x="525" y="444"/>
      <point x="565" y="446"/>
      <point x="595" y="448" type="qcurve" smooth="yes"/>
      <point x="625" y="451"/>
      <point x="669" y="451"/>
      <point x="683" y="448" type="qcurve" smooth="yes"/>
      <point x="698" y="446"/>
      <point x="723" y="434"/>
      <point x="734" y="423" type="qcurve" smooth="yes"/>
      <point x="755" y="405"/>
      <point x="776" y="358"/>
      <point x="776" y="330" type="qcurve" smooth="yes"/>
      <point x="776" y="281"/>
      <point x="743" y="217"/>
      <point x="710" y="201" type="qcurve" smooth="yes"/>
      <point x="676" y="186"/>
      <point x="579" y="170"/>
      <point x="514" y="170" type="qcurve" smooth="yes"/>
    </contour>
    <contour>
      <point x="389" y="389" type="line"/>
      <point x="378" y="389"/>
      <point x="359" y="379"/>
      <point x="352" y="369" type="qcurve" smooth="yes"/>
      <point x="344" y="358"/>
      <point x="337" y="333"/>
      <point x="337" y="319" type="qcurve" smooth="yes"/>
      <point x="337" y="304"/>
      <point x="344" y="279"/>
      <point x="352" y="269" type="qcurve" smooth="yes"/>
      <point x="359" y="258"/>
      <point x="378" y="248"/>
      <point x="389" y="248" type="qcurve" smooth="yes"/>
      <point x="399" y="248"/>
      <point x="416" y="258"/>
      <point x="424" y="269" type="qcurve" smooth="yes"/>
      <point x="431" y="279"/>
      <point x="439" y="304"/>
      <point x="439" y="319" type="qcurve" smooth="yes"/>
      <point x="439" y="333"/>
      <point x="431" y="358"/>
      <point x="424" y="369" type="qcurve" smooth="yes"/>
      <point x="416" y="379"/>
      <point x="399" y="389"/>
      <point x="389" y="389" type="qcurve"/>
    </contour>
  </outline>
</glyph>
<glyph name="uniE609" format="2">
  <advance width="1024"/>
  <unicode hex="E709"/>
  <note>
uniE609
</note>
  <outline>
    <contour>
      <point x="512" y="789" type="line"/>
      <point x="586" y="789"/>
      <point x="717" y="733"/>
      <point x="815" y="635"/>
      <point x="871" y="504"/>
      <point x="871" y="430" type="qcurve" smooth="yes"/>
      <point x="871" y="371"/>
      <point x="834" y="263"/>
      <point x="769" y="174"/>
      <point x="679" y="107"/>
      <point x="626" y="89" type="qcurve"/>
      <point x="612" y="87"/>
      <point x="601" y="99"/>
      <point x="601" y="107" type="qcurve" smooth="yes"/>
      <point x="601" y="115"/>
      <point x="601" y="169"/>
      <point x="601" y="205" type="qcurve" smooth="yes"/>
      <point x="601" y="230"/>
      <point x="587" y="263"/>
      <point x="577" y="272" type="qcurve"/>
      <point x="637" y="278"/>
      <point x="741" y="345"/>
      <point x="741" y="449" type="qcurve" smooth="yes"/>
      <point x="741" y="478"/>
      <point x="721" y="526"/>
      <point x="704" y="545" type="qcurve"/>
      <point x="707" y="552"/>
      <point x="715" y="603"/>
      <point x="701" y="640" type="qcurve"/>
      <point x="701" y="640"/>
      <point x="653" y="638"/>
      <point x="602" y="603" type="qcurve"/>
      <point x="580" y="609"/>
      <point x="535" y="615"/>
      <point x="512" y="615" type="qcurve" smooth="yes"/>
      <point x="489" y="615"/>
      <point x="444" y="609"/>
      <point x="422" y="603" type="qcurve"/>
      <point x="371" y="638"/>
      <point x="323" y="640"/>
      <point x="323" y="640" type="qcurve"/>
      <point x="309" y="603"/>
      <point x="317" y="552"/>
      <point x="320" y="545" type="qcurve"/>
      <point x="303" y="526"/>
      <point x="283" y="478"/>
      <point x="283" y="449" type="qcurve" smooth="yes"/>
      <point x="283" y="346"/>
      <point x="387" y="278"/>
      <point x="446" y="271" type="qcurve"/>
      <point x="439" y="265"/>
      <point x="426" y="241"/>
      <point x="424" y="223" type="qcurve"/>
      <point x="408" y="216"/>
      <point x="343" y="212"/>
      <point x="319" y="253" type="qcurve"/>
      <point x="319" y="253"/>
      <point x="291" y="288"/>
      <point x="264" y="290" type="qcurve"/>
      <point x="264" y="290"/>
      <point x="237" y="285"/>
      <point x="262" y="268" type="qcurve"/>
      <point x="262" y="268"/>
      <point x="289" y="247"/>
      <point x="302" y="216" type="qcurve"/>
      <point x="302" y="216"/>
      <point x="348" y="157"/>
      <point x="423" y="173" type="qcurve"/>
      <point x="423" y="151"/>
      <point x="423" y="113"/>
      <point x="423" y="107" type="qcurve" smooth="yes"/>
      <point x="423" y="100"/>
      <point x="412" y="87"/>
      <point x="399" y="89" type="qcurve"/>
      <point x="345" y="107"/>
      <point x="255" y="173"/>
      <point x="190" y="263"/>
      <point x="153" y="371"/>
      <point x="153" y="430" type="qcurve" smooth="yes"/>
      <point x="153" y="504"/>
      <point x="209" y="635"/>
      <point x="307" y="733"/>
      <point x="438" y="789"/>
      <point x="512" y="789" type="qcurve"/>
    </contour>
  </outline>
</glyph>
<glyph name="uniE60A" format="2">
  <advance width="1024"/>
  <unicode hex="E70A"/>
  <note>
uniE60A
</note>
  <outline>
    <contour>
      <point x="512" y="82" type="line"/>
      <point x="586" y="82"/>
      <point x="716" y="138"/>
      <point x="813" y="235"/>
      <point x="869" y="365"/>
      <point x="869" y="439" type="qcurve" smooth="yes"/>
      <point x="869" y="513"/>
      <point x="813" y="643"/>
      <point x="716" y="740"/>
      <point x="586" y="796"/>
      <point x="512" y="796" type="qcurve" smooth="yes"/>
      <point x="438" y="796"/>
      <point x="308" y="740"/>
      <point x="211" y="643"/>
      <point x="155" y="513"/>
      <point x="155" y="439" type="qcurve" smooth="yes"/>
      <point x="155" y="365"/>
      <point x="211" y="235"/>
      <point x="308" y="138"/>
      <point x="438" y="82"/>
      <point x="512" y="82" type="qcurve"/>
    </contour>
    <contour>
      <point x="512" y="717" type="line"/>
      <point x="569" y="717"/>
      <point x="671" y="673"/>
      <point x="746" y="597"/>
      <point x="790" y="496"/>
      <point x="790" y="439" type="qcurve" smooth="yes"/>
      <point x="790" y="381"/>
      <point x="746" y="280"/>
      <point x="671" y="205"/>
      <point x="569" y="161"/>
      <point x="512" y="161" type="qcurve" smooth="yes"/>
      <point x="455" y="161"/>
      <point x="353" y="205"/>
      <point x="278" y="280"/>
      <point x="234" y="381"/>
      <point x="234" y="439" type="qcurve" smooth="yes"/>
      <point x="234" y="496"/>
      <point x="278" y="597"/>
      <point x="353" y="673"/>
      <point x="455" y="717"/>
      <point x="512" y="717" type="qcurve"/>
    </contour>
    <contour>
      <point x="574" y="414" type="line"/>
      <point x="569" y="414"/>
      <point x="559" y="409"/>
      <point x="556" y="404" type="qcurve" smooth="yes"/>
      <point x="552" y="399"/>
      <point x="548" y="387"/>
      <point x="548" y="379" type="qcurve" smooth="yes"/>
      <point x="548" y="372"/>
      <point x="552" y="359"/>
      <point x="556" y="354" type="qcurve" smooth="yes"/>
      <point x="559" y="349"/>
      <point x="569" y="344"/>
      <point x="574" y="344" type="qcurve" smooth="yes"/>
      <point x="579" y="344"/>
      <point x="588" y="349"/>
      <point x="592" y="354" type="qcurve" smooth="yes"/>
      <point x="595" y="359"/>
      <point x="599" y="372"/>
      <point x="599" y="379" type="qcurve" smooth="yes"/>
      <point x="599" y="386"/>
      <point x="595" y="399"/>
      <point x="592" y="404" type="qcurve" smooth="yes"/>
      <point x="588" y="409"/>
      <point x="579" y="414"/>
      <point x="574" y="414" type="qcurve"/>
    </contour>
    <contour>
      <point x="662" y="505" type="line"/>
      <point x="663" y="506"/>
      <point x="663" y="521"/>
      <point x="662" y="536" type="qcurve" smooth="yes"/>
      <point x="661" y="551"/>
      <point x="654" y="578"/>
      <point x="649" y="590" type="qcurve"/>
      <point x="639" y="588" type="line" smooth="yes"/>
      <point x="634" y="587"/>
      <point x="618" y="581"/>
      <point x="607" y="576" type="qcurve" smooth="yes"/>
      <point x="596" y="571"/>
      <point x="573" y="558"/>
      <point x="561" y="550" type="qcurve"/>
      <point x="553" y="552"/>
      <point x="528" y="555"/>
      <point x="512" y="555" type="qcurve" smooth="yes"/>
      <point x="496" y="555"/>
      <point x="472" y="552"/>
      <point x="463" y="550" type="qcurve"/>
      <point x="437" y="568"/>
      <point x="393" y="588"/>
      <point x="375" y="590" type="qcurve"/>
      <point x="370" y="578"/>
      <point x="363" y="551"/>
      <point x="362" y="536" type="qcurve" smooth="yes"/>
      <point x="361" y="521"/>
      <point x="361" y="506"/>
      <point x="362" y="505" type="qcurve"/>
      <point x="348" y="489"/>
      <point x="333" y="452"/>
      <point x="333" y="430" type="qcurve" smooth="yes"/>
      <point x="333" y="415"/>
      <point x="337" y="389"/>
      <point x="340" y="378" type="qcurve" smooth="yes"/>
      <point x="343" y="367"/>
      <point x="352" y="348"/>
      <point x="357" y="341" type="qcurve" smooth="yes"/>
      <point x="362" y="334"/>
      <point x="374" y="321"/>
      <point x="382" y="316" type="qcurve" smooth="yes"/>
      <point x="389" y="310"/>
      <point x="403" y="302"/>
      <point x="409" y="300" type="qcurve" smooth="yes"/>
      <point x="415" y="297"/>
      <point x="429" y="293"/>
      <point x="437" y="292" type="qcurve" smooth="yes"/>
      <point x="445" y="290"/>
      <point x="457" y="289"/>
      <point x="461" y="289" type="qcurve" smooth="yes"/>
      <point x="465" y="288"/>
      <point x="474" y="288"/>
      <point x="479" y="288" type="qcurve" smooth="yes"/>
      <point x="480" y="288"/>
      <point x="487" y="288"/>
      <point x="493" y="288" type="qcurve" smooth="yes"/>
      <point x="498" y="288"/>
      <point x="508" y="287"/>
      <point x="512" y="287" type="qcurve" smooth="yes"/>
      <point x="516" y="287"/>
      <point x="526" y="288"/>
      <point x="531" y="288" type="qcurve" smooth="yes"/>
      <point x="537" y="288"/>
      <point x="544" y="288"/>
      <point x="545" y="288" type="qcurve" smooth="yes"/>
      <point x="550" y="288"/>
      <point x="559" y="289"/>
      <point x="563" y="289" type="qcurve" smooth="yes"/>
      <point x="567" y="289"/>
      <point x="579" y="290"/>
      <point x="587" y="292" type="qcurve" smooth="yes"/>
      <point x="595" y="293"/>
      <point x="609" y="297"/>
      <point x="615" y="300" type="qcurve" smooth="yes"/>
      <point x="621" y="302"/>
      <point x="635" y="310"/>
      <point x="642" y="316" type="qcurve" smooth="yes"/>
      <point x="650" y="321"/>
      <point x="662" y="333"/>
      <point x="667" y="341" type="qcurve" smooth="yes"/>
      <point x="672" y="348"/>
      <point x="681" y="367"/>
      <point x="684" y="378" type="qcurve" smooth="yes"/>
      <point x="687" y="389"/>
      <point x="690" y="415"/>
      <point x="690" y="430" type="qcurve" smooth="yes"/>
      <point x="690" y="452"/>
      <point x="676" y="489"/>
      <point x="662" y="505" type="qcurve"/>
    </contour>
    <contour>
      <point x="511" y="305" type="line" smooth="yes"/>
      <point x="479" y="305"/>
      <point x="430" y="313"/>
      <point x="414" y="321" type="qcurve" smooth="yes"/>
      <point x="398" y="329"/>
      <point x="382" y="361"/>
      <point x="382" y="385" type="qcurve" smooth="yes"/>
      <point x="382" y="399"/>
      <point x="392" y="422"/>
      <point x="402" y="431" type="qcurve" smooth="yes"/>
      <point x="406" y="435"/>
      <point x="417" y="440"/>
      <point x="424" y="442" type="qcurve" smooth="yes"/>
      <point x="430" y="444"/>
      <point x="442" y="445"/>
      <point x="448" y="445" type="qcurve" smooth="yes"/>
      <point x="454" y="444"/>
      <point x="469" y="444"/>
      <point x="479" y="443" type="qcurve" smooth="yes"/>
      <point x="489" y="442"/>
      <point x="505" y="441"/>
      <point x="513" y="441" type="qcurve" smooth="yes"/>
      <point x="518" y="441"/>
      <point x="538" y="442"/>
      <point x="553" y="444" type="qcurve" smooth="yes"/>
      <point x="568" y="445"/>
      <point x="590" y="445"/>
      <point x="597" y="444" type="qcurve" smooth="yes"/>
      <point x="604" y="442"/>
      <point x="617" y="436"/>
      <point x="622" y="431" type="qcurve" smooth="yes"/>
      <point x="633" y="422"/>
      <point x="643" y="398"/>
      <point x="643" y="385" type="qcurve" smooth="yes"/>
      <point x="643" y="360"/>
      <point x="627" y="329"/>
      <point x="610" y="321" type="qcurve" smooth="yes"/>
      <point x="594" y="313"/>
      <point x="545" y="305"/>
      <point x="513" y="305" type="qcurve" smooth="yes"/>
    </contour>
    <contour>
      <point x="451" y="414" type="line"/>
      <point x="445" y="414"/>
      <point x="436" y="409"/>
      <point x="432" y="404" type="qcurve" smooth="yes"/>
      <point x="429" y="399"/>
      <point x="425" y="387"/>
      <point x="425" y="379" type="qcurve" smooth="yes"/>
      <point x="425" y="372"/>
      <point x="429" y="359"/>
      <point x="432" y="354" type="qcurve" smooth="yes"/>
      <point x="436" y="349"/>
      <point x="445" y="344"/>
      <point x="451" y="344" type="qcurve" smooth="yes"/>
      <point x="456" y="344"/>
      <point x="464" y="349"/>
      <point x="468" y="354" type="qcurve" smooth="yes"/>
      <point x="472" y="359"/>
      <point x="476" y="372"/>
      <point x="476" y="379" type="qcurve" smooth="yes"/>
      <point x="476" y="386"/>
      <point x="472" y="399"/>
      <point x="468" y="404" type="qcurve" smooth="yes"/>
      <point x="464" y="409"/>
      <point x="456" y="414"/>
      <point x="451" y="414" type="qcurve"/>
    </contour>
  </outline>
</glyph>
<glyph name="uniE60B" format="2">
  <advance width="1024"/>
  <unicode hex="E70B"/>
  <note>
uniE60B
</note>
  <outline>
    <contour>
      <point x="150" y="439" type="line"/>
      <point x="150" y="479"/>
      <point x="166" y="553"/>
      <point x="181" y="587" type="qcurve"/>
      <point x="354" y="114" type="line"/>
      <point x="308" y="136"/>
      <point x="233" y="203"/>
      <point x="180" y="287"/>
      <point x="150" y="386"/>
      <point x="150" y="439" type="qcurve"/>
    </contour>
    <contour>
      <point x="756" y="458" type="line"/>
      <point x="756" y="434"/>
      <point x="742" y="376"/>
      <point x="728" y="341" type="qcurve"/>
      <point x="692" y="220" type="line"/>
      <point x="561" y="609" type="line"/>
      <point x="578" y="610"/>
      <point x="603" y="612"/>
      <point x="603" y="612" type="qcurve"/>
      <point x="617" y="614"/>
      <point x="615" y="643"/>
      <point x="600" y="642" type="qcurve"/>
      <point x="600" y="642"/>
      <point x="532" y="638"/>
      <point x="504" y="638" type="qcurve" smooth="yes"/>
      <point x="477" y="638"/>
      <point x="409" y="642"/>
      <point x="409" y="642" type="qcurve"/>
      <point x="394" y="643"/>
      <point x="392" y="613"/>
      <point x="406" y="612" type="qcurve"/>
      <point x="406" y="612"/>
      <point x="430" y="610"/>
      <point x="444" y="609" type="qcurve"/>
      <point x="501" y="455" type="line"/>
      <point x="422" y="217" type="line"/>
      <point x="290" y="609" type="line"/>
      <point x="306" y="610"/>
      <point x="331" y="612"/>
      <point x="331" y="612" type="qcurve"/>
      <point x="346" y="614"/>
      <point x="344" y="643"/>
      <point x="329" y="642" type="qcurve"/>
      <point x="329" y="642"/>
      <point x="261" y="638"/>
      <point x="233" y="638" type="qcurve" smooth="yes"/>
      <point x="227" y="638"/>
      <point x="216" y="638"/>
      <point x="209" y="638" type="qcurve"/>
      <point x="234" y="675"/>
      <point x="299" y="735"/>
      <point x="376" y="778"/>
      <point x="464" y="801"/>
      <point x="512" y="801" type="qcurve" smooth="yes"/>
      <point x="582" y="801"/>
      <point x="708" y="750"/>
      <point x="756" y="706" type="qcurve"/>
      <point x="755" y="706"/>
      <point x="752" y="706"/>
      <point x="751" y="706" type="qcurve" smooth="yes"/>
      <point x="724" y="706"/>
      <point x="690" y="667"/>
      <point x="690" y="642" type="qcurve" smooth="yes"/>
      <point x="690" y="620"/>
      <point x="712" y="580"/>
      <point x="726" y="557" type="qcurve" smooth="yes"/>
      <point x="736" y="539"/>
      <point x="756" y="491"/>
      <point x="756" y="458" type="qcurve"/>
    </contour>
    <contour>
      <point x="518" y="408" type="line"/>
      <point x="629" y="103" type="line"/>
      <point x="630" y="102"/>
      <point x="631" y="99"/>
      <point x="632" y="98" type="qcurve"/>
      <point x="603" y="88"/>
      <point x="543" y="78"/>
      <point x="512" y="78" type="qcurve" smooth="yes"/>
      <point x="485" y="78"/>
      <point x="434" y="85"/>
      <point x="409" y="92" type="qcurve"/>
      <point x="518" y="408" type="line"/>
    </contour>
    <contour>
      <point x="829" y="613" type="line"/>
      <point x="850" y="574"/>
      <point x="873" y="487"/>
      <point x="873" y="439" type="qcurve" smooth="yes"/>
      <point x="873" y="389"/>
      <point x="847" y="297"/>
      <point x="800" y="216"/>
      <point x="734" y="150"/>
      <point x="693" y="127" type="qcurve"/>
      <point x="804" y="446" type="line" smooth="yes"/>
      <point x="819" y="485"/>
      <point x="831" y="548"/>
      <point x="831" y="576" type="qcurve" smooth="yes"/>
      <point x="831" y="586"/>
      <point x="830" y="604"/>
      <point x="829" y="613" type="qcurve"/>
    </contour>
  </outline>
</glyph>
<glyph name="uniE60C" format="2">
  <advance width="1024"/>
  <unicode hex="E70C"/>
  <note>
uniE60C
</note>
  <outline>
    <contour>
      <point x="554" y="659" type="line"/>
      <point x="696" y="801" type="line"/>
      <point x="717" y="792" type="line" smooth="yes"/>
      <point x="726" y="789"/>
      <point x="778" y="768"/>
      <point x="806" y="757" type="qcurve" smooth="yes"/>
      <point x="873" y="730" type="line"/>
      <point x="873" y="148" type="line"/>
      <point x="785" y="113" type="line"/>
      <point x="697" y="77" type="line"/>
      <point x="554" y="221" type="line" smooth="yes"/>
      <point x="453" y="321"/>
      <point x="407" y="362"/>
      <point x="399" y="357" type="qcurve" smooth="yes"/>
      <point x="395" y="355"/>
      <point x="340" y="313"/>
      <point x="306" y="286" type="qcurve" smooth="yes"/>
      <point x="223" y="222" type="line"/>
      <point x="151" y="258" type="line"/>
      <point x="151" y="620" type="line"/>
      <point x="223" y="657" type="line"/>
      <point x="312" y="587" type="line" smooth="yes"/>
      <point x="349" y="558"/>
      <point x="405" y="517"/>
      <point x="407" y="517" type="qcurve" smooth="yes"/>
      <point x="409" y="517"/>
      <point x="496" y="600"/>
      <point x="554" y="659" type="qcurve"/>
    </contour>
    <contour>
      <point x="695" y="439" type="line"/>
      <point x="695" y="499"/>
      <point x="693" y="584"/>
      <point x="691" y="584" type="qcurve" smooth="yes"/>
      <point x="689" y="584"/>
      <point x="632" y="541"/>
      <point x="565" y="488"/>
      <point x="510" y="443"/>
      <point x="510" y="441" type="qcurve"/>
      <point x="509" y="439"/>
      <point x="564" y="393"/>
      <point x="631" y="339"/>
      <point x="689" y="294"/>
      <point x="691" y="294" type="qcurve" smooth="yes"/>
      <point x="693" y="294"/>
      <point x="695" y="379"/>
      <point x="695" y="439" type="qcurve"/>
    </contour>
    <contour>
      <point x="283" y="491" type="line"/>
      <point x="261" y="512"/>
      <point x="229" y="543"/>
      <point x="227" y="543" type="qcurve" smooth="yes"/>
      <point x="225" y="543"/>
      <point x="223" y="482"/>
      <point x="223" y="439" type="qcurve" smooth="yes"/>
      <point x="223" y="396"/>
      <point x="225" y="336"/>
      <point x="227" y="336" type="qcurve" smooth="yes"/>
      <point x="229" y="336"/>
      <point x="261" y="366"/>
      <point x="283" y="387" type="qcurve" smooth="yes"/>
      <point x="335" y="439" type="line"/>
      <point x="283" y="491" type="line"/>
    </contour>
  </outline>
</glyph>
<glyph name="uniE60D" format="2">
  <advance width="1024"/>
  <unicode hex="E70D"/>
  <note>
uniE60D
</note>
  <outline>
    <contour>
      <point x="429" y="266" type="line"/>
      <point x="432" y="269"/>
      <point x="446" y="302"/>
      <point x="454" y="322" type="qcurve" smooth="yes"/>
      <point x="461" y="342"/>
      <point x="480" y="391"/>
      <point x="486" y="406" type="qcurve" smooth="yes"/>
      <point x="491" y="421"/>
      <point x="504" y="454"/>
      <point x="508" y="463" type="qcurve" smooth="yes"/>
      <point x="512" y="471"/>
      <point x="522" y="498"/>
      <point x="526" y="510" type="qcurve" smooth="yes"/>
      <point x="530" y="521"/>
      <point x="541" y="551"/>
      <point x="545" y="561" type="qcurve" smooth="yes"/>
      <point x="558" y="596"/>
      <point x="566" y="622"/>
      <point x="566" y="636" type="qcurve" smooth="yes"/>
      <point x="566" y="646"/>
      <point x="568" y="654"/>
      <point x="571" y="654" type="qcurve"/>
      <point x="592" y="660"/>
      <point x="672" y="635"/>
      <point x="693" y="616" type="qcurve" smooth="yes"/>
      <point x="698" y="611"/>
      <point x="705" y="602"/>
      <point x="705" y="601" type="qcurve" smooth="yes"/>
      <point x="705" y="600"/>
      <point x="698" y="591"/>
      <point x="693" y="585" type="qcurve" smooth="yes"/>
      <point x="685" y="577"/>
      <point x="655" y="505"/>
      <point x="596" y="349" type="qcurve" smooth="yes"/>
      <point x="561" y="257"/>
      <point x="508" y="119"/>
      <point x="505" y="114" type="qcurve" smooth="yes"/>
      <point x="496" y="97"/>
      <point x="457" y="81"/>
      <point x="438" y="86" type="qcurve" smooth="yes"/>
      <point x="415" y="93"/>
      <point x="392" y="127"/>
      <point x="394" y="151" type="qcurve"/>
    </contour>
    <contour>
      <point x="640" y="636" type="line"/>
      <point x="622" y="644"/>
      <point x="594" y="648"/>
      <point x="590" y="644" type="qcurve" smooth="yes"/>
      <point x="588" y="641"/>
      <point x="589" y="636"/>
      <point x="593" y="632" type="qcurve" smooth="yes"/>
      <point x="604" y="622"/>
      <point x="665" y="600"/>
      <point x="674" y="603" type="qcurve" smooth="yes"/>
      <point x="683" y="607"/>
      <point x="663" y="627"/>
      <point x="640" y="636" type="qcurve"/>
    </contour>
    <contour>
      <point x="590" y="598" type="line"/>
      <point x="587" y="601"/>
      <point x="582" y="605"/>
      <point x="581" y="605" type="qcurve" smooth="yes"/>
      <point x="580" y="605"/>
      <point x="572" y="589"/>
      <point x="568" y="577" type="qcurve" smooth="yes"/>
      <point x="563" y="566"/>
      <point x="547" y="523"/>
      <point x="540" y="505" type="qcurve" smooth="yes"/>
      <point x="518" y="449"/>
      <point x="503" y="405"/>
      <point x="505" y="405" type="qcurve" smooth="yes"/>
      <point x="506" y="405"/>
      <point x="515" y="408"/>
      <point x="521" y="410" type="qcurve"/>
      <point x="526" y="413"/>
      <point x="543" y="418"/>
      <point x="549" y="420" type="qcurve" smooth="yes"/>
      <point x="563" y="423"/>
      <point x="599" y="443"/>
      <point x="611" y="454" type="qcurve" smooth="yes"/>
      <point x="619" y="462"/>
      <point x="630" y="483"/>
      <point x="642" y="513" type="qcurve" smooth="yes"/>
      <point x="649" y="533"/>
      <point x="663" y="565"/>
      <point x="664" y="568" type="qcurve"/>
      <point x="666" y="570"/>
      <point x="669" y="575"/>
      <point x="669" y="575" type="qcurve"/>
      <point x="669" y="576"/>
      <point x="656" y="577"/>
      <point x="647" y="577" type="qcurve" smooth="yes"/>
      <point x="629" y="578"/>
      <point x="598" y="589"/>
      <point x="590" y="598" type="qcurve"/>
    </contour>
    <contour>
      <point x="616" y="445" type="line"/>
      <point x="619" y="449"/>
      <point x="609" y="444"/>
      <point x="602" y="437" type="qcurve" smooth="yes"/>
      <point x="598" y="433"/>
      <point x="586" y="423"/>
      <point x="582" y="420" type="qcurve" smooth="yes"/>
      <point x="576" y="416"/>
      <point x="576" y="415"/>
      <point x="582" y="418" type="qcurve" smooth="yes"/>
      <point x="585" y="420"/>
      <point x="591" y="423"/>
      <point x="592" y="423" type="qcurve" smooth="yes"/>
      <point x="593" y="423"/>
      <point x="593" y="413"/>
      <point x="590" y="409" type="qcurve"/>
      <point x="589" y="406"/>
      <point x="585" y="395"/>
      <point x="582" y="388" type="qcurve" smooth="yes"/>
      <point x="579" y="377"/>
      <point x="571" y="358"/>
      <point x="564" y="343" type="qcurve" smooth="yes"/>
      <point x="562" y="339"/>
      <point x="560" y="329"/>
      <point x="560" y="327" type="qcurve" smooth="yes"/>
      <point x="560" y="325"/>
      <point x="558" y="320"/>
      <point x="557" y="318" type="qcurve" smooth="yes"/>
      <point x="556" y="317"/>
      <point x="551" y="306"/>
      <point x="548" y="299" type="qcurve" smooth="yes"/>
      <point x="546" y="292"/>
      <point x="535" y="263"/>
      <point x="529" y="249" type="qcurve" smooth="yes"/>
      <point x="524" y="235"/>
      <point x="514" y="210"/>
      <point x="512" y="206" type="qcurve" smooth="yes"/>
      <point x="511" y="202"/>
      <point x="508" y="195"/>
      <point x="508" y="194" type="qcurve" smooth="yes"/>
      <point x="508" y="192"/>
      <point x="493" y="153"/>
      <point x="490" y="147" type="qcurve" smooth="yes"/>
      <point x="489" y="145"/>
      <point x="486" y="137"/>
      <point x="486" y="133" type="qcurve" smooth="yes"/>
      <point x="485" y="129"/>
      <point x="482" y="122"/>
      <point x="481" y="121" type="qcurve" smooth="yes"/>
      <point x="479" y="120"/>
      <point x="478" y="116"/>
      <point x="478" y="114" type="qcurve" smooth="yes"/>
      <point x="478" y="111"/>
      <point x="473" y="107"/>
      <point x="470" y="105" type="qcurve"/>
      <point x="466" y="104"/>
      <point x="464" y="102"/>
      <point x="467" y="102" type="qcurve" smooth="yes"/>
      <point x="469" y="102"/>
      <point x="478" y="108"/>
      <point x="482" y="112" type="qcurve" smooth="yes"/>
      <point x="489" y="118"/>
      <point x="513" y="175"/>
      <point x="554" y="282" type="qcurve" smooth="yes"/>
      <point x="579" y="348"/>
      <point x="616" y="444"/>
      <point x="616" y="445" type="qcurve"/>
    </contour>
    <contour>
      <point x="532" y="402" type="line"/>
      <point x="532" y="403"/>
      <point x="532" y="405"/>
      <point x="532" y="405" type="qcurve"/>
      <point x="529" y="405"/>
      <point x="500" y="384"/>
      <point x="495" y="379" type="qcurve" smooth="yes"/>
      <point x="490" y="373"/>
      <point x="460" y="302"/>
      <point x="460" y="295" type="qcurve" smooth="yes"/>
      <point x="460" y="294"/>
      <point x="466" y="297"/>
      <point x="470" y="301" type="qcurve" smooth="yes"/>
      <point x="474" y="305"/>
      <point x="482" y="311"/>
      <point x="484" y="311" type="qcurve" smooth="yes"/>
      <point x="486" y="311"/>
      <point x="475" y="298"/>
      <point x="466" y="289" type="qcurve" smooth="yes"/>
      <point x="457" y="280"/>
      <point x="444" y="265"/>
      <point x="444" y="263" type="qcurve" smooth="yes"/>
      <point x="444" y="262"/>
      <point x="433" y="228"/>
      <point x="425" y="206" type="qcurve" smooth="yes"/>
      <point x="417" y="184"/>
      <point x="405" y="149"/>
      <point x="405" y="147" type="qcurve" smooth="yes"/>
      <point x="405" y="138"/>
      <point x="420" y="112"/>
      <point x="427" y="107" type="qcurve" smooth="yes"/>
      <point x="437" y="100" type="line"/>
      <point x="430" y="109" type="line" smooth="yes"/>
      <point x="425" y="114"/>
      <point x="423" y="122"/>
      <point x="424" y="131" type="qcurve" smooth="yes"/>
      <point x="425" y="137"/>
      <point x="430" y="155"/>
      <point x="432" y="161" type="qcurve" smooth="yes"/>
      <point x="436" y="172"/>
      <point x="450" y="208"/>
      <point x="458" y="230" type="qcurve" smooth="yes"/>
      <point x="461" y="237"/>
      <point x="467" y="246"/>
      <point x="471" y="248" type="qcurve" smooth="yes"/>
      <point x="476" y="250"/>
      <point x="477" y="255"/>
      <point x="476" y="263" type="qcurve" smooth="yes"/>
      <point x="475" y="271"/>
      <point x="479" y="277"/>
      <point x="482" y="271" type="qcurve"/>
      <point x="485" y="268"/>
      <point x="500" y="270"/>
      <point x="503" y="275" type="qcurve" smooth="yes"/>
      <point x="507" y="280"/>
      <point x="504" y="293"/>
      <point x="498" y="296" type="qcurve" smooth="yes"/>
      <point x="494" y="298"/>
      <point x="493" y="305"/>
      <point x="494" y="315" type="qcurve" smooth="yes"/>
      <point x="495" y="327"/>
      <point x="507" y="356"/>
      <point x="511" y="356" type="qcurve" smooth="yes"/>
      <point x="512" y="356"/>
      <point x="514" y="362"/>
      <point x="513" y="366" type="qcurve"/>
      <point x="513" y="376"/>
      <point x="523" y="399"/>
      <point x="528" y="399" type="qcurve" smooth="yes"/>
      <point x="530" y="399"/>
      <point x="532" y="401"/>
      <point x="532" y="402" type="qcurve"/>
    </contour>
  </outline>
</glyph>
<glyph name="uniE60E" format="2">
  <advance width="1024"/>
  <unicode hex="E70E"/>
  <note>
uniE60E
</note>
  <outline>
    <contour>
      <point x="218" y="311" type="line"/>
      <point x="218" y="545" type="line" smooth="yes"/>
      <point x="218" y="575"/>
      <point x="182" y="617"/>
      <point x="157" y="617" type="qcurve" smooth="yes"/>
      <point x="132" y="617"/>
      <point x="96" y="575"/>
      <point x="96" y="545" type="qcurve" smooth="yes"/>
      <point x="96" y="311" type="line" smooth="yes"/>
      <point x="96" y="281"/>
      <point x="132" y="239"/>
      <point x="157" y="239" type="qcurve" smooth="yes"/>
      <point x="182" y="239"/>
      <point x="218" y="281"/>
      <point x="218" y="311" type="qcurve"/>
    </contour>
    <contour>
      <point x="928" y="311" type="line"/>
      <point x="928" y="545" type="line" smooth="yes"/>
      <point x="928" y="575"/>
      <point x="892" y="617"/>
      <point x="867" y="617" type="qcurve" smooth="yes"/>
      <point x="842" y="617"/>
      <point x="806" y="575"/>
      <point x="806" y="545" type="qcurve" smooth="yes"/>
      <point x="806" y="311" type="line" smooth="yes"/>
      <point x="806" y="281"/>
      <point x="842" y="239"/>
      <point x="867" y="239" type="qcurve" smooth="yes"/>
      <point x="892" y="239"/>
      <point x="928" y="281"/>
      <point x="928" y="311" type="qcurve"/>
    </contour>
    <contour>
      <point x="645" y="843" type="line"/>
      <point x="707" y="814"/>
      <point x="783" y="712"/>
      <point x="783" y="650" type="qcurve" smooth="yes"/>
      <point x="783" y="643"/>
      <point x="782" y="631"/>
      <point x="781" y="625" type="qcurve"/>
      <point x="240" y="625" type="line"/>
      <point x="239" y="631"/>
      <point x="238" y="643"/>
      <point x="238" y="650" type="qcurve" smooth="yes"/>
      <point x="238" y="712"/>
      <point x="314" y="814"/>
      <point x="375" y="843" type="qcurve"/>
      <point x="336" y="913" type="line"/>
      <point x="334" y="918"/>
      <point x="335" y="926"/>
      <point x="338" y="928" type="qcurve" smooth="yes"/>
      <point x="341" y="930"/>
      <point x="349" y="926"/>
      <point x="352" y="922" type="qcurve"/>
      <point x="392" y="850" type="line"/>
      <point x="419" y="861"/>
      <point x="479" y="872"/>
      <point x="511" y="872" type="qcurve" smooth="yes"/>
      <point x="542" y="872"/>
      <point x="602" y="861"/>
      <point x="629" y="850" type="qcurve"/>
      <point x="669" y="922" type="line" smooth="yes"/>
      <point x="671" y="926"/>
      <point x="679" y="930"/>
      <point x="682" y="928" type="qcurve" smooth="yes"/>
      <point x="686" y="926"/>
      <point x="687" y="918"/>
      <point x="684" y="913" type="qcurve" smooth="yes"/>
      <point x="645" y="843" type="line"/>
    </contour>
    <contour>
      <point x="387" y="721" type="line"/>
      <point x="397" y="721"/>
      <point x="411" y="735"/>
      <point x="411" y="745" type="qcurve" smooth="yes"/>
      <point x="411" y="754"/>
      <point x="397" y="768"/>
      <point x="387" y="768" type="qcurve" smooth="yes"/>
      <point x="377" y="768"/>
      <point x="363" y="754"/>
      <point x="363" y="745" type="qcurve" smooth="yes"/>
      <point x="363" y="735"/>
      <point x="377" y="721"/>
      <point x="387" y="721" type="qcurve"/>
    </contour>
    <contour>
      <point x="636" y="721" type="line"/>
      <point x="645" y="721"/>
      <point x="659" y="735"/>
      <point x="659" y="745" type="qcurve" smooth="yes"/>
      <point x="659" y="754"/>
      <point x="645" y="768"/>
      <point x="636" y="768" type="qcurve" smooth="yes"/>
      <point x="626" y="768"/>
      <point x="612" y="754"/>
      <point x="612" y="745" type="qcurve" smooth="yes"/>
      <point x="612" y="735"/>
      <point x="626" y="721"/>
      <point x="636" y="721" type="qcurve"/>
    </contour>
    <contour>
      <point x="238" y="601" type="line"/>
      <point x="783" y="601" type="line"/>
      <point x="783" y="202" type="line"/>
      <point x="783" y="202" type="line"/>
      <point x="781" y="177"/>
      <point x="739" y="142"/>
      <point x="711" y="142" type="qcurve" smooth="yes"/>
      <point x="310" y="142" type="line" smooth="yes"/>
      <point x="282" y="142"/>
      <point x="241" y="177"/>
      <point x="239" y="202" type="qcurve"/>
      <point x="238" y="202" type="line"/>
      <point x="238" y="601" type="line"/>
    </contour>
    <contour>
      <point x="350" y="144" type="line"/>
      <point x="350" y="20" type="line" smooth="yes"/>
      <point x="350" y="-9"/>
      <point x="386" y="-51"/>
      <point x="411" y="-51" type="qcurve" smooth="yes"/>
      <point x="436" y="-51"/>
      <point x="472" y="-9"/>
      <point x="472" y="20" type="qcurve" smooth="yes"/>
      <point x="472" y="144" type="line"/>
    </contour>
    <contour>
      <point x="553" y="144" type="line"/>
      <point x="553" y="20" type="line" smooth="yes"/>
      <point x="553" y="-9"/>
      <point x="589" y="-51"/>
      <point x="614" y="-51" type="qcurve" smooth="yes"/>
      <point x="639" y="-51"/>
      <point x="675" y="-9"/>
      <point x="675" y="20" type="qcurve" smooth="yes"/>
      <point x="675" y="144" type="line"/>
    </contour>
  </outline>
</glyph>
<glyph name="uniE60F" format="2">
  <advance width="1024"/>
  <unicode hex="E70F"/>
  <note>
uniE60F
</note>
  <outline>
    <contour>
      <point x="442" y="745" type="line"/>
      <point x="153" y="704" type="line"/>
      <point x="153" y="456" type="line"/>
      <point x="442" y="456" type="line"/>
    </contour>
    <contour>
      <point x="871" y="807" type="line"/>
      <point x="481" y="750" type="line"/>
      <point x="481" y="456" type="line"/>
      <point x="871" y="456" type="line"/>
    </contour>
    <contour>
      <point x="442" y="133" type="line"/>
      <point x="153" y="174" type="line"/>
      <point x="153" y="422" type="line"/>
      <point x="442" y="422" type="line"/>
    </contour>
    <contour>
      <point x="871" y="71" type="line"/>
      <point x="481" y="128" type="line"/>
      <point x="481" y="422" type="line"/>
      <point x="871" y="422" type="line"/>
    </contour>
  </outline>
</glyph>
<glyph name="uniE610" format="2">
  <advance width="1024"/>
  <unicode hex="E710"/>
  <note>
uniE610
</note>
  <outline>
    <contour>
      <point x="195" y="197" type="line"/>
      <point x="195" y="368" type="line"/>
      <point x="246" y="368" type="line"/>
      <point x="246" y="79" type="line"/>
      <point x="668" y="79" type="line"/>
      <point x="671" y="221" type="line"/>
      <point x="674" y="362" type="line"/>
      <point x="703" y="365" type="line"/>
      <point x="731" y="369" type="line"/>
      <point x="731" y="27" type="line"/>
      <point x="195" y="27" type="line"/>
      <point x="195" y="197" type="line"/>
    </contour>
    <contour>
      <point x="287" y="171" type="line"/>
      <point x="287" y="202" type="line"/>
      <point x="618" y="202" type="line"/>
      <point x="618" y="141" type="line"/>
      <point x="287" y="141" type="line"/>
      <point x="287" y="171" type="line"/>
    </contour>
    <contour>
      <point x="292" y="293" type="line"/>
      <point x="296" y="324" type="line"/>
      <point x="624" y="288" type="line"/>
      <point x="617" y="227" type="line"/>
      <point x="289" y="263" type="line"/>
      <point x="292" y="293" type="line"/>
    </contour>
    <contour>
      <point x="317" y="439" type="line"/>
      <point x="325" y="469" type="line"/>
      <point x="644" y="383" type="line"/>
      <point x="628" y="323" type="line"/>
      <point x="309" y="409" type="line"/>
      <point x="317" y="439" type="line"/>
    </contour>
    <contour>
      <point x="385" y="609" type="line"/>
      <point x="401" y="635" type="line"/>
      <point x="681" y="459" type="line"/>
      <point x="648" y="407" type="line"/>
      <point x="368" y="583" type="line"/>
      <point x="385" y="609" type="line"/>
    </contour>
    <contour>
      <point x="543" y="767" type="line"/>
      <point x="568" y="784" type="line"/>
      <point x="756" y="512" type="line"/>
      <point x="705" y="477" type="line"/>
      <point x="517" y="749" type="line"/>
      <point x="543" y="767" type="line"/>
    </contour>
    <contour>
      <point x="749" y="846" type="line"/>
      <point x="780" y="852" type="line"/>
      <point x="840" y="528" type="line"/>
      <point x="779" y="516" type="line"/>
      <point x="719" y="841" type="line"/>
      <point x="749" y="846" type="line"/>
    </contour>
  </outline>
</glyph>
<glyph name="uniE611" format="2">
  <advance width="1024"/>
  <unicode hex="E711"/>
  <note>
uniE611
</note>
  <outline>
    <contour>
      <point x="737" y="413" type="line"/>
      <point x="738" y="320"/>
      <point x="846" y="247"/>
      <point x="847" y="247" type="qcurve"/>
      <point x="846" y="244"/>
      <point x="820" y="173"/>
      <point x="790" y="129" type="qcurve" smooth="yes"/>
      <point x="764" y="92"/>
      <point x="706" y="29"/>
      <point x="664" y="28" type="qcurve" smooth="yes"/>
      <point x="623" y="28"/>
      <point x="576" y="61"/>
      <point x="528" y="61" type="qcurve" smooth="yes"/>
      <point x="481" y="61"/>
      <point x="433" y="29"/>
      <point x="393" y="27" type="qcurve" smooth="yes"/>
      <point x="353" y="26"/>
      <point x="289" y="94"/>
      <point x="263" y="131" type="qcurve" smooth="yes"/>
      <point x="237" y="170"/>
      <point x="194" y="274"/>
      <point x="174" y="386"/>
      <point x="184" y="499"/>
      <point x="211" y="546" type="qcurve" smooth="yes"/>
      <point x="238" y="593"/>
      <point x="329" y="649"/>
      <point x="382" y="650" type="qcurve" smooth="yes"/>
      <point x="421" y="650"/>
      <point x="493" y="614"/>
      <point x="517" y="614" type="qcurve" smooth="yes"/>
      <point x="542" y="614"/>
      <point x="627" y="656"/>
      <point x="675" y="651" type="qcurve"/>
      <point x="695" y="651"/>
      <point x="789" y="623"/>
      <point x="826" y="570" type="qcurve"/>
      <point x="823" y="568"/>
      <point x="736" y="491"/>
      <point x="737" y="413" type="qcurve"/>
    </contour>
    <contour>
      <point x="633" y="719" type="line"/>
      <point x="611" y="693"/>
      <point x="546" y="658"/>
      <point x="511" y="661" type="qcurve"/>
      <point x="506" y="696"/>
      <point x="535" y="765"/>
      <point x="555" y="788" type="qcurve" smooth="yes"/>
      <point x="577" y="814"/>
      <point x="645" y="849"/>
      <point x="676" y="850" type="qcurve"/>
      <point x="680" y="814"/>
      <point x="655" y="745"/>
      <point x="633" y="719" type="qcurve"/>
    </contour>
  </outline>
</glyph>
<glyph name="uniE612" format="2">
  <advance width="1024"/>
  <unicode hex="E712"/>
  <note>
uniE612
</note>
  <outline>
    <contour>
      <point x="497" y="691" type="line"/>
      <point x="497" y="693"/>
      <point x="493" y="698"/>
      <point x="491" y="701" type="qcurve"/>
      <point x="484" y="704" type="line"/>
      <point x="482" y="704"/>
      <point x="481" y="703"/>
      <point x="481" y="701" type="qcurve" smooth="yes"/>
      <point x="481" y="698"/>
      <point x="484" y="694"/>
      <point x="484" y="694" type="qcurve"/>
      <point x="486" y="692"/>
      <point x="488" y="688"/>
      <point x="491" y="688" type="qcurve" smooth="yes"/>
      <point x="494" y="688" type="line"/>
      <point x="494" y="688"/>
      <point x="497" y="688"/>
      <point x="497" y="691" type="qcurve"/>
    </contour>
    <contour>
      <point x="438" y="723" type="line"/>
      <point x="432" y="723" type="line"/>
      <point x="432" y="728"/>
      <point x="429" y="735"/>
      <point x="429" y="740" type="qcurve"/>
      <point x="419" y="740" type="line"/>
      <point x="419" y="746" type="line"/>
      <point x="421" y="746"/>
      <point x="422" y="750"/>
      <point x="422" y="750" type="qcurve"/>
      <point x="429" y="750"/>
      <point x="438" y="736"/>
      <point x="438" y="723" type="qcurve"/>
    </contour>
    <contour>
      <point x="553" y="740" type="line"/>
      <point x="553" y="742"/>
      <point x="549" y="744"/>
      <point x="549" y="746" type="qcurve"/>
      <point x="552" y="746"/>
      <point x="556" y="750"/>
      <point x="556" y="750" type="qcurve"/>
      <point x="558" y="750"/>
      <point x="563" y="746"/>
      <point x="566" y="743" type="qcurve" smooth="yes"/>
      <point x="568" y="741"/>
      <point x="569" y="736"/>
      <point x="569" y="733" type="qcurve" smooth="yes"/>
      <point x="569" y="731"/>
      <point x="570" y="726"/>
      <point x="572" y="723" type="qcurve"/>
      <point x="566" y="723" type="line"/>
      <point x="563" y="731"/>
      <point x="557" y="740"/>
      <point x="553" y="740" type="qcurve"/>
    </contour>
    <contour>
      <point x="455" y="688" type="line"/>
      <point x="458" y="688" type="line"/>
      <point x="463" y="692"/>
      <point x="468" y="698"/>
      <point x="468" y="701" type="qcurve"/>
      <point x="468" y="701"/>
      <point x="467" y="704"/>
      <point x="464" y="704" type="qcurve"/>
      <point x="464" y="704"/>
      <point x="460" y="701"/>
      <point x="455" y="701" type="qcurve"/>
      <point x="452" y="698"/>
      <point x="451" y="693"/>
      <point x="451" y="691" type="qcurve" smooth="yes"/>
      <point x="451" y="688"/>
      <point x="452" y="688"/>
      <point x="455" y="688" type="qcurve"/>
    </contour>
    <contour>
      <point x="419" y="691" type="line"/>
      <point x="416" y="688"/>
      <point x="411" y="687"/>
      <point x="409" y="684" type="qcurve"/>
      <point x="399" y="694"/>
      <point x="391" y="714"/>
      <point x="391" y="723" type="qcurve" smooth="yes"/>
      <point x="391" y="736"/>
      <point x="394" y="753"/>
      <point x="399" y="763" type="qcurve" smooth="yes"/>
      <point x="402" y="770"/>
      <point x="415" y="779"/>
      <point x="422" y="779" type="qcurve" smooth="yes"/>
      <point x="432" y="779"/>
      <point x="443" y="770"/>
      <point x="448" y="763" type="qcurve" smooth="yes"/>
      <point x="453" y="755"/>
      <point x="455" y="741"/>
      <point x="455" y="733" type="qcurve" smooth="yes"/>
      <point x="455" y="723"/>
      <point x="454" y="714"/>
      <point x="451" y="714" type="qcurve"/>
      <point x="451" y="710" type="line"/>
      <point x="448" y="710" type="line"/>
      <point x="448" y="717" type="line" smooth="yes"/>
      <point x="448" y="724"/>
      <point x="444" y="739"/>
      <point x="442" y="746" type="qcurve"/>
      <point x="437" y="751"/>
      <point x="430" y="756"/>
      <point x="425" y="756" type="qcurve" smooth="yes"/>
      <point x="420" y="756"/>
      <point x="411" y="751"/>
      <point x="409" y="746" type="qcurve"/>
      <point x="404" y="741"/>
      <point x="402" y="731"/>
      <point x="402" y="723" type="qcurve" smooth="yes"/>
      <point x="402" y="711"/>
      <point x="409" y="696"/>
      <point x="419" y="691" type="qcurve"/>
    </contour>
    <contour>
      <point x="827" y="231" type="line"/>
      <point x="827" y="231"/>
      <point x="823" y="234"/>
      <point x="823" y="237" type="qcurve"/>
      <point x="821" y="240"/>
      <point x="816" y="247"/>
      <point x="814" y="251" type="qcurve" smooth="yes"/>
      <point x="811" y="255"/>
      <point x="801" y="261"/>
      <point x="791" y="265" type="qcurve" smooth="yes"/>
      <point x="783" y="268"/>
      <point x="761" y="271"/>
      <point x="748" y="271" type="qcurve" smooth="yes"/>
      <point x="741" y="271"/>
      <point x="730" y="267"/>
      <point x="722" y="263" type="qcurve"/>
      <point x="717" y="259"/>
      <point x="711" y="251"/>
      <point x="706" y="246" type="qcurve"/>
      <point x="704" y="242"/>
      <point x="699" y="238"/>
      <point x="699" y="238" type="qcurve"/>
      <point x="697" y="238"/>
      <point x="696" y="240"/>
      <point x="696" y="242" type="qcurve"/>
      <point x="704" y="257"/>
      <point x="722" y="275"/>
      <point x="732" y="279" type="qcurve"/>
      <point x="742" y="305"/>
      <point x="748" y="345"/>
      <point x="748" y="359" type="qcurve" smooth="yes"/>
      <point x="748" y="376"/>
      <point x="743" y="407"/>
      <point x="735" y="424" type="qcurve" smooth="yes"/>
      <point x="728" y="439"/>
      <point x="705" y="458"/>
      <point x="693" y="463" type="qcurve"/>
      <point x="693" y="466"/>
      <point x="694" y="467"/>
      <point x="696" y="470" type="qcurve"/>
      <point x="708" y="467"/>
      <point x="729" y="452"/>
      <point x="739" y="437" type="qcurve" smooth="yes"/>
      <point x="748" y="422"/>
      <point x="758" y="386"/>
      <point x="758" y="362" type="qcurve" smooth="yes"/>
      <point x="758" y="344"/>
      <point x="752" y="304"/>
      <point x="745" y="281" type="qcurve"/>
      <point x="748" y="281"/>
      <point x="756" y="280"/>
      <point x="758" y="280" type="qcurve" smooth="yes"/>
      <point x="761" y="280"/>
      <point x="762" y="279"/>
      <point x="765" y="279" type="qcurve"/>
      <point x="765" y="279"/>
      <point x="769" y="279"/>
      <point x="771" y="279" type="qcurve" smooth="yes"/>
      <point x="786" y="277"/>
      <point x="810" y="267"/>
      <point x="817" y="260" type="qcurve" smooth="yes"/>
      <point x="824" y="253"/>
      <point x="830" y="240"/>
      <point x="830" y="235" type="qcurve" smooth="yes"/>
      <point x="830" y="233"/>
      <point x="829" y="231"/>
      <point x="827" y="231" type="qcurve"/>
    </contour>
    <contour>
      <point x="526" y="704" type="line"/>
      <point x="524" y="704"/>
      <point x="519" y="707"/>
      <point x="517" y="707" type="qcurve"/>
      <point x="512" y="717"/>
      <point x="507" y="737"/>
      <point x="507" y="750" type="qcurve" smooth="yes"/>
      <point x="507" y="757"/>
      <point x="512" y="768"/>
      <point x="517" y="776" type="qcurve"/>
      <point x="524" y="781"/>
      <point x="539" y="785"/>
      <point x="546" y="785" type="qcurve" smooth="yes"/>
      <point x="556" y="785"/>
      <point x="571" y="780"/>
      <point x="579" y="772" type="qcurve"/>
      <point x="584" y="765"/>
      <point x="588" y="745"/>
      <point x="588" y="730" type="qcurve" smooth="yes"/>
      <point x="588" y="718"/>
      <point x="584" y="696"/>
      <point x="582" y="681" type="qcurve"/>
      <point x="577" y="684"/>
      <point x="571" y="688"/>
      <point x="566" y="688" type="qcurve" smooth="yes"/>
      <point x="563" y="688"/>
      <point x="559" y="691"/>
      <point x="559" y="691" type="qcurve"/>
      <point x="569" y="693"/>
      <point x="579" y="708"/>
      <point x="579" y="720" type="qcurve" smooth="yes"/>
      <point x="579" y="728"/>
      <point x="575" y="739"/>
      <point x="572" y="746" type="qcurve"/>
      <point x="567" y="751"/>
      <point x="557" y="759"/>
      <point x="549" y="759" type="qcurve" smooth="yes"/>
      <point x="544" y="759"/>
      <point x="535" y="754"/>
      <point x="530" y="750" type="qcurve"/>
      <point x="525" y="742"/>
      <point x="523" y="730"/>
      <point x="523" y="720" type="qcurve" smooth="yes"/>
      <point x="523" y="715"/>
      <point x="524" y="706"/>
      <point x="526" y="704" type="qcurve"/>
    </contour>
    <contour>
      <point x="566" y="652" type="line"/>
      <point x="566" y="652"/>
      <point x="565" y="655"/>
      <point x="562" y="655" type="qcurve"/>
      <point x="562" y="661" type="line"/>
      <point x="531" y="637"/>
      <point x="481" y="616"/>
      <point x="461" y="616" type="qcurve" smooth="yes"/>
      <point x="447" y="616"/>
      <point x="417" y="630"/>
      <point x="402" y="642" type="qcurve"/>
      <point x="400" y="647"/>
      <point x="396" y="652"/>
      <point x="396" y="652" type="qcurve"/>
      <point x="396" y="661"/>
      <point x="414" y="681"/>
      <point x="429" y="691" type="qcurve" smooth="yes"/>
      <point x="446" y="701"/>
      <point x="470" y="710"/>
      <point x="478" y="710" type="qcurve" smooth="yes"/>
      <point x="487" y="710"/>
      <point x="521" y="701"/>
      <point x="543" y="691" type="qcurve"/>
      <point x="567" y="684"/>
      <point x="593" y="670"/>
      <point x="595" y="665" type="qcurve"/>
      <point x="597" y="665"/>
      <point x="598" y="661"/>
      <point x="598" y="658" type="qcurve" smooth="yes"/>
      <point x="598" y="651"/>
      <point x="590" y="640"/>
      <point x="585" y="635" type="qcurve"/>
      <point x="556" y="616" type="line" smooth="yes"/>
      <point x="531" y="599"/>
      <point x="491" y="580"/>
      <point x="474" y="580" type="qcurve" smooth="yes"/>
      <point x="462" y="580"/>
      <point x="438" y="590"/>
      <point x="429" y="599" type="qcurve" smooth="yes"/>
      <point x="409" y="619" type="line"/>
      <point x="407" y="622"/>
      <point x="402" y="630"/>
      <point x="399" y="635" type="qcurve"/>
      <point x="414" y="623"/>
      <point x="447" y="609"/>
      <point x="464" y="609" type="qcurve" smooth="yes"/>
      <point x="484" y="609"/>
      <point x="534" y="630"/>
      <point x="566" y="652" type="qcurve"/>
    </contour>
    <contour>
      <point x="641" y="-7" type="line"/>
      <point x="641" y="-7" type="line"/>
      <point x="647" y="29" type="line"/>
      <point x="647" y="39"/>
      <point x="648" y="56"/>
      <point x="650" y="64" type="qcurve"/>
      <point x="650" y="72"/>
      <point x="654" y="81"/>
      <point x="654" y="84" type="qcurve" smooth="yes"/>
      <point x="654" y="185" type="line" smooth="yes"/>
      <point x="654" y="211"/>
      <point x="664" y="236"/>
      <point x="677" y="236" type="qcurve" smooth="yes"/>
      <point x="681" y="236"/>
      <point x="688" y="232"/>
      <point x="693" y="228" type="qcurve"/>
      <point x="695" y="217"/>
      <point x="701" y="199"/>
      <point x="706" y="192" type="qcurve" smooth="yes"/>
      <point x="713" y="181"/>
      <point x="735" y="170"/>
      <point x="755" y="170" type="qcurve" smooth="yes"/>
      <point x="760" y="170"/>
      <point x="774" y="175"/>
      <point x="781" y="179" type="qcurve" smooth="yes"/>
      <point x="786" y="183"/>
      <point x="798" y="192"/>
      <point x="801" y="197" type="qcurve" smooth="yes"/>
      <point x="805" y="202"/>
      <point x="815" y="211"/>
      <point x="820" y="215" type="qcurve"/>
      <point x="823" y="219"/>
      <point x="831" y="224"/>
      <point x="833" y="224" type="qcurve" smooth="yes"/>
      <point x="836" y="224"/>
      <point x="836" y="223"/>
      <point x="836" y="222" type="qcurve"/>
      <point x="839" y="220"/>
      <point x="841" y="210"/>
      <point x="843" y="203" type="qcurve" smooth="yes"/>
      <point x="846" y="184" type="line" smooth="yes"/>
      <point x="849" y="173"/>
      <point x="858" y="155"/>
      <point x="863" y="149" type="qcurve" smooth="yes"/>
      <point x="870" y="142"/>
      <point x="881" y="134"/>
      <point x="885" y="132" type="qcurve"/>
      <point x="890" y="131"/>
      <point x="900" y="125"/>
      <point x="905" y="121" type="qcurve" smooth="yes"/>
      <point x="910" y="117"/>
      <point x="918" y="107"/>
      <point x="918" y="99" type="qcurve" smooth="yes"/>
      <point x="918" y="94"/>
      <point x="914" y="84"/>
      <point x="912" y="81" type="qcurve"/>
      <point x="907" y="77"/>
      <point x="896" y="71"/>
      <point x="889" y="69" type="qcurve" smooth="yes"/>
      <point x="884" y="67"/>
      <point x="866" y="59"/>
      <point x="856" y="53" type="qcurve" smooth="yes"/>
      <point x="844" y="47"/>
      <point x="823" y="33"/>
      <point x="814" y="25" type="qcurve" smooth="yes"/>
      <point x="758" y="-23" type="line"/>
      <point x="756" y="-24"/>
      <point x="753" y="-26"/>
      <point x="748" y="-28" type="qcurve"/>
      <point x="746" y="-30"/>
      <point x="741" y="-34"/>
      <point x="739" y="-35" type="qcurve" smooth="yes"/>
      <point x="736" y="-37"/>
      <point x="727" y="-41"/>
      <point x="722" y="-41" type="qcurve"/>
      <point x="717" y="-43"/>
      <point x="708" y="-44"/>
      <point x="703" y="-44" type="qcurve" smooth="yes"/>
      <point x="683" y="-44"/>
      <point x="650" y="-26"/>
      <point x="641" y="-8" type="qcurve"/>
    </contour>
    <contour>
      <point x="167" y="10" type="line"/>
      <point x="138" y="14"/>
      <point x="106" y="27"/>
      <point x="103" y="37" type="qcurve"/>
      <point x="103" y="42"/>
      <point x="109" y="58"/>
      <point x="116" y="69" type="qcurve" smooth="yes"/>
      <point x="122" y="79"/>
      <point x="128" y="99"/>
      <point x="128" y="109" type="qcurve" smooth="yes"/>
      <point x="128" y="114"/>
      <point x="126" y="128"/>
      <point x="124" y="137" type="qcurve" smooth="yes"/>
      <point x="122" y="147"/>
      <point x="120" y="160"/>
      <point x="120" y="164" type="qcurve" smooth="yes"/>
      <point x="120" y="172"/>
      <point x="126" y="188"/>
      <point x="132" y="196" type="qcurve"/>
      <point x="137" y="198"/>
      <point x="154" y="201"/>
      <point x="167" y="201" type="qcurve" smooth="yes"/>
      <point x="176" y="201" type="line" smooth="yes"/>
      <point x="179" y="201"/>
      <point x="184" y="201"/>
      <point x="185" y="201" type="qcurve" smooth="yes"/>
      <point x="191" y="202"/>
      <point x="199" y="205"/>
      <point x="201" y="206" type="qcurve" smooth="yes"/>
      <point x="204" y="208"/>
      <point x="207" y="215"/>
      <point x="208" y="220" type="qcurve" smooth="yes"/>
      <point x="208" y="225"/>
      <point x="212" y="236"/>
      <point x="215" y="240" type="qcurve" smooth="yes"/>
      <point x="219" y="245"/>
      <point x="233" y="252"/>
      <point x="243" y="254" type="qcurve"/>
      <point x="251" y="252"/>
      <point x="266" y="244"/>
      <point x="272" y="239" type="qcurve" smooth="yes"/>
      <point x="279" y="233"/>
      <point x="289" y="222"/>
      <point x="292" y="216" type="qcurve"/>
      <point x="296" y="211"/>
      <point x="305" y="196"/>
      <point x="310" y="187" type="qcurve" smooth="yes"/>
      <point x="315" y="177"/>
      <point x="324" y="163"/>
      <point x="327" y="158" type="qcurve"/>
      <point x="350" y="129" type="line" smooth="yes"/>
      <point x="377" y="93"/>
      <point x="405" y="35"/>
      <point x="405" y="12" type="qcurve" smooth="yes"/>
      <point x="405" y="5"/>
      <point x="405" y="-6"/>
      <point x="402" y="-11" type="qcurve"/>
      <point x="390" y="-25"/>
      <point x="362" y="-40"/>
      <point x="345" y="-40" type="qcurve" smooth="yes"/>
      <point x="338" y="-40"/>
      <point x="302" y="-29"/>
      <point x="272" y="-19" type="qcurve" smooth="yes"/>
      <point x="243" y="-8"/>
      <point x="190" y="6"/>
      <point x="167" y="10" type="qcurve"/>
    </contour>
    <contour>
      <point x="276" y="307" type="line"/>
      <point x="276" y="293"/>
      <point x="287" y="272"/>
      <point x="298" y="264" type="qcurve"/>
      <point x="297" y="270"/>
      <point x="296" y="282"/>
      <point x="296" y="287" type="qcurve" smooth="yes"/>
      <point x="296" y="315"/>
      <point x="316" y="382"/>
      <point x="336" y="419" type="qcurve" smooth="yes"/>
      <point x="360" y="468" type="line"/>
      <point x="361" y="468"/>
      <point x="362" y="476"/>
      <point x="363" y="481" type="qcurve" smooth="yes"/>
      <point x="364" y="489"/>
      <point x="371" y="510"/>
      <point x="378" y="527" type="qcurve"/>
      <point x="399" y="566" type="line" smooth="yes"/>
      <point x="404" y="576"/>
      <point x="409" y="595"/>
      <point x="409" y="602" type="qcurve"/>
      <point x="428" y="586" type="line"/>
      <point x="436" y="576"/>
      <point x="459" y="569"/>
      <point x="474" y="569" type="qcurve" smooth="yes"/>
      <point x="491" y="569"/>
      <point x="531" y="585"/>
      <point x="556" y="602" type="qcurve" smooth="yes"/>
      <point x="585" y="625" type="line"/>
      <point x="590" y="615"/>
      <point x="600" y="591"/>
      <point x="604" y="579" type="qcurve"/>
      <point x="612" y="567"/>
      <point x="623" y="542"/>
      <point x="631" y="530" type="qcurve"/>
      <point x="631" y="518"/>
      <point x="635" y="501"/>
      <point x="637" y="491" type="qcurve"/>
      <point x="642" y="484"/>
      <point x="649" y="469"/>
      <point x="653" y="462" type="qcurve" smooth="yes"/>
      <point x="658" y="454"/>
      <point x="668" y="440"/>
      <point x="673" y="432" type="qcurve" smooth="yes"/>
      <point x="678" y="422"/>
      <point x="687" y="398"/>
      <point x="689" y="383" type="qcurve"/>
      <point x="694" y="366"/>
      <point x="696" y="329"/>
      <point x="696" y="306" type="qcurve" smooth="yes"/>
      <point x="696" y="292"/>
      <point x="695" y="259"/>
      <point x="693" y="240" type="qcurve"/>
      <point x="688" y="243"/>
      <point x="678" y="247"/>
      <point x="673" y="247" type="qcurve" smooth="yes"/>
      <point x="666" y="247"/>
      <point x="655" y="239"/>
      <point x="650" y="232" type="qcurve" smooth="yes"/>
      <point x="645" y="224"/>
      <point x="640" y="200"/>
      <point x="640" y="184" type="qcurve" smooth="yes"/>
      <point x="640" y="172" type="line"/>
      <point x="643" y="169"/>
      <point x="644" y="153"/>
      <point x="644" y="141" type="qcurve"/>
      <point x="612" y="97"/>
      <point x="528" y="53"/>
      <point x="474" y="53" type="qcurve" smooth="yes"/>
      <point x="445" y="53"/>
      <point x="402" y="67"/>
      <point x="392" y="81" type="qcurve" smooth="yes"/>
      <point x="387" y="90"/>
      <point x="382" y="100"/>
      <point x="382" y="100" type="qcurve"/>
      <point x="382" y="102"/>
      <point x="382" y="103"/>
      <point x="383" y="103" type="qcurve" smooth="yes"/>
      <point x="388" y="103"/>
      <point x="400" y="108"/>
      <point x="405" y="114" type="qcurve"/>
      <point x="413" y="120"/>
      <point x="418" y="130"/>
      <point x="418" y="136" type="qcurve" smooth="yes"/>
      <point x="418" y="145"/>
      <point x="390" y="179"/>
      <point x="362" y="203" type="qcurve"/>
      <point x="327" y="225" type="line"/>
      <point x="307" y="240"/>
      <point x="281" y="264"/>
      <point x="275" y="272" type="qcurve"/>
      <point x="271" y="280"/>
      <point x="265" y="299"/>
      <point x="265" y="310" type="qcurve" smooth="yes"/>
      <point x="265" y="325"/>
      <point x="276" y="364"/>
      <point x="286" y="387" type="qcurve" smooth="yes"/>
      <point x="297" y="411"/>
      <point x="314" y="444"/>
      <point x="321" y="452" type="qcurve"/>
      <point x="324" y="449" type="line"/>
      <point x="326" y="449"/>
      <point x="329" y="448"/>
      <point x="329" y="445" type="qcurve"/>
      <point x="320" y="435"/>
      <point x="303" y="405"/>
      <point x="294" y="383" type="qcurve" smooth="yes"/>
      <point x="285" y="361"/>
      <point x="276" y="323"/>
      <point x="276" y="307" type="qcurve"/>
    </contour>
    <contour>
      <point x="510" y="-2" type="line"/>
      <point x="529" y="-2"/>
      <point x="591" y="-7"/>
      <point x="631" y="-12" type="qcurve"/>
      <point x="638" y="-26"/>
      <point x="663" y="-46"/>
      <point x="683" y="-51" type="qcurve"/>
      <point x="706" y="-54" type="line"/>
      <point x="715" y="-54"/>
      <point x="734" y="-50"/>
      <point x="742" y="-45" type="qcurve" smooth="yes"/>
      <point x="749" y="-41"/>
      <point x="768" y="-27"/>
      <point x="777" y="-18" type="qcurve" smooth="yes"/>
      <point x="810" y="10" type="line" smooth="yes"/>
      <point x="822" y="20"/>
      <point x="847" y="38"/>
      <point x="859" y="45" type="qcurve" smooth="yes"/>
      <point x="874" y="52"/>
      <point x="893" y="62"/>
      <point x="898" y="64" type="qcurve" smooth="yes"/>
      <point x="906" y="66"/>
      <point x="916" y="73"/>
      <point x="921" y="78" type="qcurve" smooth="yes"/>
      <point x="926" y="83"/>
      <point x="931" y="95"/>
      <point x="931" y="103" type="qcurve" smooth="yes"/>
      <point x="931" y="109"/>
      <point x="926" y="119"/>
      <point x="921" y="124" type="qcurve" smooth="yes"/>
      <point x="916" y="128"/>
      <point x="903" y="135"/>
      <point x="898" y="138" type="qcurve" smooth="yes"/>
      <point x="891" y="141"/>
      <point x="880" y="148"/>
      <point x="875" y="152" type="qcurve" smooth="yes"/>
      <point x="868" y="157"/>
      <point x="861" y="167"/>
      <point x="859" y="172" type="qcurve"/>
      <point x="856" y="196" type="line"/>
      <point x="853" y="208"/>
      <point x="848" y="223"/>
      <point x="846" y="226" type="qcurve" smooth="yes"/>
      <point x="844" y="230"/>
      <point x="838" y="233"/>
      <point x="833" y="233" type="qcurve"/>
      <point x="838" y="249"/>
      <point x="843" y="282"/>
      <point x="843" y="299" type="qcurve" smooth="yes"/>
      <point x="843" y="333"/>
      <point x="829" y="395"/>
      <point x="817" y="419" type="qcurve"/>
      <point x="807" y="446"/>
      <point x="773" y="499"/>
      <point x="751" y="524" type="qcurve"/>
      <point x="742" y="538"/>
      <point x="723" y="564"/>
      <point x="715" y="576" type="qcurve" smooth="yes"/>
      <point x="708" y="586"/>
      <point x="697" y="605"/>
      <point x="693" y="615" type="qcurve"/>
      <point x="688" y="622"/>
      <point x="682" y="641"/>
      <point x="680" y="651" type="qcurve" smooth="yes"/>
      <point x="677" y="663"/>
      <point x="675" y="683"/>
      <point x="673" y="690" type="qcurve"/>
      <point x="673" y="698"/>
      <point x="670" y="718"/>
      <point x="670" y="733" type="qcurve"/>
      <point x="667" y="750"/>
      <point x="666" y="776"/>
      <point x="663" y="788" type="qcurve"/>
      <point x="661" y="808"/>
      <point x="652" y="839"/>
      <point x="647" y="853" type="qcurve"/>
      <point x="640" y="866"/>
      <point x="624" y="888"/>
      <point x="614" y="896" type="qcurve" smooth="yes"/>
      <point x="607" y="903"/>
      <point x="588" y="914"/>
      <point x="578" y="919" type="qcurve" smooth="yes"/>
      <point x="566" y="924"/>
      <point x="547" y="928"/>
      <point x="539" y="928" type="qcurve"/>
      <point x="532" y="931"/>
      <point x="517" y="932"/>
      <point x="510" y="932" type="qcurve" smooth="yes"/>
      <point x="490" y="932"/>
      <point x="456" y="927"/>
      <point x="441" y="922" type="qcurve" smooth="yes"/>
      <point x="427" y="917"/>
      <point x="406" y="899"/>
      <point x="399" y="889" type="qcurve" smooth="yes"/>
      <point x="391" y="879"/>
      <point x="379" y="856"/>
      <point x="376" y="844" type="qcurve" smooth="yes"/>
      <point x="373" y="831"/>
      <point x="370" y="805"/>
      <point x="370" y="788" type="qcurve" smooth="yes"/>
      <point x="370" y="766"/>
      <point x="372" y="718"/>
      <point x="375" y="693" type="qcurve" smooth="yes"/>
      <point x="377" y="669"/>
      <point x="380" y="640"/>
      <point x="380" y="635" type="qcurve" smooth="yes"/>
      <point x="380" y="625"/>
      <point x="375" y="602"/>
      <point x="370" y="592" type="qcurve" smooth="yes"/>
      <point x="366" y="583"/>
      <point x="349" y="558"/>
      <point x="336" y="543" type="qcurve" smooth="yes"/>
      <point x="312" y="514" type="line" smooth="yes"/>
      <point x="297" y="497"/>
      <point x="278" y="463"/>
      <point x="275" y="445" type="qcurve" smooth="yes"/>
      <point x="270" y="426"/>
      <point x="261" y="396"/>
      <point x="257" y="387" type="qcurve" smooth="yes"/>
      <point x="253" y="377"/>
      <point x="242" y="356"/>
      <point x="235" y="343" type="qcurve" smooth="yes"/>
      <point x="223" y="322" type="line" smooth="yes"/>
      <point x="214" y="306"/>
      <point x="206" y="281"/>
      <point x="206" y="272" type="qcurve"/>
      <point x="205" y="271"/>
      <point x="205" y="266"/>
      <point x="205" y="263" type="qcurve" smooth="yes"/>
      <point x="205" y="259"/>
      <point x="207" y="253"/>
      <point x="209" y="251" type="qcurve"/>
      <point x="208" y="249"/>
      <point x="205" y="245"/>
      <point x="204" y="243" type="qcurve"/>
      <point x="204" y="242"/>
      <point x="203" y="239"/>
      <point x="202" y="238" type="qcurve"/>
      <point x="202" y="237"/>
      <point x="200" y="232"/>
      <point x="199" y="229" type="qcurve" smooth="yes"/>
      <point x="198" y="226"/>
      <point x="195" y="220"/>
      <point x="194" y="216" type="qcurve"/>
      <point x="188" y="213"/>
      <point x="181" y="210"/>
      <point x="179" y="210" type="qcurve" smooth="yes"/>
      <point x="142" y="210" type="line" smooth="yes"/>
      <point x="136" y="210"/>
      <point x="126" y="204"/>
      <point x="120" y="198" type="qcurve" smooth="yes"/>
      <point x="115" y="192"/>
      <point x="110" y="175"/>
      <point x="110" y="164" type="qcurve" smooth="yes"/>
      <point x="110" y="161"/>
      <point x="112" y="145"/>
      <point x="114" y="132" type="qcurve" smooth="yes"/>
      <point x="116" y="119"/>
      <point x="118" y="104"/>
      <point x="118" y="101" type="qcurve" smooth="yes"/>
      <point x="118" y="99"/>
      <point x="117" y="94"/>
      <point x="117" y="92" type="qcurve"/>
      <point x="116" y="89"/>
      <point x="114" y="84"/>
      <point x="113" y="82" type="qcurve" smooth="yes"/>
      <point x="112" y="80"/>
      <point x="110" y="75"/>
      <point x="109" y="73" type="qcurve" smooth="yes"/>
      <point x="108" y="71"/>
      <point x="105" y="66"/>
      <point x="103" y="63" type="qcurve" smooth="yes"/>
      <point x="101" y="60"/>
      <point x="98" y="55"/>
      <point x="97" y="53" type="qcurve" smooth="yes"/>
      <point x="95" y="48"/>
      <point x="93" y="40"/>
      <point x="93" y="36" type="qcurve" smooth="yes"/>
      <point x="93" y="32"/>
      <point x="97" y="25"/>
      <point x="100" y="22" type="qcurve" smooth="yes"/>
      <point x="104" y="19"/>
      <point x="113" y="14"/>
      <point x="119" y="12" type="qcurve" smooth="yes"/>
      <point x="126" y="10"/>
      <point x="138" y="6"/>
      <point x="143" y="5" type="qcurve" smooth="yes"/>
      <point x="148" y="4"/>
      <point x="161" y="2"/>
      <point x="168" y="1" type="qcurve" smooth="yes"/>
      <point x="175" y="0"/>
      <point x="184" y="-2"/>
      <point x="186" y="-3" type="qcurve"/>
      <point x="206" y="-7"/>
      <point x="251" y="-21"/>
      <point x="277" y="-29" type="qcurve" smooth="yes"/>
      <point x="302" y="-39"/>
      <point x="340" y="-48"/>
      <point x="352" y="-48" type="qcurve" smooth="yes"/>
      <point x="371" y="-48"/>
      <point x="400" y="-33"/>
      <point x="412" y="-18" type="qcurve"/>
      <point x="412" y="-19" type="line"/>
      <point x="429" y="-11"/>
      <point x="478" y="-2"/>
      <point x="510" y="-2" type="qcurve"/>
    </contour>
  </outline>
</glyph>
<glyph name="uniE613" format="2">
  <advance width="1024"/>
  <unicode hex="E713"/>
  <note>
uniE613
</note>
  <outline>
    <contour>
      <point x="446" y="452" type="line"/>
      <point x="306" y="207" type="line" smooth="yes"/>
      <point x="302" y="201"/>
      <point x="289" y="198"/>
      <point x="283" y="201" type="qcurve" smooth="yes"/>
      <point x="239" y="226" type="line" smooth="yes"/>
      <point x="233" y="230"/>
      <point x="230" y="243"/>
      <point x="233" y="249" type="qcurve" smooth="yes"/>
      <point x="435" y="601" type="line" smooth="yes"/>
      <point x="439" y="607"/>
      <point x="452" y="611"/>
      <point x="458" y="607" type="qcurve" smooth="yes"/>
      <point x="502" y="582" type="line" smooth="yes"/>
      <point x="508" y="579"/>
      <point x="511" y="565"/>
      <point x="508" y="559" type="qcurve" smooth="yes"/>
      <point x="446" y="452" type="line"/>
    </contour>
    <contour>
      <point x="858" y="485" type="line"/>
      <point x="864" y="485"/>
      <point x="873" y="476"/>
      <point x="873" y="469" type="qcurve" smooth="yes"/>
      <point x="873" y="371" type="line" smooth="yes"/>
      <point x="873" y="365"/>
      <point x="864" y="356"/>
      <point x="858" y="356" type="qcurve" smooth="yes"/>
      <point x="776" y="356" type="line"/>
      <point x="776" y="360"/>
      <point x="773" y="366"/>
      <point x="771" y="369" type="qcurve"/>
      <point x="770" y="372"/>
      <point x="761" y="389"/>
      <point x="755" y="400" type="qcurve" smooth="yes"/>
      <point x="747" y="416"/>
      <point x="724" y="460"/>
      <point x="711" y="485" type="qcurve"/>
      <point x="858" y="485" type="line"/>
    </contour>
    <contour>
      <point x="500" y="485" type="line"/>
      <point x="566" y="485" type="line"/>
      <point x="586" y="440"/>
      <point x="615" y="378"/>
      <point x="626" y="356" type="qcurve"/>
      <point x="426" y="356" type="line"/>
      <point x="500" y="485" type="line"/>
    </contour>
    <contour>
      <point x="333" y="485" type="line"/>
      <point x="260" y="356" type="line"/>
      <point x="164" y="356" type="line" smooth="yes"/>
      <point x="157" y="356"/>
      <point x="149" y="365"/>
      <point x="149" y="371" type="qcurve" smooth="yes"/>
      <point x="149" y="469" type="line" smooth="yes"/>
      <point x="149" y="476"/>
      <point x="157" y="485"/>
      <point x="164" y="485" type="qcurve" smooth="yes"/>
      <point x="333" y="485" type="line"/>
    </contour>
    <contour>
      <point x="269" y="182" type="line"/>
      <point x="275" y="178"/>
      <point x="275" y="168"/>
      <point x="269" y="164" type="qcurve" smooth="yes"/>
      <point x="213" y="126" type="line" smooth="yes"/>
      <point x="207" y="122"/>
      <point x="200" y="126"/>
      <point x="201" y="133" type="qcurve" smooth="yes"/>
      <point x="208" y="199" type="line" smooth="yes"/>
      <point x="209" y="206"/>
      <point x="219" y="210"/>
      <point x="225" y="207" type="qcurve" smooth="yes"/>
      <point x="269" y="182" type="line"/>
    </contour>
    <contour>
      <point x="745" y="355" type="line"/>
      <point x="753" y="340"/>
      <point x="732" y="318"/>
      <point x="723" y="314" type="qcurve" smooth="yes"/>
      <point x="714" y="310"/>
      <point x="700" y="307"/>
      <point x="687" y="313" type="qcurve" smooth="yes"/>
      <point x="681" y="316"/>
      <point x="646" y="384"/>
      <point x="606" y="471"/>
      <point x="569" y="555"/>
      <point x="560" y="575" type="qcurve" smooth="yes"/>
      <point x="552" y="595"/>
      <point x="523" y="660"/>
      <point x="497" y="724"/>
      <point x="484" y="774"/>
      <point x="492" y="778" type="qcurve" smooth="yes"/>
      <point x="504" y="784"/>
      <point x="574" y="659"/>
      <point x="605" y="610" type="qcurve" smooth="yes"/>
      <point x="623" y="582"/>
      <point x="675" y="486"/>
      <point x="698" y="443" type="qcurve"/>
      <point x="699" y="442"/>
      <point x="699" y="441"/>
      <point x="700" y="440" type="qcurve" smooth="yes"/>
      <point x="701" y="438"/>
      <point x="703" y="434"/>
      <point x="704" y="433" type="qcurve"/>
      <point x="704" y="432"/>
      <point x="705" y="431"/>
      <point x="705" y="430" type="qcurve"/>
      <point x="706" y="429"/>
      <point x="708" y="425"/>
      <point x="709" y="424" type="qcurve"/>
      <point x="709" y="423"/>
      <point x="710" y="421"/>
      <point x="711" y="420" type="qcurve"/>
      <point x="711" y="419"/>
      <point x="712" y="416"/>
      <point x="713" y="415" type="qcurve" smooth="yes"/>
      <point x="714" y="414"/>
      <point x="715" y="411"/>
      <point x="716" y="409" type="qcurve"/>
      <point x="716" y="409"/>
      <point x="716" y="409"/>
      <point x="716" y="409" type="qcurve"/>
      <point x="726" y="390"/>
      <point x="741" y="362"/>
      <point x="744" y="356" type="qcurve"/>
      <point x="744" y="356" type="line"/>
      <point x="744" y="356"/>
      <point x="745" y="355"/>
      <point x="745" y="355" type="qcurve"/>
    </contour>
    <contour>
      <point x="795" y="251" type="line"/>
      <point x="798" y="244"/>
      <point x="794" y="229"/>
      <point x="788" y="225" type="qcurve" smooth="yes"/>
      <point x="770" y="215" type="line" smooth="yes"/>
      <point x="763" y="211"/>
      <point x="748" y="214"/>
      <point x="744" y="221" type="qcurve" smooth="yes"/>
      <point x="718" y="262" type="line" smooth="yes"/>
      <point x="714" y="269"/>
      <point x="718" y="283"/>
      <point x="724" y="286" type="qcurve" smooth="yes"/>
      <point x="749" y="299" type="line" smooth="yes"/>
      <point x="756" y="303"/>
      <point x="770" y="298"/>
      <point x="774" y="291" type="qcurve" smooth="yes"/>
      <point x="795" y="251" type="line"/>
    </contour>
    <contour>
      <point x="788" y="193" type="line"/>
      <point x="845" y="226"/>
      <point x="851" y="102"/>
      <point x="851" y="102" type="qcurve"/>
      <point x="847" y="115"/>
      <point x="799" y="127"/>
      <point x="785" y="147" type="qcurve" smooth="yes"/>
      <point x="771" y="167"/>
      <point x="783" y="189"/>
      <point x="788" y="193" type="qcurve"/>
    </contour>
  </outline>
</glyph>
<glyph name="uniE614" format="2">
  <advance width="1024"/>
  <unicode hex="E714"/>
  <note>
uniE614
</note>
  <outline>
    <contour>
      <point x="155" y="723" type="line"/>
      <point x="155" y="791" type="line"/>
      <point x="580" y="791" type="line"/>
      <point x="580" y="655" type="line"/>
      <point x="155" y="655" type="line"/>
      <point x="155" y="723" type="line"/>
    </contour>
    <contour>
      <point x="733" y="723" type="line"/>
      <point x="733" y="791" type="line"/>
      <point x="869" y="791" type="line"/>
      <point x="869" y="655" type="line"/>
      <point x="733" y="655" type="line"/>
      <point x="733" y="723" type="line"/>
    </contour>
    <contour>
      <point x="155" y="434" type="line"/>
      <point x="155" y="502" type="line"/>
      <point x="869" y="502" type="line"/>
      <point x="869" y="367" type="line"/>
      <point x="155" y="367" type="line"/>
      <point x="155" y="434" type="line"/>
    </contour>
    <contour>
      <point x="155" y="150" type="line"/>
      <point x="155" y="213" type="line"/>
      <point x="435" y="213" type="line"/>
      <point x="435" y="87" type="line"/>
      <point x="155" y="87" type="line"/>
      <point x="155" y="150" type="line"/>
    </contour>
    <contour>
      <point x="589" y="150" type="line"/>
      <point x="589" y="213" type="line"/>
      <point x="869" y="213" type="line"/>
      <point x="869" y="87" type="line"/>
      <point x="589" y="87" type="line"/>
      <point x="589" y="150" type="line"/>
    </contour>
  </outline>
</glyph>
<glyph name="uniE615" format="2">
  <advance width="1024"/>
  <unicode hex="E715"/>
  <note>
uniE615
</note>
  <outline>
    <contour>
      <point x="249" y="531" type="line"/>
      <point x="267" y="486"/>
      <point x="314" y="373"/>
      <point x="328" y="347" type="qcurve"/>
      <point x="328" y="347" type="line"/>
      <point x="328" y="347" type="line"/>
      <point x="328" y="347" type="line"/>
      <point x="322" y="348"/>
      <point x="306" y="349"/>
      <point x="298" y="347" type="qcurve"/>
      <point x="298" y="347"/>
      <point x="298" y="347"/>
      <point x="298" y="347" type="qcurve"/>
      <point x="298" y="347" type="line"/>
      <point x="292" y="360"/>
      <point x="282" y="387"/>
      <point x="276" y="401" type="qcurve"/>
      <point x="276" y="401" type="line"/>
      <point x="257" y="401"/>
      <point x="220" y="401"/>
      <point x="201" y="401" type="qcurve"/>
      <point x="201" y="401" type="line"/>
      <point x="195" y="387"/>
      <point x="184" y="359"/>
      <point x="179" y="347" type="qcurve"/>
      <point x="179" y="347" type="line"/>
      <point x="179" y="347"/>
      <point x="179" y="347"/>
      <point x="179" y="347" type="qcurve"/>
      <point x="174" y="348"/>
      <point x="158" y="349"/>
      <point x="149" y="347" type="qcurve"/>
      <point x="149" y="347" type="line"/>
      <point x="149" y="347" type="line"/>
      <point x="168" y="386"/>
      <point x="209" y="485"/>
      <point x="228" y="531" type="qcurve"/>
      <point x="228" y="531" type="line"/>
      <point x="233" y="529"/>
      <point x="243" y="529"/>
      <point x="249" y="531" type="qcurve"/>
      <point x="249" y="531" type="line"/>
      <point x="249" y="531" type="line"/>
    </contour>
    <contour>
      <point x="271" y="414" type="line"/>
      <point x="271" y="414" type="line"/>
      <point x="263" y="435"/>
      <point x="246" y="478"/>
      <point x="238" y="499" type="qcurve"/>
      <point x="233" y="485"/>
      <point x="216" y="439"/>
      <point x="206" y="414" type="qcurve"/>
      <point x="206" y="414" type="line"/>
      <point x="222" y="413"/>
      <point x="255" y="413"/>
      <point x="271" y="414" type="qcurve"/>
    </contour>
    <contour>
      <point x="149" y="347" type="line"/>
      <point x="149" y="347" type="line"/>
      <point x="149" y="347"/>
      <point x="149" y="347"/>
      <point x="149" y="347" type="qcurve"/>
      <point x="149" y="347" type="line"/>
    </contour>
    <contour>
      <point x="193" y="556" type="line"/>
      <point x="185" y="544"/>
      <point x="133" y="455"/>
      <point x="114" y="422" type="qcurve"/>
      <point x="116" y="323" type="line"/>
      <point x="116" y="323"/>
      <point x="106" y="324"/>
      <point x="101" y="324" type="qcurve" smooth="yes"/>
      <point x="97" y="324"/>
      <point x="86" y="323"/>
      <point x="86" y="323" type="qcurve"/>
      <point x="88" y="422" type="line"/>
      <point x="78" y="440"/>
      <point x="28" y="527"/>
      <point x="9" y="556" type="qcurve"/>
      <point x="18" y="553"/>
      <point x="30" y="554"/>
      <point x="40" y="556" type="qcurve"/>
      <point x="52" y="534"/>
      <point x="85" y="479"/>
      <point x="101" y="453" type="qcurve"/>
      <point x="116" y="478"/>
      <point x="156" y="543"/>
      <point x="162" y="556" type="qcurve"/>
      <point x="170" y="554"/>
      <point x="185" y="554"/>
      <point x="193" y="556" type="qcurve"/>
      <point x="193" y="556" type="line"/>
      <point x="193" y="556"/>
      <point x="193" y="556"/>
      <point x="193" y="556" type="qcurve"/>
    </contour>
    <contour>
      <point x="607" y="534" type="line"/>
      <point x="653" y="534"/>
      <point x="707" y="483"/>
      <point x="707" y="438" type="qcurve" smooth="yes"/>
      <point x="707" y="398"/>
      <point x="657" y="344"/>
      <point x="607" y="344" type="qcurve" smooth="yes"/>
      <point x="561" y="344"/>
      <point x="508" y="395"/>
      <point x="508" y="439" type="qcurve" smooth="yes"/>
      <point x="508" y="479"/>
      <point x="558" y="534"/>
      <point x="607" y="534" type="qcurve"/>
    </contour>
    <contour>
      <point x="607" y="355" type="line"/>
      <point x="637" y="355"/>
      <point x="676" y="396"/>
      <point x="676" y="439" type="qcurve" smooth="yes"/>
      <point x="676" y="481"/>
      <point x="637" y="522"/>
      <point x="607" y="522" type="qcurve"/>
      <point x="607" y="522"/>
      <point x="606" y="522"/>
      <point x="606" y="522" type="qcurve"/>
      <point x="579" y="522"/>
      <point x="538" y="483"/>
      <point x="538" y="438" type="qcurve" smooth="yes"/>
      <point x="538" y="399"/>
      <point x="575" y="355"/>
      <point x="607" y="355" type="qcurve"/>
    </contour>
    <contour>
      <point x="967" y="352" type="line"/>
      <point x="974" y="352"/>
      <point x="983" y="344"/>
      <point x="983" y="337" type="qcurve" smooth="yes"/>
      <point x="983" y="329"/>
      <point x="974" y="322"/>
      <point x="969" y="322" type="qcurve" smooth="yes"/>
      <point x="962" y="322"/>
      <point x="953" y="329"/>
      <point x="953" y="336" type="qcurve" smooth="yes"/>
      <point x="953" y="342"/>
      <point x="960" y="352"/>
      <point x="967" y="352" type="qcurve"/>
    </contour>
    <contour>
      <point x="1002" y="553" type="line"/>
      <point x="1008" y="552"/>
      <point x="1015" y="545"/>
      <point x="1015" y="539" type="qcurve" smooth="yes"/>
      <point x="1015" y="537"/>
      <point x="1014" y="532"/>
      <point x="1013" y="529" type="qcurve" smooth="yes"/>
      <point x="1009" y="512"/>
      <point x="986" y="412"/>
      <point x="979" y="372" type="qcurve"/>
      <point x="979" y="372" type="line"/>
      <point x="977" y="373"/>
      <point x="971" y="374"/>
      <point x="968" y="374" type="qcurve"/>
      <point x="968" y="374" type="line"/>
      <point x="968" y="374" type="line"/>
      <point x="968" y="374"/>
      <point x="968" y="374"/>
      <point x="968" y="374" type="qcurve"/>
      <point x="968" y="374" type="line"/>
      <point x="974" y="414"/>
      <point x="981" y="496"/>
      <point x="984" y="538" type="qcurve" smooth="yes"/>
      <point x="984" y="546"/>
      <point x="994" y="553"/>
      <point x="999" y="553" type="qcurve" smooth="yes"/>
      <point x="1000" y="553"/>
      <point x="1002" y="553"/>
      <point x="1002" y="553" type="qcurve"/>
      <point x="1002" y="553" type="line"/>
      <point x="1002" y="553" type="line"/>
    </contour>
    <contour>
      <point x="832" y="545" type="line"/>
      <point x="887" y="545"/>
      <point x="948" y="486"/>
      <point x="948" y="438" type="qcurve" smooth="yes"/>
      <point x="948" y="388"/>
      <point x="885" y="333"/>
      <point x="833" y="333" type="qcurve" smooth="yes"/>
      <point x="771" y="333"/>
      <point x="718" y="397"/>
      <point x="718" y="439" type="qcurve" smooth="yes"/>
      <point x="718" y="491"/>
      <point x="784" y="545"/>
      <point x="832" y="545" type="qcurve"/>
    </contour>
    <contour>
      <point x="832" y="344" type="line"/>
      <point x="863" y="344"/>
      <point x="917" y="385"/>
      <point x="917" y="438" type="qcurve" smooth="yes"/>
      <point x="917" y="487"/>
      <point x="869" y="533"/>
      <point x="832" y="533" type="qcurve" smooth="yes"/>
      <point x="803" y="533"/>
      <point x="748" y="494"/>
      <point x="748" y="440" type="qcurve" smooth="yes"/>
      <point x="748" y="387"/>
      <point x="799" y="344"/>
      <point x="832" y="344" type="qcurve"/>
    </contour>
    <contour>
      <point x="468" y="531" type="line"/>
      <point x="476" y="529"/>
      <point x="491" y="529"/>
      <point x="499" y="531" type="qcurve"/>
      <point x="497" y="485"/>
      <point x="497" y="393"/>
      <point x="499" y="347" type="qcurve"/>
      <point x="492" y="349"/>
      <point x="476" y="349"/>
      <point x="468" y="347" type="qcurve"/>
      <point x="468" y="347" type="line"/>
      <point x="468" y="347" type="line"/>
      <point x="469" y="368"/>
      <point x="471" y="411"/>
      <point x="471" y="433" type="qcurve"/>
      <point x="445" y="433"/>
      <point x="393" y="433"/>
      <point x="368" y="432" type="qcurve"/>
      <point x="368" y="411"/>
      <point x="369" y="368"/>
      <point x="370" y="347" type="qcurve"/>
      <point x="370" y="347" type="line"/>
      <point x="370" y="347" type="line"/>
      <point x="362" y="349"/>
      <point x="347" y="349"/>
      <point x="339" y="347" type="qcurve"/>
      <point x="341" y="393"/>
      <point x="341" y="485"/>
      <point x="339" y="531" type="qcurve"/>
      <point x="347" y="529"/>
      <point x="363" y="529"/>
      <point x="370" y="531" type="qcurve"/>
      <point x="369" y="510"/>
      <point x="368" y="467"/>
      <point x="368" y="445" type="qcurve"/>
      <point x="393" y="444"/>
      <point x="445" y="444"/>
      <point x="471" y="445" type="qcurve"/>
      <point x="471" y="467"/>
      <point x="469" y="510"/>
      <point x="468" y="531" type="qcurve"/>
    </contour>
  </outline>
</glyph>
<glyph name="uniE616" format="2">
  <advance width="1024"/>
  <unicode hex="E716"/>
  <note>
uniE616
</note>
  <outline>
    <contour>
      <point x="872" y="554" type="line"/>
      <point x="872" y="554"/>
      <point x="872" y="553"/>
      <point x="872" y="553" type="qcurve"/>
      <point x="872" y="552"/>
      <point x="872" y="550"/>
      <point x="872" y="549" type="qcurve" smooth="yes"/>
      <point x="872" y="329" type="line" smooth="yes"/>
      <point x="872" y="328"/>
      <point x="872" y="326"/>
      <point x="872" y="325" type="qcurve"/>
      <point x="872" y="325"/>
      <point x="872" y="324"/>
      <point x="872" y="324" type="qcurve"/>
      <point x="872" y="323"/>
      <point x="871" y="322"/>
      <point x="871" y="321" type="qcurve"/>
      <point x="871" y="321"/>
      <point x="871" y="320"/>
      <point x="871" y="320" type="qcurve"/>
      <point x="871" y="319"/>
      <point x="870" y="318"/>
      <point x="870" y="317" type="qcurve"/>
      <point x="870" y="317"/>
      <point x="869" y="316"/>
      <point x="869" y="316" type="qcurve"/>
      <point x="869" y="315"/>
      <point x="868" y="314"/>
      <point x="868" y="314" type="qcurve"/>
      <point x="868" y="313"/>
      <point x="868" y="313"/>
      <point x="867" y="312" type="qcurve"/>
      <point x="867" y="312"/>
      <point x="866" y="311"/>
      <point x="866" y="310" type="qcurve"/>
      <point x="866" y="310"/>
      <point x="865" y="309"/>
      <point x="865" y="309" type="qcurve"/>
      <point x="865" y="309"/>
      <point x="864" y="308"/>
      <point x="863" y="307" type="qcurve"/>
      <point x="863" y="307"/>
      <point x="862" y="307"/>
      <point x="862" y="306" type="qcurve"/>
      <point x="862" y="306"/>
      <point x="861" y="305"/>
      <point x="860" y="305" type="qcurve"/>
      <point x="860" y="305"/>
      <point x="859" y="304"/>
      <point x="859" y="304" type="qcurve"/>
      <point x="859" y="304"/>
      <point x="859" y="303"/>
      <point x="858" y="303" type="qcurve"/>
      <point x="529" y="84" type="line" smooth="yes"/>
      <point x="525" y="81"/>
      <point x="516" y="79"/>
      <point x="512" y="79" type="qcurve" smooth="yes"/>
      <point x="508" y="79"/>
      <point x="499" y="81"/>
      <point x="495" y="84" type="qcurve" smooth="yes"/>
      <point x="166" y="303" type="line"/>
      <point x="165" y="303"/>
      <point x="165" y="304"/>
      <point x="165" y="304" type="qcurve"/>
      <point x="165" y="304"/>
      <point x="164" y="305"/>
      <point x="164" y="305" type="qcurve"/>
      <point x="163" y="305"/>
      <point x="162" y="306"/>
      <point x="162" y="306" type="qcurve"/>
      <point x="162" y="307"/>
      <point x="161" y="307"/>
      <point x="161" y="307" type="qcurve"/>
      <point x="160" y="308"/>
      <point x="159" y="309"/>
      <point x="159" y="309" type="qcurve"/>
      <point x="159" y="309"/>
      <point x="158" y="310"/>
      <point x="158" y="310" type="qcurve"/>
      <point x="158" y="311"/>
      <point x="157" y="312"/>
      <point x="157" y="312" type="qcurve"/>
      <point x="156" y="313"/>
      <point x="156" y="313"/>
      <point x="156" y="314" type="qcurve"/>
      <point x="156" y="314"/>
      <point x="155" y="315"/>
      <point x="155" y="316" type="qcurve"/>
      <point x="155" y="316"/>
      <point x="154" y="317"/>
      <point x="154" y="317" type="qcurve"/>
      <point x="154" y="318"/>
      <point x="153" y="319"/>
      <point x="153" y="320" type="qcurve"/>
      <point x="153" y="320"/>
      <point x="153" y="321"/>
      <point x="153" y="321" type="qcurve"/>
      <point x="153" y="322"/>
      <point x="152" y="323"/>
      <point x="152" y="324" type="qcurve"/>
      <point x="152" y="324"/>
      <point x="152" y="325"/>
      <point x="152" y="325" type="qcurve"/>
      <point x="152" y="326"/>
      <point x="152" y="328"/>
      <point x="152" y="329" type="qcurve" smooth="yes"/>
      <point x="152" y="549" type="line" smooth="yes"/>
      <point x="152" y="550"/>
      <point x="152" y="552"/>
      <point x="152" y="553" type="qcurve"/>
      <point x="152" y="553"/>
      <point x="152" y="554"/>
      <point x="152" y="554" type="qcurve"/>
      <point x="152" y="555"/>
      <point x="153" y="556"/>
      <point x="153" y="557" type="qcurve"/>
      <point x="153" y="557"/>
      <point x="153" y="558"/>
      <point x="153" y="558" type="qcurve"/>
      <point x="153" y="559"/>
      <point x="154" y="560"/>
      <point x="154" y="560" type="qcurve"/>
      <point x="154" y="561"/>
      <point x="155" y="561"/>
      <point x="155" y="562" type="qcurve"/>
      <point x="155" y="562"/>
      <point x="156" y="563"/>
      <point x="156" y="564" type="qcurve"/>
      <point x="156" y="564"/>
      <point x="156" y="565"/>
      <point x="157" y="565" type="qcurve"/>
      <point x="157" y="566"/>
      <point x="158" y="567"/>
      <point x="158" y="567" type="qcurve"/>
      <point x="158" y="568"/>
      <point x="159" y="568"/>
      <point x="159" y="569" type="qcurve"/>
      <point x="159" y="569"/>
      <point x="160" y="570"/>
      <point x="161" y="570" type="qcurve"/>
      <point x="161" y="571"/>
      <point x="162" y="571"/>
      <point x="162" y="571" type="qcurve"/>
      <point x="162" y="572"/>
      <point x="163" y="573"/>
      <point x="164" y="573" type="qcurve"/>
      <point x="164" y="573"/>
      <point x="165" y="574"/>
      <point x="165" y="574" type="qcurve"/>
      <point x="165" y="574"/>
      <point x="165" y="574"/>
      <point x="166" y="574" type="qcurve"/>
      <point x="495" y="794" type="line" smooth="yes"/>
      <point x="503" y="799"/>
      <point x="521" y="799"/>
      <point x="529" y="794" type="qcurve" smooth="yes"/>
      <point x="858" y="574" type="line"/>
      <point x="859" y="574"/>
      <point x="859" y="574"/>
      <point x="859" y="574" type="qcurve"/>
      <point x="859" y="574"/>
      <point x="860" y="573"/>
      <point x="860" y="573" type="qcurve"/>
      <point x="861" y="573"/>
      <point x="862" y="572"/>
      <point x="862" y="571" type="qcurve"/>
      <point x="862" y="571"/>
      <point x="863" y="571"/>
      <point x="863" y="570" type="qcurve"/>
      <point x="864" y="570"/>
      <point x="865" y="569"/>
      <point x="865" y="569" type="qcurve"/>
      <point x="865" y="568"/>
      <point x="866" y="568"/>
      <point x="866" y="567" type="qcurve"/>
      <point x="866" y="567"/>
      <point x="867" y="566"/>
      <point x="867" y="565" type="qcurve"/>
      <point x="868" y="565"/>
      <point x="868" y="564"/>
      <point x="868" y="564" type="qcurve"/>
      <point x="868" y="563"/>
      <point x="869" y="562"/>
      <point x="869" y="562" type="qcurve"/>
      <point x="869" y="561"/>
      <point x="870" y="561"/>
      <point x="870" y="560" type="qcurve"/>
      <point x="870" y="560"/>
      <point x="871" y="559"/>
      <point x="871" y="558" type="qcurve"/>
      <point x="871" y="558"/>
      <point x="871" y="557"/>
      <point x="871" y="557" type="qcurve"/>
      <point x="871" y="556"/>
      <point x="872" y="555"/>
      <point x="872" y="554" type="qcurve"/>
    </contour>
    <contour>
      <point x="512" y="366" type="line"/>
      <point x="622" y="439" type="line"/>
      <point x="512" y="512" type="line"/>
      <point x="403" y="439" type="line"/>
      <point x="512" y="366" type="line"/>
    </contour>
    <contour>
      <point x="481" y="566" type="line"/>
      <point x="481" y="710" type="line"/>
      <point x="238" y="549" type="line"/>
      <point x="347" y="476" type="line"/>
      <point x="481" y="566" type="line"/>
    </contour>
    <contour>
      <point x="291" y="439" type="line"/>
      <point x="214" y="491" type="line"/>
      <point x="214" y="387" type="line"/>
      <point x="291" y="439" type="line"/>
    </contour>
    <contour>
      <point x="347" y="402" type="line"/>
      <point x="238" y="329" type="line"/>
      <point x="481" y="167" type="line"/>
      <point x="481" y="312" type="line"/>
      <point x="347" y="402" type="line"/>
    </contour>
    <contour>
      <point x="543" y="312" type="line"/>
      <point x="543" y="167" type="line"/>
      <point x="786" y="329" type="line"/>
      <point x="677" y="402" type="line"/>
      <point x="543" y="312" type="line"/>
    </contour>
    <contour>
      <point x="733" y="439" type="line"/>
      <point x="810" y="387" type="line"/>
      <point x="810" y="491" type="line"/>
      <point x="733" y="439" type="line"/>
    </contour>
    <contour>
      <point x="677" y="476" type="line"/>
      <point x="786" y="549" type="line"/>
      <point x="543" y="710" type="line"/>
      <point x="543" y="566" type="line"/>
      <point x="677" y="476" type="line"/>
    </contour>
  </outline>
</glyph>
<glyph name="uniE617" format="2">
  <advance width="1024"/>
  <unicode hex="E717"/>
  <note>
uniE617
</note>
  <outline>
    <contour>
      <point x="204" y="459" type="line"/>
      <point x="205" y="459"/>
      <point x="208" y="456"/>
      <point x="208" y="455" type="qcurve" smooth="yes"/>
      <point x="208" y="325" type="line"/>
      <point x="208" y="325"/>
      <point x="207" y="323"/>
      <point x="206" y="322" type="qcurve"/>
      <point x="206" y="322"/>
      <point x="167" y="302"/>
      <point x="132" y="302" type="qcurve" smooth="yes"/>
      <point x="90" y="302"/>
      <point x="9" y="349"/>
      <point x="9" y="435" type="qcurve" smooth="yes"/>
      <point x="9" y="522"/>
      <point x="82" y="575"/>
      <point x="124" y="575" type="qcurve" smooth="yes"/>
      <point x="161" y="575"/>
      <point x="193" y="564"/>
      <point x="196" y="562" type="qcurve"/>
      <point x="197" y="562"/>
      <point x="197" y="560"/>
      <point x="197" y="559" type="qcurve" smooth="yes"/>
      <point x="188" y="519" type="line"/>
      <point x="188" y="517"/>
      <point x="185" y="515"/>
      <point x="183" y="515" type="qcurve"/>
      <point x="177" y="517"/>
      <point x="156" y="523"/>
      <point x="134" y="523" type="qcurve" smooth="yes"/>
      <point x="109" y="523"/>
      <point x="66" y="494"/>
      <point x="66" y="438" type="qcurve" smooth="yes"/>
      <point x="66" y="383"/>
      <point x="106" y="355"/>
      <point x="124" y="355" type="qcurve" smooth="yes"/>
      <point x="139" y="355"/>
      <point x="152" y="358"/>
      <point x="152" y="358" type="qcurve"/>
      <point x="152" y="409" type="line"/>
      <point x="119" y="409" type="line" smooth="yes"/>
      <point x="117" y="409"/>
      <point x="115" y="411"/>
      <point x="115" y="413" type="qcurve" smooth="yes"/>
      <point x="115" y="455" type="line" smooth="yes"/>
      <point x="115" y="456"/>
      <point x="117" y="459"/>
      <point x="119" y="459" type="qcurve" smooth="yes"/>
      <point x="204" y="459" type="line"/>
    </contour>
    <contour>
      <point x="633" y="566" type="line"/>
      <point x="635" y="566"/>
      <point x="637" y="563"/>
      <point x="637" y="562" type="qcurve" smooth="yes"/>
      <point x="637" y="311" type="line" smooth="yes"/>
      <point x="637" y="310"/>
      <point x="635" y="308"/>
      <point x="633" y="308" type="qcurve" smooth="yes"/>
      <point x="585" y="308" type="line" smooth="yes"/>
      <point x="583" y="308"/>
      <point x="581" y="310"/>
      <point x="581" y="311" type="qcurve" smooth="yes"/>
      <point x="581" y="418" type="line"/>
      <point x="507" y="418" type="line"/>
      <point x="507" y="311" type="line" smooth="yes"/>
      <point x="507" y="310"/>
      <point x="505" y="308"/>
      <point x="503" y="308" type="qcurve" smooth="yes"/>
      <point x="455" y="308" type="line" smooth="yes"/>
      <point x="453" y="308"/>
      <point x="451" y="310"/>
      <point x="451" y="311" type="qcurve" smooth="yes"/>
      <point x="451" y="562" type="line" smooth="yes"/>
      <point x="451" y="563"/>
      <point x="453" y="566"/>
      <point x="455" y="566" type="qcurve" smooth="yes"/>
      <point x="503" y="566" type="line" smooth="yes"/>
      <point x="505" y="566"/>
      <point x="507" y="563"/>
      <point x="507" y="562" type="qcurve" smooth="yes"/>
      <point x="507" y="469" type="line"/>
      <point x="581" y="469" type="line"/>
      <point x="581" y="562" type="line" smooth="yes"/>
      <point x="581" y="563"/>
      <point x="584" y="566"/>
      <point x="585" y="566" type="qcurve" smooth="yes"/>
      <point x="633" y="566" type="line"/>
    </contour>
    <contour>
      <point x="261" y="560" type="line"/>
      <point x="274" y="560"/>
      <point x="292" y="542"/>
      <point x="292" y="529" type="qcurve" smooth="yes"/>
      <point x="292" y="516"/>
      <point x="274" y="498"/>
      <point x="261" y="498" type="qcurve" smooth="yes"/>
      <point x="248" y="498"/>
      <point x="230" y="516"/>
      <point x="230" y="529" type="qcurve" smooth="yes"/>
      <point x="230" y="542"/>
      <point x="248" y="560"/>
      <point x="261" y="560" type="qcurve"/>
    </contour>
    <contour>
      <point x="288" y="480" type="line"/>
      <point x="288" y="480"/>
      <point x="288" y="369"/>
      <point x="288" y="364" type="qcurve" smooth="yes"/>
      <point x="288" y="359"/>
      <point x="288" y="321"/>
      <point x="288" y="314" type="qcurve" smooth="yes"/>
      <point x="288" y="311"/>
      <point x="286" y="308"/>
      <point x="282" y="308" type="qcurve" smooth="yes"/>
      <point x="265" y="308"/>
      <point x="240" y="308"/>
      <point x="240" y="308" type="qcurve"/>
      <point x="237" y="308"/>
      <point x="233" y="310"/>
      <point x="233" y="314" type="qcurve" smooth="yes"/>
      <point x="233" y="334"/>
      <point x="233" y="479"/>
      <point x="233" y="479" type="qcurve"/>
      <point x="233" y="481"/>
      <point x="235" y="484"/>
      <point x="237" y="484" type="qcurve" smooth="yes"/>
      <point x="284" y="484" type="line" smooth="yes"/>
      <point x="286" y="484"/>
      <point x="288" y="481"/>
      <point x="288" y="480" type="qcurve"/>
    </contour>
    <contour>
      <point x="818" y="483" type="line"/>
      <point x="820" y="483"/>
      <point x="822" y="481"/>
      <point x="822" y="479" type="qcurve" smooth="yes"/>
      <point x="822" y="311" type="line" smooth="yes"/>
      <point x="822" y="310"/>
      <point x="820" y="307"/>
      <point x="818" y="307" type="qcurve" smooth="yes"/>
      <point x="788" y="307" type="line" smooth="yes"/>
      <point x="786" y="307"/>
      <point x="784" y="309"/>
      <point x="784" y="309" type="qcurve"/>
      <point x="784" y="310"/>
      <point x="782" y="320"/>
      <point x="782" y="320" type="qcurve"/>
      <point x="782" y="320"/>
      <point x="749" y="302"/>
      <point x="726" y="302" type="qcurve" smooth="yes"/>
      <point x="697" y="302"/>
      <point x="660" y="327"/>
      <point x="660" y="364" type="qcurve" smooth="yes"/>
      <point x="660" y="402"/>
      <point x="660" y="479"/>
      <point x="660" y="479" type="qcurve"/>
      <point x="660" y="481"/>
      <point x="662" y="483"/>
      <point x="664" y="483" type="qcurve" smooth="yes"/>
      <point x="712" y="483" type="line" smooth="yes"/>
      <point x="714" y="483"/>
      <point x="716" y="481"/>
      <point x="716" y="479" type="qcurve"/>
      <point x="716" y="479"/>
      <point x="716" y="385"/>
      <point x="716" y="372" type="qcurve" smooth="yes"/>
      <point x="716" y="360"/>
      <point x="725" y="348"/>
      <point x="738" y="348" type="qcurve" smooth="yes"/>
      <point x="750" y="348"/>
      <point x="767" y="357"/>
      <point x="767" y="357" type="qcurve"/>
      <point x="767" y="479" type="line" smooth="yes"/>
      <point x="767" y="481"/>
      <point x="769" y="483"/>
      <point x="771" y="483" type="qcurve" smooth="yes"/>
      <point x="818" y="483" type="line"/>
    </contour>
    <contour>
      <point x="948" y="489" type="line"/>
      <point x="968" y="489"/>
      <point x="1015" y="460"/>
      <point x="1015" y="402" type="qcurve" smooth="yes"/>
      <point x="1015" y="344"/>
      <point x="979" y="303"/>
      <point x="946" y="303" type="qcurve" smooth="yes"/>
      <point x="918" y="303"/>
      <point x="890" y="321"/>
      <point x="890" y="321" type="qcurve"/>
      <point x="890" y="321"/>
      <point x="888" y="311"/>
      <point x="888" y="310" type="qcurve"/>
      <point x="887" y="309"/>
      <point x="885" y="307"/>
      <point x="884" y="307" type="qcurve"/>
      <point x="884" y="307"/>
      <point x="851" y="307"/>
      <point x="851" y="307" type="qcurve"/>
      <point x="849" y="307"/>
      <point x="847" y="310"/>
      <point x="847" y="311" type="qcurve" smooth="yes"/>
      <point x="847" y="562" type="line" smooth="yes"/>
      <point x="847" y="563"/>
      <point x="849" y="566"/>
      <point x="851" y="566" type="qcurve" smooth="yes"/>
      <point x="899" y="566" type="line" smooth="yes"/>
      <point x="900" y="566"/>
      <point x="903" y="563"/>
      <point x="903" y="562" type="qcurve" smooth="yes"/>
      <point x="903" y="477" type="line"/>
      <point x="903" y="477"/>
      <point x="928" y="489"/>
      <point x="948" y="489" type="qcurve"/>
    </contour>
    <contour>
      <point x="929" y="348" type="line"/>
      <point x="946" y="347"/>
      <point x="960" y="367"/>
      <point x="960" y="399" type="qcurve" smooth="yes"/>
      <point x="960" y="429"/>
      <point x="939" y="444"/>
      <point x="926" y="443" type="qcurve" smooth="yes"/>
      <point x="916" y="442"/>
      <point x="902" y="435"/>
      <point x="902" y="435" type="qcurve"/>
      <point x="902" y="356" type="line"/>
      <point x="902" y="356"/>
      <point x="917" y="348"/>
      <point x="929" y="348" type="qcurve"/>
    </contour>
    <contour>
      <point x="426" y="349" type="line"/>
      <point x="428" y="349"/>
      <point x="430" y="347"/>
      <point x="430" y="345" type="qcurve" smooth="yes"/>
      <point x="430" y="311" type="line" smooth="yes"/>
      <point x="430" y="310"/>
      <point x="429" y="308"/>
      <point x="428" y="308" type="qcurve"/>
      <point x="426" y="307"/>
      <point x="408" y="303"/>
      <point x="400" y="303" type="qcurve" smooth="yes"/>
      <point x="380" y="303"/>
      <point x="335" y="322"/>
      <point x="335" y="363" type="qcurve" smooth="yes"/>
      <point x="335" y="395"/>
      <point x="335" y="437"/>
      <point x="335" y="437" type="qcurve"/>
      <point x="310" y="437" type="line" smooth="yes"/>
      <point x="308" y="437"/>
      <point x="306" y="439"/>
      <point x="306" y="441" type="qcurve" smooth="yes"/>
      <point x="306" y="472" type="line" smooth="yes"/>
      <point x="306" y="473"/>
      <point x="308" y="475"/>
      <point x="309" y="476" type="qcurve"/>
      <point x="310" y="476"/>
      <point x="335" y="482"/>
      <point x="335" y="482" type="qcurve"/>
      <point x="335" y="531" type="line" smooth="yes"/>
      <point x="335" y="532"/>
      <point x="337" y="534"/>
      <point x="338" y="534" type="qcurve" smooth="yes"/>
      <point x="387" y="534" type="line" smooth="yes"/>
      <point x="388" y="534"/>
      <point x="390" y="532"/>
      <point x="390" y="531" type="qcurve" smooth="yes"/>
      <point x="390" y="484" type="line"/>
      <point x="426" y="484" type="line" smooth="yes"/>
      <point x="427" y="484"/>
      <point x="430" y="481"/>
      <point x="430" y="480" type="qcurve" smooth="yes"/>
      <point x="430" y="441" type="line" smooth="yes"/>
      <point x="430" y="439"/>
      <point x="427" y="437"/>
      <point x="426" y="437" type="qcurve" smooth="yes"/>
      <point x="390" y="437" type="line"/>
      <point x="390" y="437"/>
      <point x="390" y="375"/>
      <point x="390" y="367" type="qcurve" smooth="yes"/>
      <point x="390" y="359"/>
      <point x="400" y="348"/>
      <point x="413" y="348" type="qcurve" smooth="yes"/>
      <point x="418" y="348"/>
      <point x="425" y="349"/>
      <point x="426" y="349" type="qcurve"/>
    </contour>
  </outline>
</glyph>
<glyph name="uniE618" format="2">
  <advance width="1024"/>
  <unicode hex="E718"/>
  <note>
uniE618
</note>
  <outline>
    <contour>
      <point x="512" y="35" type="line"/>
      <point x="520" y="35"/>
      <point x="536" y="40"/>
      <point x="543" y="44" type="qcurve" smooth="yes"/>
      <point x="839" y="214" type="line" smooth="yes"/>
      <point x="853" y="223"/>
      <point x="870" y="252"/>
      <point x="870" y="268" type="qcurve" smooth="yes"/>
      <point x="870" y="610" type="line" smooth="yes"/>
      <point x="870" y="626"/>
      <point x="853" y="655"/>
      <point x="839" y="664" type="qcurve" smooth="yes"/>
      <point x="543" y="834" type="line" smooth="yes"/>
      <point x="529" y="842"/>
      <point x="495" y="842"/>
      <point x="481" y="834" type="qcurve" smooth="yes"/>
      <point x="185" y="664" type="line" smooth="yes"/>
      <point x="171" y="655"/>
      <point x="154" y="626"/>
      <point x="154" y="610" type="qcurve" smooth="yes"/>
      <point x="154" y="268" type="line" smooth="yes"/>
      <point x="154" y="252"/>
      <point x="171" y="223"/>
      <point x="185" y="214" type="qcurve" smooth="yes"/>
      <point x="263" y="170" type="line" smooth="yes"/>
      <point x="291" y="156"/>
      <point x="318" y="151"/>
      <point x="331" y="151" type="qcurve" smooth="yes"/>
      <point x="373" y="151"/>
      <point x="418" y="200"/>
      <point x="418" y="244" type="qcurve" smooth="yes"/>
      <point x="418" y="581" type="line" smooth="yes"/>
      <point x="418" y="584"/>
      <point x="413" y="589"/>
      <point x="410" y="589" type="qcurve" smooth="yes"/>
      <point x="372" y="589" type="line" smooth="yes"/>
      <point x="369" y="589"/>
      <point x="364" y="584"/>
      <point x="364" y="581" type="qcurve" smooth="yes"/>
      <point x="364" y="244" type="line" smooth="yes"/>
      <point x="364" y="224"/>
      <point x="326" y="197"/>
      <point x="293" y="214" type="qcurve" smooth="yes"/>
      <point x="212" y="260" type="line"/>
      <point x="210" y="262"/>
      <point x="207" y="266"/>
      <point x="207" y="268" type="qcurve" smooth="yes"/>
      <point x="207" y="610" type="line" smooth="yes"/>
      <point x="207" y="612"/>
      <point x="210" y="617"/>
      <point x="212" y="618" type="qcurve" smooth="yes"/>
      <point x="507" y="788" type="line"/>
      <point x="509" y="790"/>
      <point x="514" y="790"/>
      <point x="517" y="788" type="qcurve" smooth="yes"/>
      <point x="812" y="618" type="line" smooth="yes"/>
      <point x="814" y="617"/>
      <point x="817" y="612"/>
      <point x="817" y="610" type="qcurve" smooth="yes"/>
      <point x="817" y="268" type="line" smooth="yes"/>
      <point x="817" y="266"/>
      <point x="814" y="262"/>
      <point x="812" y="260" type="qcurve"/>
      <point x="516" y="90" type="line"/>
      <point x="515" y="89"/>
      <point x="509" y="89"/>
      <point x="507" y="90" type="qcurve" smooth="yes"/>
      <point x="431" y="135" type="line"/>
      <point x="430" y="136"/>
      <point x="426" y="136"/>
      <point x="424" y="135" type="qcurve" smooth="yes"/>
      <point x="408" y="126"/>
      <point x="394" y="120"/>
      <point x="379" y="115" type="qcurve" smooth="yes"/>
      <point x="376" y="114"/>
      <point x="371" y="108"/>
      <point x="382" y="102" type="qcurve" smooth="yes"/>
      <point x="481" y="44" type="line" smooth="yes"/>
      <point x="488" y="40"/>
      <point x="504" y="35"/>
      <point x="512" y="35" type="qcurve"/>
    </contour>
    <contour>
      <point x="603" y="270" type="line"/>
      <point x="674" y="270"/>
      <point x="751" y="324"/>
      <point x="751" y="372" type="qcurve" smooth="yes"/>
      <point x="751" y="420"/>
      <point x="685" y="456"/>
      <point x="617" y="465" type="qcurve" smooth="yes"/>
      <point x="548" y="474"/>
      <point x="515" y="489"/>
      <point x="515" y="505" type="qcurve" smooth="yes"/>
      <point x="515" y="518"/>
      <point x="540" y="546"/>
      <point x="591" y="546" type="qcurve" smooth="yes"/>
      <point x="637" y="546"/>
      <point x="677" y="523"/>
      <point x="684" y="492" type="qcurve"/>
      <point x="684" y="489"/>
      <point x="689" y="485"/>
      <point x="692" y="485" type="qcurve" smooth="yes"/>
      <point x="730" y="485" type="line" smooth="yes"/>
      <point x="732" y="485"/>
      <point x="735" y="487"/>
      <point x="737" y="488" type="qcurve" smooth="yes"/>
      <point x="738" y="489"/>
      <point x="739" y="493"/>
      <point x="739" y="495" type="qcurve" smooth="yes"/>
      <point x="734" y="548"/>
      <point x="662" y="598"/>
      <point x="591" y="598" type="qcurve" smooth="yes"/>
      <point x="528" y="598"/>
      <point x="457" y="548"/>
      <point x="457" y="503" type="qcurve" smooth="yes"/>
      <point x="457" y="454"/>
      <point x="527" y="418"/>
      <point x="588" y="412" type="qcurve" smooth="yes"/>
      <point x="660" y="405"/>
      <point x="692" y="384"/>
      <point x="692" y="370" type="qcurve" smooth="yes"/>
      <point x="692" y="345"/>
      <point x="650" y="322"/>
      <point x="603" y="322" type="qcurve" smooth="yes"/>
      <point x="545" y="322"/>
      <point x="506" y="352"/>
      <point x="502" y="381" type="qcurve" smooth="yes"/>
      <point x="502" y="384"/>
      <point x="497" y="388"/>
      <point x="494" y="388" type="qcurve" smooth="yes"/>
      <point x="455" y="388" type="line" smooth="yes"/>
      <point x="452" y="388"/>
      <point x="447" y="383"/>
      <point x="447" y="380" type="qcurve" smooth="yes"/>
      <point x="447" y="342"/>
      <point x="506" y="270"/>
      <point x="603" y="270" type="qcurve"/>
    </contour>
  </outline>
</glyph>
<glyph name="uniE619" format="2">
  <advance width="1024"/>
  <unicode hex="E719"/>
  <note>
uniE619
</note>
  <outline>
    <contour>
      <point x="170" y="430" type="line"/>
      <point x="170" y="321" type="line" smooth="yes"/>
      <point x="170" y="320"/>
      <point x="168" y="318"/>
      <point x="168" y="318" type="qcurve"/>
      <point x="167" y="317"/>
      <point x="164" y="317"/>
      <point x="163" y="318" type="qcurve"/>
      <point x="122" y="342" type="line" smooth="yes"/>
      <point x="120" y="343"/>
      <point x="117" y="347"/>
      <point x="117" y="349" type="qcurve" smooth="yes"/>
      <point x="117" y="400" type="line" smooth="yes"/>
      <point x="117" y="402"/>
      <point x="115" y="406"/>
      <point x="113" y="407" type="qcurve" smooth="yes"/>
      <point x="95" y="417" type="line"/>
      <point x="94" y="418"/>
      <point x="92" y="418"/>
      <point x="91" y="418" type="qcurve" smooth="yes"/>
      <point x="90" y="418"/>
      <point x="88" y="418"/>
      <point x="87" y="417" type="qcurve"/>
      <point x="69" y="407" type="line" smooth="yes"/>
      <point x="67" y="406"/>
      <point x="65" y="402"/>
      <point x="65" y="400" type="qcurve" smooth="yes"/>
      <point x="65" y="349" type="line" smooth="yes"/>
      <point x="65" y="347"/>
      <point x="63" y="343"/>
      <point x="61" y="342" type="qcurve" smooth="yes"/>
      <point x="19" y="318" type="line"/>
      <point x="18" y="317"/>
      <point x="16" y="317"/>
      <point x="15" y="318" type="qcurve"/>
      <point x="14" y="318"/>
      <point x="13" y="320"/>
      <point x="13" y="321" type="qcurve" smooth="yes"/>
      <point x="13" y="430" type="line" smooth="yes"/>
      <point x="13" y="432"/>
      <point x="15" y="436"/>
      <point x="17" y="437" type="qcurve" smooth="yes"/>
      <point x="87" y="478" type="line"/>
      <point x="88" y="478"/>
      <point x="90" y="479"/>
      <point x="91" y="479" type="qcurve"/>
      <point x="91" y="479"/>
      <point x="91" y="479"/>
      <point x="92" y="479" type="qcurve" smooth="yes"/>
      <point x="93" y="479"/>
      <point x="94" y="478"/>
      <point x="95" y="478" type="qcurve"/>
      <point x="166" y="437" type="line"/>
      <point x="167" y="436"/>
      <point x="170" y="432"/>
      <point x="170" y="430" type="qcurve"/>
    </contour>
    <contour>
      <point x="544" y="579" type="line"/>
      <point x="586" y="556" type="line" smooth="yes"/>
      <point x="588" y="555"/>
      <point x="590" y="551"/>
      <point x="590" y="549" type="qcurve" smooth="yes"/>
      <point x="590" y="347" type="line" smooth="yes"/>
      <point x="590" y="345"/>
      <point x="588" y="341"/>
      <point x="586" y="339" type="qcurve"/>
      <point x="516" y="299" type="line" smooth="yes"/>
      <point x="514" y="298"/>
      <point x="509" y="298"/>
      <point x="507" y="299" type="qcurve" smooth="yes"/>
      <point x="437" y="339" type="line"/>
      <point x="435" y="341"/>
      <point x="433" y="345"/>
      <point x="433" y="347" type="qcurve" smooth="yes"/>
      <point x="433" y="428" type="line" smooth="yes"/>
      <point x="433" y="430"/>
      <point x="435" y="434"/>
      <point x="437" y="435" type="qcurve" smooth="yes"/>
      <point x="507" y="476" type="line" smooth="yes"/>
      <point x="509" y="477"/>
      <point x="514" y="477"/>
      <point x="516" y="476" type="qcurve" smooth="yes"/>
      <point x="533" y="465" type="line"/>
      <point x="534" y="465"/>
      <point x="536" y="465"/>
      <point x="536" y="465" type="qcurve"/>
      <point x="537" y="466"/>
      <point x="538" y="467"/>
      <point x="538" y="468" type="qcurve" smooth="yes"/>
      <point x="538" y="576" type="line" smooth="yes"/>
      <point x="538" y="577"/>
      <point x="539" y="579"/>
      <point x="540" y="579" type="qcurve"/>
      <point x="541" y="580"/>
      <point x="543" y="580"/>
      <point x="544" y="579" type="qcurve"/>
    </contour>
    <contour>
      <point x="538" y="373" type="line"/>
      <point x="538" y="401" type="line" smooth="yes"/>
      <point x="538" y="402"/>
      <point x="537" y="403"/>
      <point x="537" y="403" type="qcurve"/>
      <point x="513" y="417" type="line"/>
      <point x="512" y="417"/>
      <point x="511" y="417"/>
      <point x="510" y="417" type="qcurve"/>
      <point x="486" y="403" type="line"/>
      <point x="486" y="403"/>
      <point x="485" y="402"/>
      <point x="485" y="401" type="qcurve" smooth="yes"/>
      <point x="485" y="373" type="line"/>
      <point x="485" y="373"/>
      <point x="486" y="372"/>
      <point x="486" y="372" type="qcurve"/>
      <point x="510" y="358" type="line"/>
      <point x="511" y="357"/>
      <point x="512" y="357"/>
      <point x="513" y="358" type="qcurve"/>
      <point x="537" y="372" type="line"/>
      <point x="537" y="372"/>
      <point x="538" y="373"/>
      <point x="538" y="373" type="qcurve"/>
    </contour>
    <contour>
      <point x="795" y="402" type="line"/>
      <point x="753" y="378" type="line"/>
      <point x="752" y="377"/>
      <point x="750" y="377"/>
      <point x="749" y="378" type="qcurve"/>
      <point x="748" y="378"/>
      <point x="747" y="380"/>
      <point x="747" y="381" type="qcurve" smooth="yes"/>
      <point x="747" y="401" type="line" smooth="yes"/>
      <point x="747" y="402"/>
      <point x="746" y="404"/>
      <point x="745" y="405" type="qcurve"/>
      <point x="723" y="417" type="line"/>
      <point x="722" y="418"/>
      <point x="719" y="418"/>
      <point x="719" y="417" type="qcurve"/>
      <point x="697" y="405" type="line"/>
      <point x="696" y="404"/>
      <point x="694" y="402"/>
      <point x="694" y="401" type="qcurve" smooth="yes"/>
      <point x="694" y="376" type="line" smooth="yes"/>
      <point x="694" y="375"/>
      <point x="696" y="373"/>
      <point x="697" y="372" type="qcurve"/>
      <point x="767" y="332" type="line"/>
      <point x="768" y="331"/>
      <point x="769" y="329"/>
      <point x="769" y="328" type="qcurve" smooth="yes"/>
      <point x="769" y="327"/>
      <point x="768" y="325"/>
      <point x="767" y="324" type="qcurve"/>
      <point x="725" y="301" type="line" smooth="yes"/>
      <point x="723" y="300"/>
      <point x="719" y="300"/>
      <point x="717" y="301" type="qcurve" smooth="yes"/>
      <point x="647" y="341" type="line" smooth="yes"/>
      <point x="645" y="342"/>
      <point x="643" y="346"/>
      <point x="643" y="348" type="qcurve" smooth="yes"/>
      <point x="643" y="429" type="line" smooth="yes"/>
      <point x="643" y="431"/>
      <point x="645" y="435"/>
      <point x="647" y="436" type="qcurve" smooth="yes"/>
      <point x="717" y="477" type="line" smooth="yes"/>
      <point x="719" y="478"/>
      <point x="724" y="478"/>
      <point x="725" y="477" type="qcurve"/>
      <point x="795" y="436" type="line" smooth="yes"/>
      <point x="797" y="435"/>
      <point x="799" y="431"/>
      <point x="799" y="429" type="qcurve" smooth="yes"/>
      <point x="799" y="409" type="line" smooth="yes"/>
      <point x="799" y="407"/>
      <point x="797" y="403"/>
      <point x="795" y="402" type="qcurve"/>
    </contour>
    <contour>
      <point x="297" y="477" type="line"/>
      <point x="227" y="437" type="line" smooth="yes"/>
      <point x="225" y="436"/>
      <point x="223" y="432"/>
      <point x="223" y="429" type="qcurve" smooth="yes"/>
      <point x="223" y="348" type="line" smooth="yes"/>
      <point x="223" y="346"/>
      <point x="225" y="342"/>
      <point x="227" y="341" type="qcurve" smooth="yes"/>
      <point x="297" y="300" type="line" smooth="yes"/>
      <point x="299" y="299"/>
      <point x="304" y="299"/>
      <point x="306" y="300" type="qcurve" smooth="yes"/>
      <point x="376" y="341" type="line" smooth="yes"/>
      <point x="378" y="342"/>
      <point x="380" y="346"/>
      <point x="380" y="348" type="qcurve" smooth="yes"/>
      <point x="380" y="429" type="line" smooth="yes"/>
      <point x="380" y="432"/>
      <point x="378" y="436"/>
      <point x="376" y="437" type="qcurve" smooth="yes"/>
      <point x="306" y="477" type="line" smooth="yes"/>
      <point x="304" y="478"/>
      <point x="299" y="478"/>
      <point x="297" y="477" type="qcurve"/>
    </contour>
    <contour>
      <point x="931" y="299" type="line"/>
      <point x="933" y="299"/>
      <point x="937" y="300"/>
      <point x="938" y="301" type="qcurve"/>
      <point x="1004" y="339" type="line" smooth="yes"/>
      <point x="1008" y="341"/>
      <point x="1011" y="348"/>
      <point x="1011" y="351" type="qcurve" smooth="yes"/>
      <point x="1011" y="428" type="line" smooth="yes"/>
      <point x="1011" y="431"/>
      <point x="1008" y="438"/>
      <point x="1004" y="440" type="qcurve" smooth="yes"/>
      <point x="938" y="478" type="line" smooth="yes"/>
      <point x="935" y="480"/>
      <point x="928" y="480"/>
      <point x="924" y="478" type="qcurve" smooth="yes"/>
      <point x="858" y="440" type="line" smooth="yes"/>
      <point x="855" y="438"/>
      <point x="851" y="431"/>
      <point x="851" y="428" type="qcurve" smooth="yes"/>
      <point x="851" y="351" type="line" smooth="yes"/>
      <point x="851" y="348"/>
      <point x="855" y="341"/>
      <point x="858" y="339" type="qcurve" smooth="yes"/>
      <point x="876" y="329" type="line" smooth="yes"/>
      <point x="882" y="326"/>
      <point x="888" y="325"/>
      <point x="891" y="325" type="qcurve" smooth="yes"/>
      <point x="900" y="325"/>
      <point x="910" y="336"/>
      <point x="910" y="346" type="qcurve" smooth="yes"/>
      <point x="910" y="421" type="line" smooth="yes"/>
      <point x="910" y="422"/>
      <point x="909" y="423"/>
      <point x="909" y="423" type="qcurve"/>
      <point x="900" y="423" type="line" smooth="yes"/>
      <point x="899" y="423"/>
      <point x="898" y="422"/>
      <point x="898" y="421" type="qcurve" smooth="yes"/>
      <point x="898" y="346" type="line" smooth="yes"/>
      <point x="898" y="341"/>
      <point x="890" y="335"/>
      <point x="882" y="339" type="qcurve" smooth="yes"/>
      <point x="864" y="350" type="line"/>
      <point x="864" y="350"/>
      <point x="863" y="351"/>
      <point x="863" y="351" type="qcurve"/>
      <point x="863" y="428" type="line"/>
      <point x="863" y="428"/>
      <point x="864" y="429"/>
      <point x="864" y="430" type="qcurve"/>
      <point x="930" y="468" type="line"/>
      <point x="931" y="468"/>
      <point x="932" y="468"/>
      <point x="932" y="468" type="qcurve"/>
      <point x="999" y="430" type="line"/>
      <point x="999" y="429"/>
      <point x="1000" y="428"/>
      <point x="1000" y="428" type="qcurve"/>
      <point x="1000" y="351" type="line"/>
      <point x="1000" y="351"/>
      <point x="999" y="350"/>
      <point x="999" y="350" type="qcurve"/>
      <point x="932" y="311" type="line"/>
      <point x="932" y="311"/>
      <point x="931" y="311"/>
      <point x="930" y="311" type="qcurve"/>
      <point x="913" y="322" type="line"/>
      <point x="913" y="322"/>
      <point x="912" y="322"/>
      <point x="912" y="322" type="qcurve"/>
      <point x="908" y="320"/>
      <point x="905" y="318"/>
      <point x="902" y="317" type="qcurve" smooth="yes"/>
      <point x="901" y="317"/>
      <point x="900" y="316"/>
      <point x="902" y="314" type="qcurve"/>
      <point x="924" y="301" type="line" smooth="yes"/>
      <point x="926" y="300"/>
      <point x="930" y="299"/>
      <point x="931" y="299" type="qcurve"/>
    </contour>
    <contour>
      <point x="952" y="352" type="line"/>
      <point x="968" y="352"/>
      <point x="985" y="364"/>
      <point x="985" y="375" type="qcurve" smooth="yes"/>
      <point x="985" y="385"/>
      <point x="970" y="393"/>
      <point x="955" y="395" type="qcurve" smooth="yes"/>
      <point x="939" y="397"/>
      <point x="932" y="401"/>
      <point x="932" y="404" type="qcurve" smooth="yes"/>
      <point x="932" y="407"/>
      <point x="938" y="414"/>
      <point x="949" y="414" type="qcurve" smooth="yes"/>
      <point x="959" y="414"/>
      <point x="968" y="408"/>
      <point x="970" y="401" type="qcurve"/>
      <point x="970" y="401"/>
      <point x="971" y="400"/>
      <point x="972" y="400" type="qcurve" smooth="yes"/>
      <point x="980" y="400" type="line" smooth="yes"/>
      <point x="981" y="400"/>
      <point x="981" y="400"/>
      <point x="982" y="401" type="qcurve"/>
      <point x="982" y="401"/>
      <point x="982" y="402"/>
      <point x="982" y="402" type="qcurve"/>
      <point x="981" y="414"/>
      <point x="965" y="425"/>
      <point x="949" y="425" type="qcurve" smooth="yes"/>
      <point x="935" y="425"/>
      <point x="919" y="414"/>
      <point x="919" y="404" type="qcurve" smooth="yes"/>
      <point x="919" y="393"/>
      <point x="935" y="385"/>
      <point x="948" y="384" type="qcurve" smooth="yes"/>
      <point x="965" y="382"/>
      <point x="972" y="377"/>
      <point x="972" y="374" type="qcurve" smooth="yes"/>
      <point x="972" y="368"/>
      <point x="962" y="363"/>
      <point x="952" y="363" type="qcurve" smooth="yes"/>
      <point x="939" y="363"/>
      <point x="930" y="370"/>
      <point x="929" y="377" type="qcurve"/>
      <point x="929" y="377"/>
      <point x="928" y="378"/>
      <point x="927" y="378" type="qcurve" smooth="yes"/>
      <point x="919" y="378" type="line" smooth="yes"/>
      <point x="918" y="378"/>
      <point x="917" y="377"/>
      <point x="917" y="376" type="qcurve" smooth="yes"/>
      <point x="917" y="368"/>
      <point x="930" y="352"/>
      <point x="952" y="352" type="qcurve"/>
    </contour>
    <contour>
      <point x="720" y="406" type="line"/>
      <point x="707" y="398" type="line"/>
      <point x="706" y="398"/>
      <point x="706" y="397"/>
      <point x="706" y="397" type="qcurve"/>
      <point x="706" y="381" type="line"/>
      <point x="706" y="381"/>
      <point x="706" y="380"/>
      <point x="707" y="380" type="qcurve"/>
      <point x="720" y="372" type="line"/>
      <point x="721" y="372"/>
      <point x="721" y="372"/>
      <point x="722" y="372" type="qcurve"/>
      <point x="735" y="380" type="line"/>
      <point x="736" y="380"/>
      <point x="736" y="381"/>
      <point x="736" y="381" type="qcurve"/>
      <point x="736" y="397" type="line"/>
      <point x="736" y="397"/>
      <point x="736" y="398"/>
      <point x="735" y="398" type="qcurve"/>
      <point x="722" y="406" type="line"/>
      <point x="721" y="406"/>
      <point x="721" y="406"/>
      <point x="720" y="406" type="qcurve"/>
    </contour>
  </outline>
</glyph>
<glyph name="uniE61A" format="2">
  <advance width="1024"/>
  <unicode hex="E71A"/>
  <note>
uniE61A
</note>
  <outline>
    <contour>
      <point x="811" y="763" type="line"/>
      <point x="209" y="763" type="line"/>
      <point x="209" y="161" type="line"/>
      <point x="811" y="161" type="line"/>
      <point x="811" y="763" type="line"/>
    </contour>
    <contour>
      <point x="871" y="823" type="line"/>
      <point x="871" y="101" type="line"/>
      <point x="149" y="101" type="line"/>
      <point x="149" y="823" type="line"/>
      <point x="871" y="823" type="line"/>
    </contour>
    <contour>
      <point x="587" y="644" type="line"/>
      <point x="515" y="487" type="line"/>
      <point x="441" y="644" type="line"/>
      <point x="352" y="644" type="line"/>
      <point x="477" y="419" type="line"/>
      <point x="477" y="283" type="line"/>
      <point x="552" y="283" type="line"/>
      <point x="552" y="419" type="line"/>
      <point x="672" y="644" type="line"/>
      <point x="587" y="644" type="line"/>
    </contour>
  </outline>
</glyph>
<glyph name="uniE61B" format="2">
  <advance width="1024"/>
  <unicode hex="E71B"/>
  <note>
uniE61B
</note>
  <outline>
    <contour>
      <point x="705" y="344" type="line"/>
      <point x="705" y="344"/>
      <point x="733" y="348"/>
      <point x="746" y="366" type="qcurve" smooth="yes"/>
      <point x="759" y="384"/>
      <point x="748" y="406"/>
      <point x="748" y="406" type="qcurve"/>
      <point x="748" y="406"/>
      <point x="730" y="416"/>
      <point x="717" y="392" type="qcurve" smooth="yes"/>
      <point x="704" y="368"/>
      <point x="705" y="343"/>
      <point x="705" y="343" type="qcurve"/>
    </contour>
    <contour>
      <point x="571" y="321" type="line"/>
      <point x="586" y="360"/>
      <point x="566" y="392"/>
      <point x="566" y="392" type="qcurve"/>
      <point x="566" y="392"/>
      <point x="525" y="400"/>
      <point x="513" y="360" type="qcurve" smooth="yes"/>
      <point x="501" y="321"/>
      <point x="503" y="290"/>
      <point x="503" y="290" type="qcurve"/>
      <point x="503" y="290"/>
      <point x="556" y="282"/>
      <point x="571" y="321" type="qcurve"/>
    </contour>
    <contour>
      <point x="535" y="539" type="line"/>
      <point x="535" y="539"/>
      <point x="510" y="446"/>
      <point x="509" y="427" type="qcurve"/>
      <point x="509" y="427"/>
      <point x="578" y="550"/>
      <point x="572" y="579" type="qcurve" smooth="yes"/>
      <point x="567" y="608"/>
      <point x="535" y="539"/>
      <point x="535" y="539" type="qcurve"/>
    </contour>
    <contour>
      <point x="105" y="343" type="line"/>
      <point x="105" y="343"/>
      <point x="120" y="344"/>
      <point x="137" y="355" type="qcurve" smooth="yes"/>
      <point x="153" y="366"/>
      <point x="160" y="397"/>
      <point x="151" y="405" type="qcurve" smooth="yes"/>
      <point x="142" y="413"/>
      <point x="106" y="381"/>
      <point x="105" y="344" type="qcurve" smooth="yes"/>
    </contour>
    <contour>
      <point x="1016" y="352" type="line"/>
      <point x="1018" y="339"/>
      <point x="1008" y="329"/>
      <point x="1008" y="329" type="qcurve"/>
      <point x="1008" y="329"/>
      <point x="958" y="301"/>
      <point x="934" y="308" type="qcurve" smooth="yes"/>
      <point x="910" y="314"/>
      <point x="900" y="375"/>
      <point x="900" y="375" type="qcurve"/>
      <point x="897" y="375" type="line"/>
      <point x="864" y="285" type="line"/>
      <point x="864" y="285"/>
      <point x="846" y="242"/>
      <point x="832" y="248" type="qcurve" smooth="yes"/>
      <point x="817" y="254"/>
      <point x="813" y="279"/>
      <point x="813" y="279" type="qcurve"/>
      <point x="813" y="279"/>
      <point x="768" y="245"/>
      <point x="726" y="248" type="qcurve" smooth="yes"/>
      <point x="690" y="251"/>
      <point x="662" y="292"/>
      <point x="662" y="292" type="qcurve"/>
      <point x="662" y="292"/>
      <point x="606" y="263"/>
      <point x="537" y="249" type="qcurve"/>
      <point x="506" y="246"/>
      <point x="467" y="270"/>
      <point x="467" y="270" type="qcurve"/>
      <point x="464" y="267"/>
      <point x="438" y="253"/>
      <point x="438" y="253" type="qcurve"/>
      <point x="438" y="253"/>
      <point x="400" y="243"/>
      <point x="390" y="262" type="qcurve" smooth="yes"/>
      <point x="379" y="280"/>
      <point x="385" y="363"/>
      <point x="385" y="363" type="qcurve"/>
      <point x="382" y="363" type="line"/>
      <point x="382" y="363"/>
      <point x="359" y="313"/>
      <point x="351" y="285" type="qcurve" smooth="yes"/>
      <point x="343" y="257"/>
      <point x="328" y="250"/>
      <point x="328" y="250" type="qcurve"/>
      <point x="328" y="250"/>
      <point x="302" y="253"/>
      <point x="298" y="269" type="qcurve" smooth="yes"/>
      <point x="294" y="284"/>
      <point x="307" y="364"/>
      <point x="307" y="364" type="qcurve"/>
      <point x="305" y="364" type="line"/>
      <point x="305" y="364"/>
      <point x="299" y="356"/>
      <point x="285" y="327" type="qcurve" smooth="yes"/>
      <point x="261" y="269"/>
      <point x="241" y="247"/>
      <point x="227" y="249" type="qcurve" smooth="yes"/>
      <point x="214" y="252"/>
      <point x="208" y="276"/>
      <point x="208" y="276" type="qcurve"/>
      <point x="183" y="262" type="line"/>
      <point x="183" y="262"/>
      <point x="114" y="241"/>
      <point x="91" y="259" type="qcurve" smooth="yes"/>
      <point x="75" y="271"/>
      <point x="61" y="299"/>
      <point x="60" y="308" type="qcurve"/>
      <point x="60" y="308" type="line"/>
      <point x="60" y="308"/>
      <point x="28" y="312"/>
      <point x="15" y="317" type="qcurve" smooth="yes"/>
      <point x="2" y="323"/>
      <point x="15" y="346"/>
      <point x="15" y="346" type="qcurve"/>
      <point x="15" y="346"/>
      <point x="23" y="353"/>
      <point x="31" y="346" type="qcurve" smooth="yes"/>
      <point x="38" y="340"/>
      <point x="60" y="342"/>
      <point x="60" y="342" type="qcurve"/>
      <point x="61" y="352"/>
      <point x="66" y="377"/>
      <point x="73" y="391" type="qcurve" smooth="yes"/>
      <point x="86" y="421"/>
      <point x="122" y="444"/>
      <point x="138" y="444" type="qcurve" smooth="yes"/>
      <point x="155" y="444"/>
      <point x="178" y="434"/>
      <point x="188" y="420" type="qcurve"/>
      <point x="210" y="366"/>
      <point x="110" y="311"/>
      <point x="110" y="311" type="qcurve"/>
      <point x="110" y="311"/>
      <point x="115" y="292"/>
      <point x="137" y="292" type="qcurve" smooth="yes"/>
      <point x="159" y="293"/>
      <point x="210" y="324"/>
      <point x="210" y="324" type="qcurve"/>
      <point x="212" y="343"/>
      <point x="231" y="427"/>
      <point x="234" y="436" type="qcurve" smooth="yes"/>
      <point x="238" y="444"/>
      <point x="257" y="445"/>
      <point x="257" y="445" type="qcurve"/>
      <point x="257" y="445"/>
      <point x="271" y="444"/>
      <point x="273" y="433" type="qcurve" smooth="yes"/>
      <point x="275" y="422"/>
      <point x="263" y="358"/>
      <point x="263" y="358" type="qcurve"/>
      <point x="265" y="356" type="line"/>
      <point x="266" y="360"/>
      <point x="297" y="413"/>
      <point x="297" y="413" type="qcurve"/>
      <point x="297" y="413"/>
      <point x="322" y="444"/>
      <point x="342" y="443" type="qcurve" smooth="yes"/>
      <point x="362" y="442"/>
      <point x="341" y="359"/>
      <point x="341" y="359" type="qcurve"/>
      <point x="343" y="356" type="line"/>
      <point x="345" y="360" type="line" smooth="yes"/>
      <point x="348" y="367"/>
      <point x="389" y="430"/>
      <point x="389" y="430" type="qcurve"/>
      <point x="389" y="430"/>
      <point x="407" y="447"/>
      <point x="418" y="444" type="qcurve" smooth="yes"/>
      <point x="428" y="441"/>
      <point x="433" y="430"/>
      <point x="434" y="421" type="qcurve" smooth="yes"/>
      <point x="434" y="413"/>
      <point x="423" y="339"/>
      <point x="423" y="339" type="qcurve"/>
      <point x="423" y="339"/>
      <point x="420" y="293"/>
      <point x="431" y="294" type="qcurve" smooth="yes"/>
      <point x="442" y="295"/>
      <point x="463" y="311"/>
      <point x="463" y="311" type="qcurve"/>
      <point x="463" y="311"/>
      <point x="477" y="420"/>
      <point x="483" y="476" type="qcurve" smooth="yes"/>
      <point x="489" y="533"/>
      <point x="525" y="602"/>
      <point x="525" y="602" type="qcurve"/>
      <point x="525" y="602"/>
      <point x="542" y="620"/>
      <point x="562" y="628" type="qcurve" smooth="yes"/>
      <point x="576" y="633"/>
      <point x="602" y="621"/>
      <point x="608" y="592" type="qcurve" smooth="yes"/>
      <point x="623" y="531"/>
      <point x="542" y="415"/>
      <point x="542" y="415" type="qcurve"/>
      <point x="542" y="415"/>
      <point x="572" y="447"/>
      <point x="593" y="434" type="qcurve" smooth="yes"/>
      <point x="641" y="404"/>
      <point x="605" y="307"/>
      <point x="605" y="307" type="qcurve"/>
      <point x="619" y="311"/>
      <point x="657" y="335"/>
      <point x="657" y="335" type="qcurve"/>
      <point x="657" y="335"/>
      <point x="658" y="345"/>
      <point x="658" y="347" type="qcurve" smooth="yes"/>
      <point x="666" y="396"/>
      <point x="710" y="437"/>
      <point x="716" y="441" type="qcurve" smooth="yes"/>
      <point x="721" y="445"/>
      <point x="790" y="455"/>
      <point x="793" y="403" type="qcurve" smooth="yes"/>
      <point x="795" y="351"/>
      <point x="709" y="310"/>
      <point x="709" y="310" type="qcurve"/>
      <point x="709" y="310"/>
      <point x="725" y="291"/>
      <point x="749" y="295" type="qcurve" smooth="yes"/>
      <point x="772" y="299"/>
      <point x="817" y="331"/>
      <point x="817" y="331" type="qcurve"/>
      <point x="818" y="352"/>
      <point x="838" y="430"/>
      <point x="841" y="437" type="qcurve" smooth="yes"/>
      <point x="843" y="444"/>
      <point x="868" y="446"/>
      <point x="870" y="442" type="qcurve" smooth="yes"/>
      <point x="873" y="433"/>
      <point x="871" y="382"/>
      <point x="871" y="382" type="qcurve"/>
      <point x="873" y="383" type="line"/>
      <point x="880" y="404"/>
      <point x="902" y="432"/>
      <point x="902" y="432" type="qcurve"/>
      <point x="902" y="432"/>
      <point x="921" y="447"/>
      <point x="930" y="444" type="qcurve" smooth="yes"/>
      <point x="940" y="441"/>
      <point x="938" y="396"/>
      <point x="938" y="396" type="qcurve"/>
      <point x="938" y="396"/>
      <point x="937" y="347"/>
      <point x="953" y="346" type="qcurve" smooth="yes"/>
      <point x="969" y="344"/>
      <point x="999" y="363"/>
      <point x="999" y="363" type="qcurve"/>
      <point x="999" y="363"/>
      <point x="1015" y="365"/>
      <point x="1016" y="352" type="qcurve"/>
    </contour>
  </outline>
</glyph>
<glyph name="uniE61C" format="2">
  <advance width="1024"/>
  <unicode hex="E71C"/>
  <note>
uniE61C
</note>
  <outline>
    <contour>
      <point x="262" y="670" type="line"/>
      <point x="262" y="671"/>
      <point x="275" y="672"/>
      <point x="285" y="672" type="qcurve" smooth="yes"/>
      <point x="309" y="672" type="line"/>
      <point x="309" y="300" type="line"/>
      <point x="261" y="301" type="line"/>
      <point x="261" y="317" type="line" smooth="yes"/>
      <point x="261" y="323"/>
      <point x="260" y="332"/>
      <point x="260" y="332" type="qcurve"/>
      <point x="260" y="332"/>
      <point x="252" y="327"/>
      <point x="247" y="323" type="qcurve" smooth="yes"/>
      <point x="235" y="314"/>
      <point x="211" y="302"/>
      <point x="197" y="298" type="qcurve" smooth="yes"/>
      <point x="188" y="295"/>
      <point x="173" y="294"/>
      <point x="155" y="294" type="qcurve" smooth="yes"/>
      <point x="135" y="294"/>
      <point x="122" y="295"/>
      <point x="109" y="300" type="qcurve" smooth="yes"/>
      <point x="71" y="313"/>
      <point x="19" y="367"/>
      <point x="9" y="404" type="qcurve" smooth="yes"/>
      <point x="5" y="417"/>
      <point x="5" y="464"/>
      <point x="8" y="477" type="qcurve" smooth="yes"/>
      <point x="17" y="511"/>
      <point x="58" y="563"/>
      <point x="87" y="577" type="qcurve" smooth="yes"/>
      <point x="106" y="587"/>
      <point x="134" y="593"/>
      <point x="156" y="593" type="qcurve" smooth="yes"/>
      <point x="177" y="593"/>
      <point x="204" y="587"/>
      <point x="221" y="580" type="qcurve" smooth="yes"/>
      <point x="230" y="575"/>
      <point x="235" y="571"/>
      <point x="235" y="569" type="qcurve"/>
      <point x="234" y="567"/>
      <point x="232" y="555"/>
      <point x="231" y="548" type="qcurve" smooth="yes"/>
      <point x="230" y="541"/>
      <point x="229" y="531"/>
      <point x="229" y="531" type="qcurve"/>
      <point x="228" y="530"/>
      <point x="221" y="534"/>
      <point x="216" y="538" type="qcurve" smooth="yes"/>
      <point x="203" y="546"/>
      <point x="179" y="553"/>
      <point x="162" y="554" type="qcurve" smooth="yes"/>
      <point x="135" y="555"/>
      <point x="96" y="541"/>
      <point x="78" y="522" type="qcurve" smooth="yes"/>
      <point x="65" y="509"/>
      <point x="51" y="485"/>
      <point x="48" y="470" type="qcurve" smooth="yes"/>
      <point x="41" y="441"/>
      <point x="57" y="386"/>
      <point x="79" y="364" type="qcurve" smooth="yes"/>
      <point x="96" y="347"/>
      <point x="132" y="332"/>
      <point x="156" y="332" type="qcurve" smooth="yes"/>
      <point x="172" y="332"/>
      <point x="195" y="337"/>
      <point x="210" y="345" type="qcurve" smooth="yes"/>
      <point x="223" y="352"/>
      <point x="249" y="378"/>
      <point x="255" y="391" type="qcurve" smooth="yes"/>
      <point x="262" y="403" type="line"/>
      <point x="262" y="536" type="line" smooth="yes"/>
      <point x="262" y="591"/>
      <point x="262" y="670"/>
      <point x="262" y="670" type="qcurve"/>
    </contour>
    <contour>
      <point x="650" y="633" type="line"/>
      <point x="650" y="662" type="line"/>
      <point x="687" y="662" type="line"/>
      <point x="687" y="604" type="line"/>
      <point x="650" y="604" type="line"/>
      <point x="650" y="633" type="line"/>
    </contour>
    <contour>
      <point x="416" y="649" type="line"/>
      <point x="417" y="650"/>
      <point x="455" y="651"/>
      <point x="481" y="650" type="qcurve" smooth="yes"/>
      <point x="525" y="650"/>
      <point x="543" y="649"/>
      <point x="544" y="646" type="qcurve" smooth="yes"/>
      <point x="544" y="645"/>
      <point x="544" y="640"/>
      <point x="543" y="638" type="qcurve" smooth="yes"/>
      <point x="542" y="634" type="line"/>
      <point x="479" y="634" type="line"/>
      <point x="415" y="635" type="line"/>
      <point x="415" y="641" type="line"/>
      <point x="414" y="644"/>
      <point x="415" y="648"/>
      <point x="416" y="649" type="qcurve"/>
    </contour>
    <contour>
      <point x="805" y="649" type="line"/>
      <point x="806" y="650"/>
      <point x="835" y="651"/>
      <point x="869" y="651" type="qcurve" smooth="yes"/>
      <point x="915" y="651"/>
      <point x="931" y="650"/>
      <point x="933" y="647" type="qcurve" smooth="yes"/>
      <point x="934" y="645"/>
      <point x="934" y="641"/>
      <point x="933" y="638" type="qcurve" smooth="yes"/>
      <point x="931" y="634" type="line"/>
      <point x="868" y="634" type="line" smooth="yes"/>
      <point x="826" y="634"/>
      <point x="804" y="635"/>
      <point x="804" y="637" type="qcurve"/>
      <point x="802" y="640"/>
      <point x="803" y="647"/>
      <point x="805" y="649" type="qcurve"/>
    </contour>
    <contour>
      <point x="451" y="592" type="line"/>
      <point x="464" y="594"/>
      <point x="504" y="592"/>
      <point x="518" y="589" type="qcurve" smooth="yes"/>
      <point x="524" y="587"/>
      <point x="543" y="580"/>
      <point x="550" y="576" type="qcurve" smooth="yes"/>
      <point x="561" y="571"/>
      <point x="575" y="560"/>
      <point x="586" y="549" type="qcurve" smooth="yes"/>
      <point x="598" y="537"/>
      <point x="607" y="524"/>
      <point x="614" y="511" type="qcurve" smooth="yes"/>
      <point x="623" y="492"/>
      <point x="630" y="463"/>
      <point x="629" y="443" type="qcurve" smooth="yes"/>
      <point x="629" y="393"/>
      <point x="573" y="317"/>
      <point x="525" y="300" type="qcurve" smooth="yes"/>
      <point x="512" y="295"/>
      <point x="499" y="294"/>
      <point x="478" y="294" type="qcurve" smooth="yes"/>
      <point x="457" y="294"/>
      <point x="444" y="295"/>
      <point x="431" y="300" type="qcurve" smooth="yes"/>
      <point x="412" y="307"/>
      <point x="385" y="324"/>
      <point x="370" y="339" type="qcurve" smooth="yes"/>
      <point x="358" y="350"/>
      <point x="349" y="363"/>
      <point x="343" y="376" type="qcurve" smooth="yes"/>
      <point x="334" y="395"/>
      <point x="327" y="421"/>
      <point x="327" y="443" type="qcurve" smooth="yes"/>
      <point x="327" y="457"/>
      <point x="329" y="472"/>
      <point x="332" y="482" type="qcurve" smooth="yes"/>
      <point x="339" y="505"/>
      <point x="360" y="540"/>
      <point x="377" y="555" type="qcurve" smooth="yes"/>
      <point x="391" y="569"/>
      <point x="429" y="587"/>
      <point x="451" y="592" type="qcurve"/>
    </contour>
    <contour>
      <point x="516" y="549" type="line"/>
      <point x="504" y="553"/>
      <point x="461" y="555"/>
      <point x="450" y="552" type="qcurve" smooth="yes"/>
      <point x="407" y="540"/>
      <point x="360" y="462"/>
      <point x="370" y="419" type="qcurve" smooth="yes"/>
      <point x="377" y="389"/>
      <point x="420" y="344"/>
      <point x="449" y="335" type="qcurve" smooth="yes"/>
      <point x="460" y="332"/>
      <point x="496" y="332"/>
      <point x="507" y="335" type="qcurve" smooth="yes"/>
      <point x="559" y="350"/>
      <point x="603" y="444"/>
      <point x="580" y="491" type="qcurve" smooth="yes"/>
      <point x="570" y="511"/>
      <point x="536" y="542"/>
      <point x="516" y="549" type="qcurve"/>
    </contour>
    <contour>
      <point x="839" y="592" type="line"/>
      <point x="853" y="594"/>
      <point x="894" y="592"/>
      <point x="908" y="589" type="qcurve" smooth="yes"/>
      <point x="945" y="578"/>
      <point x="999" y="528"/>
      <point x="1011" y="493" type="qcurve" smooth="yes"/>
      <point x="1032" y="429"/>
      <point x="967" y="312"/>
      <point x="901" y="296" type="qcurve" smooth="yes"/>
      <point x="885" y="292"/>
      <point x="839" y="294"/>
      <point x="824" y="298" type="qcurve" smooth="yes"/>
      <point x="792" y="309"/>
      <point x="741" y="352"/>
      <point x="729" y="381" type="qcurve" smooth="yes"/>
      <point x="722" y="397"/>
      <point x="718" y="419"/>
      <point x="718" y="442" type="qcurve" smooth="yes"/>
      <point x="718" y="462"/>
      <point x="719" y="477"/>
      <point x="723" y="487" type="qcurve" smooth="yes"/>
      <point x="736" y="529"/>
      <point x="796" y="583"/>
      <point x="839" y="592" type="qcurve"/>
    </contour>
    <contour>
      <point x="895" y="552" type="line"/>
      <point x="883" y="555"/>
      <point x="848" y="554"/>
      <point x="837" y="551" type="qcurve" smooth="yes"/>
      <point x="810" y="543"/>
      <point x="770" y="505"/>
      <point x="761" y="477" type="qcurve" smooth="yes"/>
      <point x="757" y="465"/>
      <point x="756" y="427"/>
      <point x="760" y="414" type="qcurve" smooth="yes"/>
      <point x="764" y="400"/>
      <point x="779" y="374"/>
      <point x="790" y="363" type="qcurve" smooth="yes"/>
      <point x="807" y="347"/>
      <point x="844" y="332"/>
      <point x="867" y="332" type="qcurve" smooth="yes"/>
      <point x="879" y="332"/>
      <point x="892" y="334"/>
      <point x="902" y="337" type="qcurve" smooth="yes"/>
      <point x="917" y="343"/>
      <point x="940" y="358"/>
      <point x="951" y="369" type="qcurve" smooth="yes"/>
      <point x="965" y="385"/>
      <point x="980" y="422"/>
      <point x="980" y="443" type="qcurve" smooth="yes"/>
      <point x="980" y="458"/>
      <point x="974" y="480"/>
      <point x="967" y="494" type="qcurve" smooth="yes"/>
      <point x="957" y="515"/>
      <point x="917" y="547"/>
      <point x="895" y="552" type="qcurve"/>
    </contour>
    <contour>
      <point x="668" y="585" type="line"/>
      <point x="687" y="586" type="line"/>
      <point x="687" y="442" type="line" smooth="yes"/>
      <point x="687" y="322"/>
      <point x="685" y="286"/>
      <point x="675" y="266" type="qcurve" smooth="yes"/>
      <point x="668" y="252"/>
      <point x="636" y="206"/>
      <point x="632" y="206" type="qcurve" smooth="yes"/>
      <point x="631" y="206"/>
      <point x="608" y="237"/>
      <point x="608" y="239" type="qcurve" smooth="yes"/>
      <point x="608" y="240"/>
      <point x="615" y="248"/>
      <point x="620" y="253" type="qcurve" smooth="yes"/>
      <point x="625" y="258"/>
      <point x="636" y="272"/>
      <point x="638" y="277" type="qcurve" smooth="yes"/>
      <point x="647" y="295"/>
      <point x="650" y="335"/>
      <point x="650" y="448" type="qcurve" smooth="yes"/>
      <point x="650" y="585" type="line"/>
      <point x="668" y="585" type="line"/>
    </contour>
  </outline>
</glyph>
<glyph name="uniE61D" format="2">
  <advance width="1024"/>
  <unicode hex="E71D"/>
  <note>
uniE61D
</note>
  <outline>
    <contour>
      <point x="124" y="573" type="line"/>
      <point x="124" y="615" type="line"/>
      <point x="180" y="615" type="line"/>
      <point x="180" y="360" type="line"/>
      <point x="178" y="359" type="line"/>
      <point x="155" y="354"/>
      <point x="98" y="351"/>
      <point x="82" y="354" type="qcurve" smooth="yes"/>
      <point x="59" y="357"/>
      <point x="29" y="374"/>
      <point x="19" y="389" type="qcurve" smooth="yes"/>
      <point x="13" y="398"/>
      <point x="6" y="421"/>
      <point x="5" y="436" type="qcurve" smooth="yes"/>
      <point x="4" y="470"/>
      <point x="35" y="519"/>
      <point x="64" y="528" type="qcurve" smooth="yes"/>
      <point x="77" y="533"/>
      <point x="107" y="535"/>
      <point x="121" y="532" type="qcurve"/>
      <point x="124" y="532" type="line"/>
      <point x="124" y="573" type="line"/>
    </contour>
    <contour>
      <point x="120" y="488" type="line"/>
      <point x="116" y="489"/>
      <point x="99" y="489"/>
      <point x="94" y="488" type="qcurve" smooth="yes"/>
      <point x="79" y="485"/>
      <point x="62" y="461"/>
      <point x="62" y="442" type="qcurve" smooth="yes"/>
      <point x="62" y="432"/>
      <point x="67" y="415"/>
      <point x="73" y="409" type="qcurve" smooth="yes"/>
      <point x="80" y="401"/>
      <point x="102" y="396"/>
      <point x="119" y="397" type="qcurve" smooth="yes"/>
      <point x="124" y="398" type="line"/>
      <point x="124" y="487" type="line"/>
      <point x="120" y="488" type="line"/>
    </contour>
    <contour>
      <point x="213" y="587" type="line"/>
      <point x="213" y="615" type="line"/>
      <point x="241" y="615" type="line"/>
      <point x="268" y="615" type="line"/>
      <point x="269" y="587" type="line"/>
      <point x="269" y="559" type="line"/>
      <point x="213" y="559" type="line"/>
      <point x="213" y="587" type="line"/>
    </contour>
    <contour>
      <point x="364" y="534" type="line"/>
      <point x="370" y="534"/>
      <point x="392" y="533"/>
      <point x="397" y="532" type="qcurve" smooth="yes"/>
      <point x="416" y="529"/>
      <point x="434" y="510"/>
      <point x="436" y="492" type="qcurve" smooth="yes"/>
      <point x="436" y="489"/>
      <point x="437" y="447"/>
      <point x="437" y="421" type="qcurve" smooth="yes"/>
      <point x="437" y="357" type="line"/>
      <point x="432" y="357" type="line"/>
      <point x="376" y="350"/>
      <point x="324" y="353"/>
      <point x="309" y="362" type="qcurve" smooth="yes"/>
      <point x="303" y="366"/>
      <point x="294" y="379"/>
      <point x="292" y="388" type="qcurve" smooth="yes"/>
      <point x="291" y="393"/>
      <point x="291" y="413"/>
      <point x="292" y="418" type="qcurve" smooth="yes"/>
      <point x="296" y="436"/>
      <point x="329" y="457"/>
      <point x="359" y="462" type="qcurve" smooth="yes"/>
      <point x="365" y="463"/>
      <point x="384" y="466"/>
      <point x="386" y="466" type="qcurve"/>
      <point x="386" y="466"/>
      <point x="386" y="471"/>
      <point x="386" y="474" type="qcurve" smooth="yes"/>
      <point x="386" y="480"/>
      <point x="384" y="487"/>
      <point x="381" y="489" type="qcurve" smooth="yes"/>
      <point x="379" y="490"/>
      <point x="375" y="491"/>
      <point x="368" y="491" type="qcurve" smooth="yes"/>
      <point x="353" y="492"/>
      <point x="325" y="485"/>
      <point x="303" y="475" type="qcurve"/>
      <point x="302" y="475"/>
      <point x="302" y="484"/>
      <point x="302" y="496" type="qcurve" smooth="yes"/>
      <point x="302" y="517" type="line"/>
      <point x="307" y="520" type="line"/>
      <point x="320" y="525"/>
      <point x="349" y="533"/>
      <point x="364" y="534" type="qcurve"/>
    </contour>
    <contour>
      <point x="389" y="411" type="line"/>
      <point x="389" y="430" type="line"/>
      <point x="387" y="429" type="line"/>
      <point x="384" y="429"/>
      <point x="363" y="426"/>
      <point x="359" y="425" type="qcurve" smooth="yes"/>
      <point x="353" y="423"/>
      <point x="344" y="417"/>
      <point x="342" y="414" type="qcurve" smooth="yes"/>
      <point x="338" y="407"/>
      <point x="343" y="394"/>
      <point x="350" y="392" type="qcurve"/>
      <point x="353" y="390"/>
      <point x="373" y="390"/>
      <point x="381" y="391" type="qcurve" smooth="yes"/>
      <point x="389" y="393" type="line"/>
      <point x="389" y="411" type="line"/>
    </contour>
    <contour>
      <point x="538" y="534" type="line"/>
      <point x="548" y="534"/>
      <point x="556" y="534"/>
      <point x="564" y="533" type="qcurve" smooth="yes"/>
      <point x="581" y="532"/>
      <point x="603" y="523"/>
      <point x="612" y="515" type="qcurve" smooth="yes"/>
      <point x="617" y="510"/>
      <point x="623" y="499"/>
      <point x="625" y="492" type="qcurve" smooth="yes"/>
      <point x="626" y="488"/>
      <point x="626" y="465"/>
      <point x="627" y="420" type="qcurve" smooth="yes"/>
      <point x="627" y="354" type="line"/>
      <point x="572" y="354" type="line"/>
      <point x="572" y="413" type="line" smooth="yes"/>
      <point x="572" y="452"/>
      <point x="571" y="472"/>
      <point x="570" y="475" type="qcurve" smooth="yes"/>
      <point x="568" y="479"/>
      <point x="563" y="485"/>
      <point x="559" y="487" type="qcurve" smooth="yes"/>
      <point x="556" y="488"/>
      <point x="551" y="489"/>
      <point x="543" y="489" type="qcurve" smooth="yes"/>
      <point x="537" y="489"/>
      <point x="529" y="488"/>
      <point x="526" y="487" type="qcurve" smooth="yes"/>
      <point x="520" y="486" type="line"/>
      <point x="520" y="420" type="line"/>
      <point x="520" y="354" type="line"/>
      <point x="464" y="354" type="line"/>
      <point x="464" y="522" type="line"/>
      <point x="467" y="522" type="line"/>
      <point x="483" y="527"/>
      <point x="523" y="533"/>
      <point x="538" y="534" type="qcurve"/>
    </contour>
    <contour>
      <point x="909" y="533" type="line"/>
      <point x="916" y="534"/>
      <point x="943" y="534"/>
      <point x="951" y="533" type="qcurve" smooth="yes"/>
      <point x="962" y="531"/>
      <point x="977" y="524"/>
      <point x="985" y="519" type="qcurve" smooth="yes"/>
      <point x="1003" y="506"/>
      <point x="1021" y="457"/>
      <point x="1018" y="428" type="qcurve" smooth="yes"/>
      <point x="1015" y="403"/>
      <point x="990" y="367"/>
      <point x="970" y="358" type="qcurve" smooth="yes"/>
      <point x="954" y="351"/>
      <point x="910" y="349"/>
      <point x="893" y="355" type="qcurve" smooth="yes"/>
      <point x="872" y="362"/>
      <point x="845" y="392"/>
      <point x="840" y="414" type="qcurve" smooth="yes"/>
      <point x="839" y="418"/>
      <point x="838" y="428"/>
      <point x="838" y="436" type="qcurve" smooth="yes"/>
      <point x="838" y="450"/>
      <point x="840" y="467"/>
      <point x="844" y="478" type="qcurve" smooth="yes"/>
      <point x="851" y="500"/>
      <point x="885" y="529"/>
      <point x="909" y="533" type="qcurve"/>
    </contour>
    <contour>
      <point x="940" y="488" type="line"/>
      <point x="933" y="491"/>
      <point x="917" y="489"/>
      <point x="911" y="485" type="qcurve" smooth="yes"/>
      <point x="905" y="481"/>
      <point x="898" y="468"/>
      <point x="896" y="459" type="qcurve" smooth="yes"/>
      <point x="894" y="451"/>
      <point x="895" y="426"/>
      <point x="897" y="419" type="qcurve" smooth="yes"/>
      <point x="900" y="411"/>
      <point x="909" y="400"/>
      <point x="916" y="397" type="qcurve" smooth="yes"/>
      <point x="919" y="395"/>
      <point x="923" y="395"/>
      <point x="928" y="395" type="qcurve" smooth="yes"/>
      <point x="933" y="395"/>
      <point x="938" y="395"/>
      <point x="941" y="397" type="qcurve" smooth="yes"/>
      <point x="948" y="400"/>
      <point x="957" y="412"/>
      <point x="960" y="422" type="qcurve" smooth="yes"/>
      <point x="961" y="426"/>
      <point x="962" y="433"/>
      <point x="962" y="442" type="qcurve" smooth="yes"/>
      <point x="962" y="451"/>
      <point x="961" y="459"/>
      <point x="960" y="463" type="qcurve" smooth="yes"/>
      <point x="957" y="473"/>
      <point x="947" y="485"/>
      <point x="940" y="488" type="qcurve"/>
    </contour>
    <contour>
      <point x="750" y="533" type="line"/>
      <point x="752" y="533"/>
      <point x="767" y="533"/>
      <point x="777" y="533" type="qcurve" smooth="yes"/>
      <point x="789" y="533"/>
      <point x="805" y="532"/>
      <point x="812" y="531" type="qcurve" smooth="yes"/>
      <point x="822" y="530"/>
      <point x="842" y="526"/>
      <point x="843" y="526" type="qcurve"/>
      <point x="843" y="525"/>
      <point x="838" y="514"/>
      <point x="834" y="506" type="qcurve" smooth="yes"/>
      <point x="825" y="487" type="line"/>
      <point x="818" y="487" type="line"/>
      <point x="812" y="487" type="line"/>
      <point x="812" y="475" type="line" smooth="yes"/>
      <point x="813" y="458"/>
      <point x="813" y="352"/>
      <point x="812" y="345" type="qcurve" smooth="yes"/>
      <point x="810" y="331"/>
      <point x="803" y="309"/>
      <point x="797" y="301" type="qcurve" smooth="yes"/>
      <point x="784" y="282"/>
      <point x="739" y="262"/>
      <point x="708" y="262" type="qcurve" smooth="yes"/>
      <point x="694" y="262"/>
      <point x="671" y="266"/>
      <point x="659" y="270" type="qcurve" smooth="yes"/>
      <point x="649" y="273" type="line"/>
      <point x="649" y="324" type="line"/>
      <point x="655" y="321" type="line" smooth="yes"/>
      <point x="661" y="318"/>
      <point x="677" y="313"/>
      <point x="684" y="312" type="qcurve" smooth="yes"/>
      <point x="692" y="310"/>
      <point x="723" y="310"/>
      <point x="729" y="312" type="qcurve" smooth="yes"/>
      <point x="740" y="315"/>
      <point x="754" y="328"/>
      <point x="757" y="338" type="qcurve" smooth="yes"/>
      <point x="758" y="342"/>
      <point x="760" y="359"/>
      <point x="760" y="359" type="qcurve"/>
      <point x="760" y="359"/>
      <point x="755" y="358"/>
      <point x="752" y="357" type="qcurve" smooth="yes"/>
      <point x="739" y="353"/>
      <point x="707" y="353"/>
      <point x="693" y="358" type="qcurve" smooth="yes"/>
      <point x="670" y="366"/>
      <point x="645" y="406"/>
      <point x="645" y="435" type="qcurve" smooth="yes"/>
      <point x="645" y="465"/>
      <point x="671" y="508"/>
      <point x="697" y="520" type="qcurve" smooth="yes"/>
      <point x="708" y="525"/>
      <point x="734" y="531"/>
      <point x="750" y="533" type="qcurve"/>
    </contour>
    <contour>
      <point x="759" y="476" type="line"/>
      <point x="758" y="490" type="line"/>
      <point x="754" y="489" type="line"/>
      <point x="740" y="489"/>
      <point x="719" y="481"/>
      <point x="712" y="474" type="qcurve" smooth="yes"/>
      <point x="706" y="467"/>
      <point x="701" y="450"/>
      <point x="701" y="438" type="qcurve" smooth="yes"/>
      <point x="702" y="423"/>
      <point x="713" y="404"/>
      <point x="724" y="400" type="qcurve" smooth="yes"/>
      <point x="730" y="398"/>
      <point x="748" y="398"/>
      <point x="757" y="400" type="qcurve" smooth="yes"/>
      <point x="760" y="401" type="line"/>
      <point x="760" y="432" type="line" smooth="yes"/>
      <point x="760" y="444"/>
      <point x="759" y="470"/>
      <point x="759" y="476" type="qcurve"/>
    </contour>
    <contour>
      <point x="213" y="466" type="line"/>
      <point x="213" y="530" type="line"/>
      <point x="269" y="530" type="line"/>
      <point x="268" y="451" type="line" smooth="yes"/>
      <point x="268" y="416"/>
      <point x="267" y="367"/>
      <point x="267" y="363" type="qcurve" smooth="yes"/>
      <point x="264" y="331"/>
      <point x="240" y="293"/>
      <point x="215" y="280" type="qcurve" smooth="yes"/>
      <point x="210" y="277" type="line"/>
      <point x="186" y="289" type="line" smooth="yes"/>
      <point x="175" y="294"/>
      <point x="160" y="301"/>
      <point x="160" y="301" type="qcurve"/>
      <point x="159" y="302"/>
      <point x="161" y="303"/>
      <point x="165" y="305" type="qcurve" smooth="yes"/>
      <point x="178" y="312"/>
      <point x="197" y="328"/>
      <point x="201" y="337" type="qcurve" smooth="yes"/>
      <point x="209" y="352"/>
      <point x="213" y="394"/>
      <point x="213" y="466" type="qcurve"/>
    </contour>
  </outline>
</glyph>
